<svg width="83" height="96" viewBox="0 0 83 96" fill="none" xmlns="http://www.w3.org/2000/svg">
<path d="M54.6048 2V17.64C54.6048 18.372 54.8819 19.074 55.3752 19.5916C55.8684 20.1092 56.5375 20.4 57.235 20.4H72.1397M50.2211 75.6C50.2211 79.26 51.6066 82.7701 54.073 85.3581C56.5393 87.9461 59.8844 89.4 63.3723 89.4C66.8602 89.4 70.2052 87.9461 72.6716 85.3581C75.1379 82.7701 76.5235 79.26 76.5235 75.6C76.5235 71.94 75.1379 68.4299 72.6716 65.8419C70.2052 63.2539 66.8602 61.8 63.3723 61.8C59.8844 61.8 56.5393 63.2539 54.073 65.8419C51.6066 68.4299 50.2211 71.94 50.2211 75.6Z" stroke="#86EFB0" stroke-width="3" stroke-linecap="round" stroke-linejoin="round"/>
<path d="M72.1397 48V19.2454C72.14 18.8823 72.072 18.5227 71.9396 18.1872C71.8072 17.8518 71.613 17.547 71.3682 17.2904L57.5682 2.8096C57.0754 2.29185 56.4069 2.00064 55.7095 2H4.63024C3.93266 2 3.26365 2.29078 2.77038 2.80839C2.27711 3.32599 2 4.028 2 4.76V91.24C2 91.972 2.27711 92.674 2.77038 93.1916C3.26365 93.7092 3.93266 94 4.63024 94H32.6861M19.5349 38.8H54.6048M19.5349 20.4H37.0699M19.5349 57.2H32.6861M74.3316 87.1L80.9072 94" stroke="#6047C5" stroke-width="3" stroke-linecap="round" stroke-linejoin="round"/>
<path d="M73.5 86.5L81 94" stroke="#86EFB0" stroke-width="3" stroke-linecap="round"/>
</svg>
