<svg width="89" height="113" viewBox="0 0 89 113" fill="none" xmlns="http://www.w3.org/2000/svg">
<path d="M68.546 7.74245H83.8253C84.9325 7.74245 85.9944 8.17551 86.7773 8.9465C87.5602 9.71748 88 10.7632 88 11.8536V107.889C88 108.979 87.5602 110.025 86.7773 110.796C85.9944 111.567 84.9325 112 83.8253 112H5.17466C4.06747 112 3.00563 111.567 2.22273 110.796C1.43983 110.025 1 108.979 1 107.889V11.8946C1 10.8042 1.43983 9.75863 2.22273 8.98765C3.00563 8.21667 4.06747 7.78347 5.17466 7.78347H20.2869" stroke="#5B49C1" stroke-width="2" stroke-linecap="round" stroke-linejoin="round"/>
<path d="M68.546 7.74245H76.0186V100.201H12.856V7.74245H20.2869" stroke="#5B49C1" stroke-width="2" stroke-linecap="round" stroke-linejoin="round"/>
<path d="M61.6995 14.5256H27.1751C25.3482 14.5256 23.5962 13.8109 22.3044 12.5388C21.0126 11.2666 20.2869 9.54132 20.2869 7.74227C20.2979 5.95035 21.0285 4.23549 22.3191 2.97225C23.6097 1.709 25.3554 0.999967 27.1751 1H61.6995C63.5119 1.01078 65.247 1.72459 66.5286 2.98667C67.8102 4.24875 68.535 5.95745 68.546 7.74227C68.546 9.53422 67.826 11.2533 66.5433 12.5242C65.2605 13.7952 63.5192 14.5147 61.6995 14.5256Z" stroke="#5B49C1" stroke-width="2" stroke-linecap="round" stroke-linejoin="round"/>
<path d="M53.4337 41.6999C51.5829 41.6973 49.7647 42.1795 48.1655 43.097C46.5662 44.0145 45.2435 45.3343 44.3329 46.9211C43.4257 45.3314 42.1037 44.0093 40.5037 43.0914C38.9038 42.1735 37.0838 41.693 35.2322 41.6999C32.4409 41.9107 29.8451 43.1916 28.0027 45.2672C26.1604 47.3429 25.2187 50.0477 25.38 52.7999C25.38 60.5288 33.9798 67.1065 44.3329 74.5887C54.6861 67.1065 63.2859 60.5288 63.2859 52.7999C63.4472 50.0477 62.5055 47.3429 60.6631 45.2672C58.8208 43.1916 56.225 41.9107 53.4337 41.6999Z" fill="white" stroke="#86EFB0" stroke-width="2" stroke-linecap="round" stroke-linejoin="round"/>
<path d="M6.302 18.39V34.9166" stroke="#86EFB0" stroke-width="2" stroke-linecap="round" stroke-linejoin="round"/>
</svg>
