<svg width="105" height="105" viewBox="0 0 105 105" fill="none" xmlns="http://www.w3.org/2000/svg">
<path fill-rule="evenodd" clip-rule="evenodd" d="M71 39C71 43.7739 69.1036 48.3523 65.7279 51.7279C62.3523 55.1036 57.7739 57 53 57C48.2261 57 43.6477 55.1036 40.2721 51.7279C36.8964 48.3523 35 43.7739 35 39C35 34.2261 36.8964 29.6477 40.2721 26.2721C43.6477 22.8964 48.2261 21 53 21C57.7739 21 62.3523 22.8964 65.7279 26.2721C69.1036 29.6477 71 34.2261 71 39ZM62 39C62 41.3869 61.0518 43.6761 59.364 45.364C57.6761 47.0518 55.3869 48 53 48C50.6131 48 48.3239 47.0518 46.636 45.364C44.9482 43.6761 44 41.3869 44 39C44 36.6131 44.9482 34.3239 46.636 32.636C48.3239 30.9482 50.6131 30 53 30C55.3869 30 57.6761 30.9482 59.364 32.636C61.0518 34.3239 62 36.6131 62 39Z" fill="#86EFB0" stroke="white" stroke-width="6"/>
<path fill-rule="evenodd" clip-rule="evenodd" d="M52.5 3C25.1625 3 3 25.1625 3 52.5C3 79.8375 25.1625 102 52.5 102C79.8375 102 102 79.8375 102 52.5C102 25.1625 79.8375 3 52.5 3ZM12 52.5C12 61.905 15.2085 70.563 20.586 77.439C24.3635 72.4806 29.2357 68.4621 34.8224 65.6973C40.4091 62.9324 46.5591 61.496 52.7925 61.5C58.9457 61.4928 65.0193 62.8909 70.5501 65.5877C76.0809 68.2844 80.9228 72.2086 84.7065 77.061C88.6055 71.9472 91.2308 65.9785 92.365 59.6487C93.4993 53.3188 93.1099 46.8099 91.2292 40.6604C89.3485 34.511 86.0305 28.8977 81.5497 24.2852C77.0689 19.6726 71.5541 16.1934 65.4617 14.1353C59.3693 12.0772 52.8744 11.4995 46.5144 12.4499C40.1543 13.4003 34.1121 15.8515 28.8875 19.6007C23.6629 23.35 19.4061 28.2894 16.4695 34.0104C13.5329 39.7313 12.0008 46.0694 12 52.5ZM52.5 93C43.2026 93.0151 34.1856 89.8165 26.976 83.946C29.8776 79.7908 33.7404 76.3982 38.2353 74.0571C42.7303 71.716 47.7244 70.4956 52.7925 70.5C57.7973 70.4956 62.7309 71.6855 67.1834 73.9709C71.636 76.2563 75.4789 79.5711 78.393 83.64C71.1276 89.7015 61.9619 93.0148 52.5 93Z" fill="#6147C6" stroke="white" stroke-width="6"/>
<path d="M55.5 30.5C57.5 31 61.5 33.1 61.5 37.5" stroke="#86EFB0" stroke-linecap="round"/>
</svg>
