<svg width="96" height="99" viewBox="0 0 96 99" fill="none" xmlns="http://www.w3.org/2000/svg">
<mask id="path-1-inside-1_130_1028" fill="white">
<path fill-rule="evenodd" clip-rule="evenodd" d="M11.9567 0.565254C11.5414 1.0728 11.494 1.42204 11.494 3.98639V6.84248L6.25499 6.90726C1.14405 6.97033 1.00344 6.98384 0.50797 7.4605L0 7.94917V52.9859V98.0227C0 98.5624 0.437574 99 0.977348 99H1.01683H47.8987H94.7808C95.3757 99 95.8581 98.5177 95.8581 97.9227V97.7961V53.0912C95.8581 20.1346 95.7913 8.24564 95.6041 7.85071C95.1974 6.99264 94.3563 6.86457 89.1293 6.86457H84.2524V3.89865C84.2524 1.07581 84.2274 0.910414 83.736 0.466362C83.0785 -0.127209 81.9483 -0.145014 81.351 0.429036C80.9471 0.817313 80.9047 1.14402 80.9047 3.86132V6.86457H71.0845H61.2644V4.32232C61.2644 0.774409 60.9099 0 59.2865 0C58.8307 0 58.4716 0.179551 58.1561 0.565254C57.7405 1.07302 57.6934 1.42182 57.6934 3.99754V6.86457H47.8732H38.0531V3.89865C38.0531 1.07581 38.0281 0.910414 37.5366 0.466362C36.8791 -0.127209 35.7489 -0.145014 35.1517 0.429036C34.7477 0.817313 34.7053 1.14402 34.7053 3.86132V6.86457H24.8852H15.065V4.32232C15.065 0.774409 14.7106 0 13.0871 0C12.6314 0 12.2723 0.179551 11.9567 0.565254ZM3.45937 16.7324V23.1679L38.7784 23.1894C58.204 23.2012 74.3394 23.2758 74.6354 23.3552C75.9772 23.716 76.3247 25.2301 75.2802 26.1652C74.7965 26.5985 74.6483 26.6002 39.1268 26.6002H3.45937V61.1376V95.675H47.8732H92.2871V61.1376V26.6002H86.5858H80.8844L80.3367 26.0736C79.6428 25.4069 79.6396 24.6457 80.3271 23.8771L80.8654 23.2752L86.5762 23.2083L92.2871 23.1411V16.7191V10.2969H88.2698H84.2524V12.6662C84.2524 14.8959 84.2201 15.0669 83.7045 15.5622C83.037 16.204 82.2732 16.2343 81.4999 15.6497C80.9442 15.2295 80.9163 15.107 80.856 12.8074L80.7931 10.4041L71.0501 10.3483L61.3072 10.2924L61.23 13.3171C61.1566 16.1931 61.1269 16.3619 60.6258 16.7515C59.846 17.3581 58.7216 17.2876 58.1561 16.5962C57.7405 16.0884 57.6934 15.7396 57.6934 13.1639V10.2969H47.8732H38.0531V13.2596C38.0531 15.9449 38.0105 16.2665 37.598 16.6918C37.0688 17.238 35.9092 17.3197 35.2501 16.8577C34.8662 16.5882 34.8042 16.2034 34.7053 13.479L34.5937 10.4041L24.8508 10.3483L15.1079 10.2924L15.0306 13.2757C14.9641 15.8436 14.8943 16.3218 14.5282 16.7103C13.8902 17.3873 12.5557 17.3283 11.9567 16.5962C11.5411 16.0884 11.494 15.7396 11.494 13.1639V10.2969H7.47671H3.45937V16.7324ZM44.0791 33.0072C31.0815 35.7468 24.3495 48.8474 30.1195 60.1723C32.3353 64.521 36.1286 67.8473 40.8987 69.6246L42.5168 70.2274V71.7732V73.3188L39.9548 73.3971C36.237 73.5103 36.3792 73.3029 36.3792 78.6208C36.3792 83.9387 36.237 83.7313 39.9548 83.8445L42.5168 83.9228V86.269C42.5168 88.4743 42.5498 88.6472 43.0647 89.1418C43.6086 89.6648 43.6432 89.6685 47.9357 89.6685C53.4279 89.6685 53.2297 89.7948 53.2297 86.2945V83.9134L55.8162 83.8413C58.3324 83.7712 58.4172 83.7529 58.9408 83.1673C59.4673 82.5784 59.4789 82.4802 59.4789 78.6208C59.4789 74.7614 59.4673 74.6632 58.9408 74.0743C58.4172 73.4887 58.3324 73.4704 55.8162 73.4003L53.2297 73.3282V71.7779V70.2274L54.8478 69.6276C56.8381 68.8894 58.4665 68.0176 59.9277 66.9075C60.8769 66.1863 61.0412 65.9527 61.0412 65.3241C61.0412 64.4041 60.3281 63.7118 59.3802 63.7118C58.9481 63.7118 58.2857 63.998 57.5811 64.489C56.1849 65.4623 53.7709 66.5555 51.9366 67.0454C49.8946 67.5905 49.8819 67.622 49.8819 72.1102V75.9082L50.47 76.3527C50.9829 76.7405 51.3677 76.7974 53.483 76.7974H55.9079V78.6208V80.4442H53.483C51.377 80.4442 50.9815 80.5019 50.4769 80.8835C49.9178 81.3064 49.8935 81.4175 49.833 83.8332L49.7703 86.3434H47.8732H45.9762L45.9134 83.8332C45.853 81.4175 45.8286 81.3064 45.2696 80.8835C44.7649 80.5019 44.3695 80.4442 42.2635 80.4442H39.8386V78.6208V76.7974H42.2635C44.3788 76.7974 44.7636 76.7405 45.2765 76.3527L45.8646 75.9082V71.9883C45.8646 67.4669 45.9005 67.551 43.7423 67.0092C39.8716 66.0378 36.3468 63.5704 34.1351 60.284C32.3431 57.6214 31.5517 54.9839 31.5517 51.6746C31.5517 49.0287 32.0063 47.209 33.3077 44.6461C34.1306 43.0256 34.6805 42.2913 36.1355 40.8699C39.3563 37.7232 42.6797 36.2782 47.126 36.0913C50.3167 35.9571 52.3834 36.3681 55.2384 37.7047C57.0345 38.5456 57.6671 38.9942 59.3762 40.6396C61.6674 42.8452 62.9063 44.8578 63.748 47.7425C64.6565 50.8566 64.3332 55.0161 62.9481 58.0262C61.985 60.1193 62.3669 61.4235 63.9426 61.4235C64.817 61.4235 65.3801 60.9018 66.0713 59.4506C68.0813 55.2308 68.2581 49.7235 66.5306 45.1489C64.9779 41.0375 61.5831 37.2392 57.4637 35.0048C53.6651 32.9444 48.2277 32.1326 44.0791 33.0072ZM44.9272 40.0181C40.4666 41.0576 36.851 44.5015 35.7137 48.7942C35.2787 50.4355 35.2802 53.1897 35.7166 54.8003C37.484 61.3221 45.0238 65.3481 51.629 63.2971C55.4914 62.0976 58.4069 59.3592 59.7398 55.679C60.2567 54.2522 60.3651 53.5962 60.3631 51.9133C60.3602 49.4198 60.1315 48.4102 59.1001 46.3359C57.6186 43.3558 54.3896 40.8667 50.8952 40.0114C49.2757 39.615 46.6437 39.618 44.9272 40.0181ZM46.0978 43.1378C41.4477 44.0141 38.0718 48.7061 38.9175 53.1172C39.7968 57.7051 43.8287 60.7482 48.61 60.4333C51.5288 60.2409 54.2554 58.6044 55.755 56.1447C58.9292 50.939 55.6925 44.2587 49.4445 43.1198C48.0864 42.8723 47.4911 42.8755 46.0978 43.1378Z"/>
</mask>
<path fill-rule="evenodd" clip-rule="evenodd" d="M11.9567 0.565254C11.5414 1.0728 11.494 1.42204 11.494 3.98639V6.84248L6.25499 6.90726C1.14405 6.97033 1.00344 6.98384 0.50797 7.4605L0 7.94917V52.9859V98.0227C0 98.5624 0.437574 99 0.977348 99H1.01683H47.8987H94.7808C95.3757 99 95.8581 98.5177 95.8581 97.9227V97.7961V53.0912C95.8581 20.1346 95.7913 8.24564 95.6041 7.85071C95.1974 6.99264 94.3563 6.86457 89.1293 6.86457H84.2524V3.89865C84.2524 1.07581 84.2274 0.910414 83.736 0.466362C83.0785 -0.127209 81.9483 -0.145014 81.351 0.429036C80.9471 0.817313 80.9047 1.14402 80.9047 3.86132V6.86457H71.0845H61.2644V4.32232C61.2644 0.774409 60.9099 0 59.2865 0C58.8307 0 58.4716 0.179551 58.1561 0.565254C57.7405 1.07302 57.6934 1.42182 57.6934 3.99754V6.86457H47.8732H38.0531V3.89865C38.0531 1.07581 38.0281 0.910414 37.5366 0.466362C36.8791 -0.127209 35.7489 -0.145014 35.1517 0.429036C34.7477 0.817313 34.7053 1.14402 34.7053 3.86132V6.86457H24.8852H15.065V4.32232C15.065 0.774409 14.7106 0 13.0871 0C12.6314 0 12.2723 0.179551 11.9567 0.565254ZM3.45937 16.7324V23.1679L38.7784 23.1894C58.204 23.2012 74.3394 23.2758 74.6354 23.3552C75.9772 23.716 76.3247 25.2301 75.2802 26.1652C74.7965 26.5985 74.6483 26.6002 39.1268 26.6002H3.45937V61.1376V95.675H47.8732H92.2871V61.1376V26.6002H86.5858H80.8844L80.3367 26.0736C79.6428 25.4069 79.6396 24.6457 80.3271 23.8771L80.8654 23.2752L86.5762 23.2083L92.2871 23.1411V16.7191V10.2969H88.2698H84.2524V12.6662C84.2524 14.8959 84.2201 15.0669 83.7045 15.5622C83.037 16.204 82.2732 16.2343 81.4999 15.6497C80.9442 15.2295 80.9163 15.107 80.856 12.8074L80.7931 10.4041L71.0501 10.3483L61.3072 10.2924L61.23 13.3171C61.1566 16.1931 61.1269 16.3619 60.6258 16.7515C59.846 17.3581 58.7216 17.2876 58.1561 16.5962C57.7405 16.0884 57.6934 15.7396 57.6934 13.1639V10.2969H47.8732H38.0531V13.2596C38.0531 15.9449 38.0105 16.2665 37.598 16.6918C37.0688 17.238 35.9092 17.3197 35.2501 16.8577C34.8662 16.5882 34.8042 16.2034 34.7053 13.479L34.5937 10.4041L24.8508 10.3483L15.1079 10.2924L15.0306 13.2757C14.9641 15.8436 14.8943 16.3218 14.5282 16.7103C13.8902 17.3873 12.5557 17.3283 11.9567 16.5962C11.5411 16.0884 11.494 15.7396 11.494 13.1639V10.2969H7.47671H3.45937V16.7324ZM44.0791 33.0072C31.0815 35.7468 24.3495 48.8474 30.1195 60.1723C32.3353 64.521 36.1286 67.8473 40.8987 69.6246L42.5168 70.2274V71.7732V73.3188L39.9548 73.3971C36.237 73.5103 36.3792 73.3029 36.3792 78.6208C36.3792 83.9387 36.237 83.7313 39.9548 83.8445L42.5168 83.9228V86.269C42.5168 88.4743 42.5498 88.6472 43.0647 89.1418C43.6086 89.6648 43.6432 89.6685 47.9357 89.6685C53.4279 89.6685 53.2297 89.7948 53.2297 86.2945V83.9134L55.8162 83.8413C58.3324 83.7712 58.4172 83.7529 58.9408 83.1673C59.4673 82.5784 59.4789 82.4802 59.4789 78.6208C59.4789 74.7614 59.4673 74.6632 58.9408 74.0743C58.4172 73.4887 58.3324 73.4704 55.8162 73.4003L53.2297 73.3282V71.7779V70.2274L54.8478 69.6276C56.8381 68.8894 58.4665 68.0176 59.9277 66.9075C60.8769 66.1863 61.0412 65.9527 61.0412 65.3241C61.0412 64.4041 60.3281 63.7118 59.3802 63.7118C58.9481 63.7118 58.2857 63.998 57.5811 64.489C56.1849 65.4623 53.7709 66.5555 51.9366 67.0454C49.8946 67.5905 49.8819 67.622 49.8819 72.1102V75.9082L50.47 76.3527C50.9829 76.7405 51.3677 76.7974 53.483 76.7974H55.9079V78.6208V80.4442H53.483C51.377 80.4442 50.9815 80.5019 50.4769 80.8835C49.9178 81.3064 49.8935 81.4175 49.833 83.8332L49.7703 86.3434H47.8732H45.9762L45.9134 83.8332C45.853 81.4175 45.8286 81.3064 45.2696 80.8835C44.7649 80.5019 44.3695 80.4442 42.2635 80.4442H39.8386V78.6208V76.7974H42.2635C44.3788 76.7974 44.7636 76.7405 45.2765 76.3527L45.8646 75.9082V71.9883C45.8646 67.4669 45.9005 67.551 43.7423 67.0092C39.8716 66.0378 36.3468 63.5704 34.1351 60.284C32.3431 57.6214 31.5517 54.9839 31.5517 51.6746C31.5517 49.0287 32.0063 47.209 33.3077 44.6461C34.1306 43.0256 34.6805 42.2913 36.1355 40.8699C39.3563 37.7232 42.6797 36.2782 47.126 36.0913C50.3167 35.9571 52.3834 36.3681 55.2384 37.7047C57.0345 38.5456 57.6671 38.9942 59.3762 40.6396C61.6674 42.8452 62.9063 44.8578 63.748 47.7425C64.6565 50.8566 64.3332 55.0161 62.9481 58.0262C61.985 60.1193 62.3669 61.4235 63.9426 61.4235C64.817 61.4235 65.3801 60.9018 66.0713 59.4506C68.0813 55.2308 68.2581 49.7235 66.5306 45.1489C64.9779 41.0375 61.5831 37.2392 57.4637 35.0048C53.6651 32.9444 48.2277 32.1326 44.0791 33.0072ZM44.9272 40.0181C40.4666 41.0576 36.851 44.5015 35.7137 48.7942C35.2787 50.4355 35.2802 53.1897 35.7166 54.8003C37.484 61.3221 45.0238 65.3481 51.629 63.2971C55.4914 62.0976 58.4069 59.3592 59.7398 55.679C60.2567 54.2522 60.3651 53.5962 60.3631 51.9133C60.3602 49.4198 60.1315 48.4102 59.1001 46.3359C57.6186 43.3558 54.3896 40.8667 50.8952 40.0114C49.2757 39.615 46.6437 39.618 44.9272 40.0181ZM46.0978 43.1378C41.4477 44.0141 38.0718 48.7061 38.9175 53.1172C39.7968 57.7051 43.8287 60.7482 48.61 60.4333C51.5288 60.2409 54.2554 58.6044 55.755 56.1447C58.9292 50.939 55.6925 44.2587 49.4445 43.1198C48.0864 42.8723 47.4911 42.8755 46.0978 43.1378Z" fill="#6147C6" stroke="#F8F8F8" stroke-width="1.2" mask="url(#path-1-inside-1_130_1028)"/>
<path d="M74.826 23.3107C75.7068 23.3107 76.4207 24.0247 76.4208 24.9054C76.4208 25.7862 75.7069 26.5002 74.826 26.5002H3.02429V23.3107H74.826Z" fill="#86EFB0" stroke="white" stroke-width="0.5"/>
<path d="M81.3949 23.3107C80.5141 23.3107 79.8002 24.0247 79.8002 24.9054C79.8002 25.7862 80.5141 26.5002 81.3949 26.5002H92.7357V23.3107H81.3949Z" fill="#86EFB0" stroke="white" stroke-width="0.5"/>
</svg>
