<svg width="83" height="106" viewBox="0 0 83 106" fill="none" xmlns="http://www.w3.org/2000/svg">
<path d="M24.6667 13.3334H13.3333C10.3275 13.3334 7.44487 14.5274 5.31946 16.6528C3.19404 18.7782 2 21.6609 2 24.6667V92.6667C2 95.6725 3.19404 98.5552 5.31946 100.681C7.44487 102.806 10.3275 104 13.3333 104H70C73.0058 104 75.8884 102.806 78.0139 100.681C80.1393 98.5552 81.3333 95.6725 81.3333 92.6667V24.6667C81.3333 21.6609 80.1393 18.7782 78.0139 16.6528C75.8884 14.5274 73.0058 13.3334 70 13.3334H58.6667" stroke="#6147C6" stroke-width="3" stroke-linecap="round" stroke-linejoin="round"/>
<path d="M24.6667 64.3333H24.7234M24.6667 81.3333H24.7234M41.6667 75.6667L47.3334 81.3333L64.3334 64.3333M24.6667 13.3333C24.6667 10.3275 25.8608 7.44487 27.9862 5.31946C30.1116 3.19404 32.9943 2 36.0001 2H47.3334C50.3392 2 53.2219 3.19404 55.3473 5.31946C57.4727 7.44487 58.6667 10.3275 58.6667 13.3333C58.6667 16.3391 57.4727 19.2218 55.3473 21.3472C53.2219 23.4726 50.3392 24.6667 47.3334 24.6667H36.0001C32.9943 24.6667 30.1116 23.4726 27.9862 21.3472C25.8608 19.2218 24.6667 16.3391 24.6667 13.3333Z" stroke="#86EFB0" stroke-width="3" stroke-linecap="round" stroke-linejoin="round"/>
</svg>
