<svg width="82" height="82" viewBox="0 0 82 82" fill="none" xmlns="http://www.w3.org/2000/svg">
<path d="M35.8988 13.75C39.4081 13.75 42.2555 11.118 42.2555 7.875C42.2555 4.632 39.4042 2 35.8988 2H14.7096C11.2002 2 8.35675 4.632 8.35675 7.875C8.35675 11.118 11.2002 13.75 14.7135 13.75M37.9119 13.4484C41.6562 20.3653 44.7269 26.6084 46.6069 33.3333C46.761 33.8817 46.9059 34.4339 47.0417 34.9901M35.0097 80.3333H18.9513C4.92575 80.3333 2 77.6308 2 64.6667V48.1266C2 34.8099 6.3005 25.0535 12.5946 13.4171" stroke="#5E45BF" stroke-width="3" stroke-linecap="round" stroke-linejoin="round"/>
<path d="M60.5833 45.6469C60.5833 45.6469 57.0192 43.8453 53.4628 43.8453C48.1205 43.8453 41 51.0715 41 61.9207C41 72.7659 50.7525 79.9961 60.5833 79.9961C70.4142 79.9961 80.1667 72.7659 80.1667 61.9207C80.1667 51.0754 73.0462 43.8413 67.7038 43.8413C64.1436 43.8413 60.5833 45.6508 60.5833 45.6508C60.5833 40.2302 64.1475 33 71.2641 33" stroke="#86EFB0" stroke-width="3" stroke-linecap="round" stroke-linejoin="round"/>
</svg>
