<svg width="97" height="81" viewBox="0 0 97 81" fill="none" xmlns="http://www.w3.org/2000/svg">
<path d="M71.4284 1.00038C66.7749 0.979217 62.1994 2.12358 58.1723 4.31587C54.1453 6.50815 50.8121 9.66921 48.5154 13.474C46.2136 9.66693 42.875 6.5048 38.8427 4.31256C34.8103 2.12032 30.2297 0.977084 25.5716 1.00038C9.29292 1.00038 1 15.8706 1 27.6223C1 46.2173 22.5002 62.0403 48.6382 80C74.4998 62.0403 96 46.2173 96 27.6512C96 15.8706 87.6457 1.00038 71.4284 1.00038Z" fill="white" stroke="#5B49C1" stroke-width="2" stroke-linecap="round" stroke-linejoin="round"/>
<path d="M64.9478 35.5916H53.6448V24.9948H43.2326V35.5916H31.9297V45.4087H43.2326V56.0056H53.6448V45.4087H64.9478V35.5916Z" fill="white" stroke="#5B49C1" stroke-width="2" stroke-linecap="round" stroke-linejoin="round"/>
<path d="M6.62085 27.6512C6.62085 21.2412 9.99944 12.5501 17.1252 8.62317L6.62085 27.6512Z" fill="white"/>
<path d="M6.62085 27.6512C6.62085 21.2412 9.99944 12.5501 17.1252 8.62317" stroke="#86EFB0" stroke-width="2" stroke-linecap="round" stroke-linejoin="round"/>
<path d="M10.3683 39.6339C9.14958 37.6379 8.18074 35.516 7.48108 33.3105L10.3683 39.6339Z" fill="white"/>
<path d="M10.3683 39.6339C9.14958 37.6379 8.18074 35.516 7.48108 33.3105" stroke="#86EFB0" stroke-width="2" stroke-linecap="round" stroke-linejoin="round"/>
</svg>
