<svg width="30" height="30" viewBox="0 0 30 30" fill="none" xmlns="http://www.w3.org/2000/svg">
<path d="M10.1874 2.9375C10.1874 2.68886 10.0886 2.4504 9.9128 2.27459C9.73698 2.09877 9.49852 2 9.24988 2C9.00124 2 8.76279 2.09877 8.58697 2.27459C8.41115 2.4504 8.31238 2.68886 8.31238 2.9375V4.9125C6.51238 5.05625 5.33238 5.40875 4.46488 6.2775C3.59613 7.145 3.24363 8.32625 3.09863 10.125H27.9011C27.7561 8.325 27.4036 7.145 26.5349 6.2775C25.6674 5.40875 24.4861 5.05625 22.6874 4.91125V2.9375C22.6874 2.68886 22.5886 2.4504 22.4128 2.27459C22.237 2.09877 21.9985 2 21.7499 2C21.5012 2 21.2628 2.09877 21.087 2.27459C20.9112 2.4504 20.8124 2.68886 20.8124 2.9375V4.82875C19.9811 4.8125 19.0486 4.8125 17.9999 4.8125H12.9999C11.9511 4.8125 11.0186 4.8125 10.1874 4.82875V2.9375Z" fill="white"/>
<path fill-rule="evenodd" clip-rule="evenodd" d="M3 14.8125C3 13.7638 3 12.8313 3.01625 12H27.9837C28 12.8313 28 13.7638 28 14.8125V17.3125C28 22.0262 28 24.3837 26.535 25.8475C25.07 27.3112 22.7137 27.3125 18 27.3125H13C8.28625 27.3125 5.92875 27.3125 4.465 25.8475C3.00125 24.3825 3 22.0262 3 17.3125V14.8125ZM21.75 17.3125C22.0815 17.3125 22.3995 17.1808 22.6339 16.9464C22.8683 16.712 23 16.394 23 16.0625C23 15.731 22.8683 15.413 22.6339 15.1786C22.3995 14.9442 22.0815 14.8125 21.75 14.8125C21.4185 14.8125 21.1005 14.9442 20.8661 15.1786C20.6317 15.413 20.5 15.731 20.5 16.0625C20.5 16.394 20.6317 16.712 20.8661 16.9464C21.1005 17.1808 21.4185 17.3125 21.75 17.3125ZM21.75 22.3125C22.0815 22.3125 22.3995 22.1808 22.6339 21.9464C22.8683 21.712 23 21.394 23 21.0625C23 20.731 22.8683 20.413 22.6339 20.1786C22.3995 19.9442 22.0815 19.8125 21.75 19.8125C21.4185 19.8125 21.1005 19.9442 20.8661 20.1786C20.6317 20.413 20.5 20.731 20.5 21.0625C20.5 21.394 20.6317 21.712 20.8661 21.9464C21.1005 22.1808 21.4185 22.3125 21.75 22.3125ZM16.75 16.0625C16.75 16.394 16.6183 16.712 16.3839 16.9464C16.1495 17.1808 15.8315 17.3125 15.5 17.3125C15.1685 17.3125 14.8505 17.1808 14.6161 16.9464C14.3817 16.712 14.25 16.394 14.25 16.0625C14.25 15.731 14.3817 15.413 14.6161 15.1786C14.8505 14.9442 15.1685 14.8125 15.5 14.8125C15.8315 14.8125 16.1495 14.9442 16.3839 15.1786C16.6183 15.413 16.75 15.731 16.75 16.0625ZM16.75 21.0625C16.75 21.394 16.6183 21.712 16.3839 21.9464C16.1495 22.1808 15.8315 22.3125 15.5 22.3125C15.1685 22.3125 14.8505 22.1808 14.6161 21.9464C14.3817 21.712 14.25 21.394 14.25 21.0625C14.25 20.731 14.3817 20.413 14.6161 20.1786C14.8505 19.9442 15.1685 19.8125 15.5 19.8125C15.8315 19.8125 16.1495 19.9442 16.3839 20.1786C16.6183 20.413 16.75 20.731 16.75 21.0625ZM9.25 17.3125C9.58152 17.3125 9.89946 17.1808 10.1339 16.9464C10.3683 16.712 10.5 16.394 10.5 16.0625C10.5 15.731 10.3683 15.413 10.1339 15.1786C9.89946 14.9442 9.58152 14.8125 9.25 14.8125C8.91848 14.8125 8.60054 14.9442 8.36612 15.1786C8.1317 15.413 8 15.731 8 16.0625C8 16.394 8.1317 16.712 8.36612 16.9464C8.60054 17.1808 8.91848 17.3125 9.25 17.3125ZM9.25 22.3125C9.58152 22.3125 9.89946 22.1808 10.1339 21.9464C10.3683 21.712 10.5 21.394 10.5 21.0625C10.5 20.731 10.3683 20.413 10.1339 20.1786C9.89946 19.9442 9.58152 19.8125 9.25 19.8125C8.91848 19.8125 8.60054 19.9442 8.36612 20.1786C8.1317 20.413 8 20.731 8 21.0625C8 21.394 8.1317 21.712 8.36612 21.9464C8.60054 22.1808 8.91848 22.3125 9.25 22.3125Z" fill="white"/>
</svg>
