<svg width="29" height="29" viewBox="0 0 29 29" fill="none" xmlns="http://www.w3.org/2000/svg">
<path d="M14.5 26.5833C12.8486 26.5833 11.2878 26.2659 9.81771 25.6311C8.34757 24.9963 7.06392 24.1304 5.96675 23.0332C4.86958 21.936 4.00361 20.6524 3.36883 19.1822C2.73406 17.7121 2.41667 16.1513 2.41667 14.5C2.41667 12.8284 2.73406 11.2628 3.36883 9.80317C4.00361 8.3435 4.86958 7.06468 5.96675 5.96671C7.06392 4.86874 8.34757 4.00276 9.81771 3.36879C11.2878 2.73482 12.8486 2.41743 14.5 2.41663C16.1715 2.41663 17.7375 2.73401 19.198 3.36879C20.6585 4.00357 21.9369 4.86954 23.0332 5.96671C24.1296 7.06388 24.9956 8.34269 25.6312 9.80317C26.2667 11.2636 26.5841 12.8292 26.5833 14.5C26.5833 16.1513 26.2659 17.7121 25.6312 19.1822C24.9964 20.6524 24.1304 21.9364 23.0332 23.0344C21.9361 24.1324 20.6573 24.9984 19.1968 25.6323C17.7363 26.2663 16.1707 26.5833 14.5 26.5833ZM14.5 24.1062C15.0236 23.3812 15.4767 22.626 15.8594 21.8406C16.242 21.0552 16.5542 20.2194 16.7958 19.3333H12.2042C12.4458 20.2194 12.758 21.0552 13.1406 21.8406C13.5233 22.626 13.9764 23.3812 14.5 24.1062ZM11.3583 23.6229C10.9958 22.9583 10.6788 22.2683 10.4074 21.553C10.1359 20.8377 9.90914 20.0978 9.72708 19.3333H6.1625C6.74653 20.3402 7.47676 21.2163 8.35321 21.9614C9.22965 22.7066 10.2314 23.2604 11.3583 23.6229ZM17.6417 23.6229C18.7694 23.2604 19.7716 22.7066 20.648 21.9614C21.5244 21.2163 22.2543 20.3402 22.8375 19.3333H19.2729C19.0917 20.0986 18.8653 20.8389 18.5938 21.5542C18.3224 22.2695 18.005 22.9591 17.6417 23.6229ZM5.13542 16.9166H9.24375C9.18333 16.5138 9.13822 16.1163 9.10842 15.724C9.07861 15.3317 9.0633 14.9237 9.0625 14.5C9.06169 14.0762 9.077 13.6686 9.10842 13.2771C9.13983 12.8856 9.18494 12.4877 9.24375 12.0833H5.13542C5.03472 12.4861 4.9594 12.884 4.90946 13.2771C4.85951 13.6702 4.83414 14.0778 4.83333 14.5C4.83253 14.9221 4.8579 15.3301 4.90946 15.724C4.96101 16.1179 5.03633 16.5155 5.13542 16.9166ZM11.6604 16.9166H17.3396C17.4 16.5138 17.4455 16.1163 17.4761 15.724C17.5067 15.3317 17.5216 14.9237 17.5208 14.5C17.52 14.0762 17.5047 13.6686 17.4749 13.2771C17.4451 12.8856 17.4 12.4877 17.3396 12.0833H11.6604C11.6 12.4861 11.5549 12.884 11.5251 13.2771C11.4953 13.6702 11.48 14.0778 11.4792 14.5C11.4784 14.9221 11.4937 15.3301 11.5251 15.724C11.5565 16.1179 11.6016 16.5155 11.6604 16.9166ZM19.7562 16.9166H23.8646C23.9653 16.5138 24.041 16.1163 24.0917 15.724C24.1425 15.3317 24.1675 14.9237 24.1667 14.5C24.1659 14.0762 24.1409 13.6686 24.0917 13.2771C24.0426 12.8856 23.9669 12.4877 23.8646 12.0833H19.7562C19.8167 12.4861 19.8622 12.884 19.8928 13.2771C19.9234 13.6702 19.9383 14.0778 19.9375 14.5C19.9367 14.9221 19.9214 15.3301 19.8916 15.724C19.8618 16.1179 19.8167 16.5155 19.7562 16.9166ZM19.2729 9.66663H22.8375C22.2535 8.65968 21.5236 7.78364 20.648 7.0385C19.7724 6.29336 18.7702 5.73954 17.6417 5.37704C18.0042 6.04163 18.3216 6.73158 18.5938 7.44692C18.8661 8.16225 19.0925 8.90215 19.2729 9.66663ZM12.2042 9.66663H16.7958C16.5542 8.78051 16.242 7.94475 15.8594 7.15933C15.4767 6.37392 15.0236 5.61871 14.5 4.89371C13.9764 5.61871 13.5233 6.37392 13.1406 7.15933C12.758 7.94475 12.4458 8.78051 12.2042 9.66663ZM6.1625 9.66663H9.72708C9.90833 8.90135 10.1351 8.16104 10.4074 7.44571C10.6797 6.73038 10.9966 6.04082 11.3583 5.37704C10.2306 5.73954 9.22844 6.29336 8.352 7.0385C7.47555 7.78364 6.74572 8.65968 6.1625 9.66663Z" fill="#6147C6"/>
</svg>
