<svg width="24" height="19" viewBox="0 0 24 19" fill="none" xmlns="http://www.w3.org/2000/svg">
<path d="M16.5 12.8929C16.2613 12.8929 16.0324 13.0001 15.8636 13.191C15.6948 13.3819 15.6 13.6408 15.6 13.9107C15.6 14.1807 15.6948 14.4396 15.8636 14.6304C16.0324 14.8213 16.2613 14.9286 16.5 14.9286H19.5C19.7387 14.9286 19.9676 14.8213 20.1364 14.6304C20.3052 14.4396 20.4 14.1807 20.4 13.9107C20.4 13.6408 20.3052 13.3819 20.1364 13.191C19.9676 13.0001 19.7387 12.8929 19.5 12.8929H16.5ZM0 4.41071C0 3.24092 0.410892 2.11904 1.14228 1.29187C1.87368 0.464699 2.86566 0 3.9 0H20.1C20.6122 0 21.1193 0.114087 21.5925 0.335746C22.0656 0.557405 22.4956 0.882295 22.8577 1.29187C23.2199 1.70144 23.5071 2.18767 23.7031 2.72281C23.8991 3.25794 24 3.83149 24 4.41071V14.5893C24 15.1685 23.8991 15.7421 23.7031 16.2772C23.5071 16.8123 23.2199 17.2986 22.8577 17.7081C22.4956 18.1177 22.0656 18.4426 21.5925 18.6643C21.1193 18.8859 20.6122 19 20.1 19H3.9C2.86566 19 1.87368 18.5353 1.14228 17.7081C0.410892 16.881 0 15.7591 0 14.5893V4.41071ZM22.2 6.10714V4.41071C22.2 3.78082 21.9788 3.17673 21.5849 2.73134C21.1911 2.28594 20.657 2.03571 20.1 2.03571H3.9C3.34305 2.03571 2.8089 2.28594 2.41508 2.73134C2.02125 3.17673 1.8 3.78082 1.8 4.41071V6.10714H22.2ZM1.8 8.14286V14.5893C1.8 15.9003 2.7408 16.9643 3.9 16.9643H20.1C20.657 16.9643 21.1911 16.7141 21.5849 16.2687C21.9788 15.8233 22.2 15.2192 22.2 14.5893V8.14286H1.8Z" fill="#6147C6"/>
</svg>
