<svg width="24" height="24" viewBox="0 0 24 24" fill="none" xmlns="http://www.w3.org/2000/svg">
<path d="M14.7103 7.64541C14.5774 7.25309 14.1517 7.04279 13.7593 7.17568C13.367 7.30857 13.1567 7.73434 13.2896 8.12666C13.7207 9.39931 14.9434 10.2337 16.2924 10.2337C16.7067 10.2337 17.0424 9.89787 17.0424 9.48366C17.0424 9.06945 16.7067 8.73366 16.2924 8.73366C15.553 8.73366 14.9246 8.27803 14.7103 7.64541Z" fill="#6147C6"/>
<path fill-rule="evenodd" clip-rule="evenodd" d="M16.1643 4.27559C14.8536 0.241469 9.14637 0.241469 7.8356 4.27559C7.45022 5.46167 6.34494 6.26471 5.09782 6.26471C0.856091 6.26471 -0.907535 11.6926 2.5241 14.1858C3.53304 14.9188 3.95522 16.2182 3.56984 17.4043C2.25907 21.4384 6.8763 24.793 10.3079 22.2998C11.3169 21.5667 12.6831 21.5667 13.692 22.2998C17.1236 24.793 21.7409 21.4384 20.4301 17.4043C20.0447 16.2182 20.4669 14.9188 21.4759 14.1858C24.9075 11.6926 23.1439 6.26471 18.9021 6.26471C17.655 6.26471 16.5497 5.46167 16.1643 4.27559ZM9.26219 4.73912C10.1239 2.08696 13.876 2.08696 14.7378 4.73912C15.3239 6.54323 17.0052 7.76471 18.9021 7.76471C21.6908 7.76471 22.8502 11.3332 20.5942 12.9723C19.0595 14.0873 18.4173 16.0637 19.0035 17.8678C19.8653 20.52 16.8298 22.7254 14.5737 21.0863C13.039 19.9713 10.9609 19.9712 9.42625 21.0863C7.17019 22.7254 4.13468 20.52 4.99642 17.8678C5.58261 16.0637 4.94044 14.0873 3.40577 12.9723C1.14971 11.3332 2.30918 7.76471 5.09782 7.76471C6.99478 7.76471 8.67599 6.54323 9.26219 4.73912Z" fill="#6147C6"/>
</svg>
