<svg width="49" height="42" viewBox="0 0 49 42" fill="none" xmlns="http://www.w3.org/2000/svg">
<path d="M35.8435 1.00018C33.5413 0.989461 31.2776 1.56889 29.2853 2.6789C27.2929 3.78892 25.6439 5.38946 24.5076 7.31593C23.3689 5.38831 21.7171 3.78723 19.7222 2.67723C17.7272 1.56724 15.461 0.988382 13.1565 1.00018C5.10281 1.00018 1 8.52939 1 14.4797C1 23.8948 11.6369 31.9065 24.5684 41C37.3631 31.9065 48 23.8948 48 14.4943C48 8.52938 43.8668 1.00018 35.8435 1.00018Z" fill="white" stroke="#5B49C1" stroke-width="2" stroke-linecap="round" stroke-linejoin="round"/>
<path d="M32.638 18.5168H27.046V13.1514H21.8947V18.5168H16.3027V23.4876H21.8947V28.8531H27.046V23.4876H32.638V18.5168Z" fill="white" stroke="#5B49C1" stroke-width="2" stroke-linecap="round" stroke-linejoin="round"/>
<path d="M3.78125 14.4931C3.78125 11.2475 5.45276 6.84694 8.97814 4.85864L3.78125 14.4931Z" fill="white"/>
<path d="M3.78125 14.4931C3.78125 11.2475 5.45276 6.84694 8.97814 4.85864" stroke="#86EFB0" stroke-width="2" stroke-linecap="round" stroke-linejoin="round"/>
<path d="M5.63542 20.5584C5.0325 19.5478 4.55318 18.4734 4.20703 17.3567L5.63542 20.5584Z" fill="white"/>
<path d="M5.63542 20.5584C5.0325 19.5478 4.55318 18.4734 4.20703 17.3567" stroke="#86EFB0" stroke-width="2" stroke-linecap="round" stroke-linejoin="round"/>
</svg>
