<svg width="118" height="124" viewBox="0 0 118 124" fill="none" xmlns="http://www.w3.org/2000/svg">
<path opacity="0.4" fill-rule="evenodd" clip-rule="evenodd" d="M71.9484 0.0701356C72.3974 0.216175 72.8671 0.48852 73.185 0.787177C74.5648 2.08388 90.0799 22.269 95.6931 30.0703C104.231 41.9362 109.535 50.3225 113.376 58.0282C117.166 65.6304 119.127 71.5589 119.866 77.6537C120.044 79.1146 120.045 84.8484 119.868 86.5892C118.213 102.88 108.617 116.479 93.6845 123.695C84.703 128.035 74.6091 129.639 64.3703 128.356C63.3969 128.234 62.1399 128.045 61.5772 127.937L60.5539 127.739L59.9294 128.562C54.9033 135.18 47.2451 139.883 38.923 141.461C36.6117 141.899 35.4045 142 32.4566 142C29.5233 142 28.2848 141.898 26.0405 141.47C17.4929 139.84 9.98032 135.182 4.79757 128.298C1.19933 123.519 -0.911507 118.342 -1.79591 112.126C-2.06804 110.213 -2.06804 105.505 -1.79591 103.593C-0.943031 97.5989 1.01592 92.6545 4.39956 87.956C8.64027 82.0675 14.6204 77.7117 21.6848 75.3659C22.5915 75.0648 22.7903 74.9582 22.8531 74.7387C22.8948 74.5932 23.1125 73.6847 23.337 72.7199C25.6073 62.9598 31.8259 51.0993 43.1116 35.004C48.9245 26.7138 57.423 15.4165 65.7104 4.96289C68.8696 0.977948 69.1853 0.616139 69.7579 0.324499C70.3165 0.0400952 71.451 -0.0915822 71.9484 0.0701356ZM71.3595 6.90756C71.8974 7.49435 78.1044 15.4794 82.4187 21.1347C98.5732 42.31 107.214 55.893 111.606 67.0187C114.117 73.3764 115.017 78.4791 114.667 84.3685C114.146 93.1267 111.317 100.624 105.968 107.422C104.727 108.999 101.162 112.546 99.5358 113.823C95.6766 116.854 91.8985 118.969 87.2913 120.679C81.4197 122.858 74.4167 123.863 68.1314 123.429C66.2042 123.295 63.7367 122.998 63.616 122.884C63.5661 122.837 63.6819 122.459 63.8734 122.044C65.2814 118.993 66.2358 115.581 66.7681 111.697C66.9852 110.113 66.9496 105.294 66.7084 103.593C66.0144 98.6992 64.5536 94.4467 62.2326 90.5622C57.1273 82.0181 48.6428 76.0853 38.9131 74.2559C36.2146 73.7486 32.3358 73.5273 29.9135 73.7424C29.2146 73.8046 28.624 73.8369 28.6014 73.8143C28.4755 73.6895 29.4468 70.4053 30.2663 68.1846C34.2594 57.3638 42.5761 44.0133 58.1069 23.4919C62.2355 18.0368 70.4993 7.34733 71.0552 6.7431C71.0975 6.69706 71.2345 6.77106 71.3595 6.90756ZM98.5518 57.4666C98.856 57.6088 99.2126 57.8426 99.3443 57.9864C100.028 58.7318 103.426 65.1294 104.668 68.0068C106.472 72.1893 107.589 76.1554 107.893 79.4627C108.131 82.049 108.019 85.5865 107.617 88.179C106.079 98.0976 100.015 106.876 91.5897 111.378C90.8287 111.785 90.6226 111.847 90.0411 111.845C88.7517 111.841 87.7018 111.02 87.4404 109.812C87.1652 108.54 87.7424 107.489 89.1491 106.701C96.1143 102.799 100.916 95.8767 102.301 87.7405C102.787 84.888 102.819 80.8281 102.375 78.3115C101.597 73.9022 99.5605 68.9137 95.956 62.5902C94.7597 60.4913 94.6124 60.0395 94.8456 59.1811C95.2866 57.5576 97.0255 56.7531 98.5518 57.4666ZM35.0667 79.0338C40.3363 79.5003 45.7108 81.5471 49.9345 84.696C53.7542 87.5438 56.754 91.1664 58.769 95.3649C61.8224 101.727 62.4687 108.747 60.6172 115.443C57.8697 125.379 50.1328 133.047 40.1078 135.77C26.5662 139.449 12.1731 132.916 6.14414 120.354C3.87544 115.627 2.91837 110.49 3.36703 105.447C4.45122 93.262 12.9335 83.173 24.8053 79.9482C28.0755 79.0599 31.7068 78.7362 35.0667 79.0338ZM33.2164 86.9346C33.7068 87.0744 50.0103 96.3977 50.4049 96.764C50.5723 96.9193 50.8212 97.2715 50.958 97.5466L51.2066 98.0465V107.859C51.2066 118.749 51.2584 117.979 50.4691 118.844C50.2099 119.128 47.6527 120.645 41.8592 123.951C37.3266 126.538 33.4488 128.713 33.2421 128.783C32.7625 128.945 32.1506 128.945 31.6711 128.783C31.4643 128.713 27.5865 126.538 23.0539 123.951C17.2604 120.645 14.7032 119.128 14.444 118.844C13.6548 117.979 13.7065 118.749 13.7065 107.859V98.0465L13.9551 97.5466C14.0919 97.2715 14.3408 96.9193 14.5082 96.764C14.9419 96.3614 31.2196 87.0741 31.7445 86.9296C32.2604 86.7876 32.7064 86.7891 33.2164 86.9346ZM37.7642 95.5208C40.653 97.1746 43.0321 98.5738 43.0512 98.6303C43.0701 98.6867 40.6941 100.1 37.7711 101.772L32.4566 104.81L27.1468 101.774C24.2265 100.105 21.8371 98.6985 21.8371 98.6496C21.8371 98.5727 32.3428 92.5061 32.466 92.5118C32.4912 92.5131 34.8755 93.8671 37.7642 95.5208ZM45.8673 109.346C45.8836 112.701 45.872 115.483 45.8415 115.529C45.8111 115.574 43.3969 116.977 40.4765 118.645L35.1668 121.679L35.1382 115.57C35.1224 112.211 35.1473 109.425 35.1935 109.379C35.2396 109.334 37.4427 108.057 40.0893 106.541C42.7359 105.025 45.112 103.664 45.3695 103.516L45.8379 103.247L45.8673 109.346ZM22.6114 105.274C24.5279 106.371 26.9173 107.739 27.9212 108.314L29.7464 109.361L29.7749 115.526L29.8036 121.692L29.0459 121.272C26.0485 119.61 19.0721 115.568 19.047 115.479C19.0301 115.419 19.0412 112.649 19.0716 109.325L19.1269 103.28L22.6114 105.274Z" fill="#6147C6"/>
</svg>
