<svg width="28" height="28" viewBox="0 0 28 28" fill="none" xmlns="http://www.w3.org/2000/svg">
<path fill-rule="evenodd" clip-rule="evenodd" d="M8.85736 13.1623C7.66764 11.9726 6.99927 10.359 6.99927 8.67645C6.99927 6.99393 7.66764 5.38033 8.85736 4.19061C10.0471 3.0009 11.6607 2.33252 13.3432 2.33252C15.0257 2.33252 16.6393 3.0009 17.829 4.19061L20.0714 6.43411L19.9594 7.01161L19.9582 7.02211L19.943 7.08511C19.9188 7.18084 19.8916 7.27578 19.8614 7.36978C19.7388 7.74891 19.5887 8.11856 19.4122 8.47578C18.9595 9.41611 18.1569 10.7193 16.7709 12.1041C15.3849 13.4913 14.0829 14.2928 13.1425 14.7466C12.6724 14.9729 12.2909 15.1118 12.0365 15.1934C11.9219 15.2306 11.806 15.2633 11.6889 15.2914L11.6784 15.2938L11.1009 15.4046L8.85736 13.1623ZM15.785 5.21495C15.7049 5.12898 15.6083 5.06002 15.501 5.0122C15.3937 4.96438 15.2778 4.93866 15.1603 4.93659C15.0428 4.93452 14.9261 4.95613 14.8172 5.00014C14.7082 5.04414 14.6092 5.10965 14.5261 5.19273C14.4431 5.27582 14.3776 5.3748 14.3336 5.48375C14.2895 5.5927 14.2679 5.7094 14.27 5.82689C14.2721 5.94438 14.2978 6.06024 14.3456 6.16757C14.3934 6.27491 14.4624 6.37151 14.5484 6.45161L16.2984 8.20161C16.3785 8.28758 16.4751 8.35653 16.5824 8.40436C16.6897 8.45218 16.8056 8.4779 16.9231 8.47997C17.0406 8.48204 17.1573 8.46043 17.2662 8.41642C17.3752 8.37241 17.4741 8.30691 17.5572 8.22382C17.6403 8.14074 17.7058 8.04176 17.7498 7.93281C17.7938 7.82386 17.8155 7.70716 17.8134 7.58967C17.8113 7.47218 17.7856 7.35632 17.7378 7.24898C17.6899 7.14165 17.621 7.04505 17.535 6.96495L15.785 5.21495Z" fill="#6147C6"/>
<path d="M21.5274 7.90289L21.5309 7.89355L23.8094 10.1709C24.3985 10.76 24.8658 11.4593 25.1846 12.229C25.5034 12.9987 25.6675 13.8236 25.6675 14.6567C25.6675 15.4898 25.5034 16.3148 25.1846 17.0844C24.8658 17.8541 24.3985 18.5535 23.8094 19.1426C23.2203 19.7316 22.5209 20.1989 21.7513 20.5177C20.9816 20.8366 20.1566 21.0006 19.3235 21.0006C18.4904 21.0006 17.6655 20.8366 16.8958 20.5177C16.1261 20.1989 15.4268 19.7316 14.8377 19.1426L12.5604 16.8641L12.5685 16.8606C13.0248 16.712 13.4704 16.5323 13.902 16.3227C15.0022 15.7919 16.471 14.8807 18.0087 13.3431C19.5464 11.8042 20.4587 10.3366 20.9884 9.23639C21.2532 8.68689 21.4235 8.22956 21.5274 7.90289ZM6.16704 12.4226C5.1816 12.9233 4.32874 13.6502 3.67828 14.5439C3.02781 15.4376 2.59823 16.4726 2.4247 17.5642C2.25116 18.6559 2.33861 19.7731 2.67988 20.8244C3.02115 21.8758 3.60655 22.8314 4.38814 23.613C5.16974 24.3945 6.12532 24.9799 7.17666 25.3212C8.228 25.6625 9.34522 25.7499 10.4369 25.5764C11.5285 25.4029 12.5635 24.9733 13.4572 24.3228C14.3509 23.6723 15.0778 22.8195 15.5785 21.8341C14.8498 21.4515 14.1831 20.961 13.601 20.3792L7.62071 14.3989C7.0394 13.8171 6.54931 13.1508 6.16704 12.4226Z" fill="#6147C6"/>
</svg>
