<svg width="21" height="22" viewBox="0 0 21 22" fill="none" xmlns="http://www.w3.org/2000/svg">
<path d="M11.1075 4.88605H9.89632C9.78553 4.88605 9.69488 4.97814 9.69488 5.0907V12.1333C9.69488 12.1998 9.72509 12.2612 9.77797 12.2995L13.9402 15.3872C14.0309 15.4537 14.1568 15.4358 14.2223 15.3437L14.9424 14.346C15.0104 14.2514 14.9902 14.1235 14.8996 14.0595L11.3089 11.4221V5.0907C11.3089 4.97814 11.2183 4.88605 11.1075 4.88605ZM16.6421 6.80977L20.5903 7.78954C20.7162 7.82023 20.8396 7.72302 20.8396 7.59256L20.8597 3.46117C20.8597 3.28977 20.6658 3.19256 20.5349 3.3L16.5665 6.44907C16.5365 6.47264 16.5137 6.50434 16.5006 6.54051C16.4876 6.57667 16.4848 6.61585 16.4927 6.65353C16.5006 6.69121 16.5188 6.72586 16.5452 6.7535C16.5717 6.78114 16.6052 6.80064 16.6421 6.80977ZM20.8647 14.5123L19.437 14.0135C19.3873 13.9962 19.3328 13.9993 19.2853 14.0222C19.2377 14.0452 19.2009 14.0861 19.1827 14.1363C19.1349 14.2667 19.0845 14.3947 19.0316 14.5226C18.5834 15.5995 17.9413 16.5691 17.1205 17.4005C16.3087 18.2277 15.3467 18.8871 14.2877 19.3421C13.1907 19.8133 12.0115 20.0552 10.8204 20.0533C9.61682 20.0533 8.45098 19.8153 7.35313 19.3421C6.29416 18.8871 5.33213 18.2277 4.52038 17.4005C3.70203 16.5691 3.05994 15.5995 2.60921 14.5226C2.14793 13.4074 1.91161 12.2096 1.91424 11C1.91424 9.77721 2.14842 8.59023 2.61425 7.47489C3.06245 6.39791 3.70455 5.42837 4.52541 4.59698C5.33717 3.76973 6.2992 3.11033 7.35817 2.65535C8.45098 2.1821 9.61934 1.94419 10.8229 1.94419C12.0266 1.94419 13.1924 2.1821 14.2902 2.65535C15.3492 3.11033 16.3112 3.76973 17.123 4.59698C17.3798 4.86047 17.6216 5.13419 17.8431 5.42326L19.3489 4.22605C17.3672 1.65256 14.2827 -0.00255518 10.8179 2.96115e-06C4.78477 0.0025611 -0.0598728 4.9807 0.00055928 11.1126C0.0609914 17.137 4.88297 22 10.8229 22C15.4938 22 19.4723 18.9916 20.9881 14.7784C21.0259 14.6709 20.9705 14.5507 20.8647 14.5123Z" fill="#6147C6"/>
</svg>
