<svg width="36" height="36" viewBox="0 0 36 36" fill="none" xmlns="http://www.w3.org/2000/svg">
<path opacity="0.65" fill-rule="evenodd" clip-rule="evenodd" d="M32.4375 18C32.4375 10.0256 25.9744 3.5625 18 3.5625C10.0256 3.5625 3.5625 10.0256 3.5625 18C3.5625 25.9744 10.0256 32.4375 18 32.4375C25.9744 32.4375 32.4375 25.9744 32.4375 18ZM35.0625 18C35.0625 27.4241 27.4241 35.0625 18 35.0625C8.57588 35.0625 0.9375 27.4241 0.9375 18C0.9375 8.57588 8.57588 0.9375 18 0.9375C27.4241 0.9375 35.0625 8.57588 35.0625 18ZM18.3641 12.7387C18.8768 12.2262 19.7078 12.2264 20.2203 12.739C20.7327 13.2517 20.7325 14.0827 20.2199 14.5952L16.8137 18L20.2199 21.4048C20.7325 21.9172 20.7327 22.7483 20.2203 23.2609C19.7078 23.7736 18.8768 23.7738 18.3641 23.2613L14.0293 18.9282C13.783 18.6821 13.6447 18.3482 13.6447 18C13.6447 17.6518 13.783 17.3179 14.0293 17.0717L18.3641 12.7387Z" fill="white"/>
</svg>
