<svg width="30" height="30" viewBox="0 0 30 30" fill="none" xmlns="http://www.w3.org/2000/svg">
<path d="M11.6874 3.125C11.6874 2.87636 11.5886 2.6379 11.4128 2.46209C11.237 2.28627 10.9985 2.1875 10.7499 2.1875C10.5012 2.1875 10.2628 2.28627 10.087 2.46209C9.91115 2.6379 9.81238 2.87636 9.81238 3.125V5.1C8.01238 5.24375 6.83238 5.59625 5.96488 6.465C5.09613 7.3325 4.74363 8.51375 4.59863 10.3125H29.4011C29.2561 8.5125 28.9036 7.3325 28.0349 6.465C27.1674 5.59625 25.9861 5.24375 24.1874 5.09875V3.125C24.1874 2.87636 24.0886 2.6379 23.9128 2.46209C23.737 2.28627 23.4985 2.1875 23.2499 2.1875C23.0012 2.1875 22.7628 2.28627 22.587 2.46209C22.4112 2.6379 22.3124 2.87636 22.3124 3.125V5.01625C21.4811 5 20.5486 5 19.4999 5H14.4999C13.4511 5 12.5186 5 11.6874 5.01625V3.125Z" fill="#6147C6"/>
<path fill-rule="evenodd" clip-rule="evenodd" d="M4.5 15C4.5 13.9513 4.5 13.0188 4.51625 12.1875H29.4837C29.5 13.0188 29.5 13.9513 29.5 15V17.5C29.5 22.2137 29.5 24.5712 28.035 26.035C26.57 27.4987 24.2137 27.5 19.5 27.5H14.5C9.78625 27.5 7.42875 27.5 5.965 26.035C4.50125 24.57 4.5 22.2137 4.5 17.5V15ZM23.25 17.5C23.5815 17.5 23.8995 17.3683 24.1339 17.1339C24.3683 16.8995 24.5 16.5815 24.5 16.25C24.5 15.9185 24.3683 15.6005 24.1339 15.3661C23.8995 15.1317 23.5815 15 23.25 15C22.9185 15 22.6005 15.1317 22.3661 15.3661C22.1317 15.6005 22 15.9185 22 16.25C22 16.5815 22.1317 16.8995 22.3661 17.1339C22.6005 17.3683 22.9185 17.5 23.25 17.5ZM23.25 22.5C23.5815 22.5 23.8995 22.3683 24.1339 22.1339C24.3683 21.8995 24.5 21.5815 24.5 21.25C24.5 20.9185 24.3683 20.6005 24.1339 20.3661C23.8995 20.1317 23.5815 20 23.25 20C22.9185 20 22.6005 20.1317 22.3661 20.3661C22.1317 20.6005 22 20.9185 22 21.25C22 21.5815 22.1317 21.8995 22.3661 22.1339C22.6005 22.3683 22.9185 22.5 23.25 22.5ZM18.25 16.25C18.25 16.5815 18.1183 16.8995 17.8839 17.1339C17.6495 17.3683 17.3315 17.5 17 17.5C16.6685 17.5 16.3505 17.3683 16.1161 17.1339C15.8817 16.8995 15.75 16.5815 15.75 16.25C15.75 15.9185 15.8817 15.6005 16.1161 15.3661C16.3505 15.1317 16.6685 15 17 15C17.3315 15 17.6495 15.1317 17.8839 15.3661C18.1183 15.6005 18.25 15.9185 18.25 16.25ZM18.25 21.25C18.25 21.5815 18.1183 21.8995 17.8839 22.1339C17.6495 22.3683 17.3315 22.5 17 22.5C16.6685 22.5 16.3505 22.3683 16.1161 22.1339C15.8817 21.8995 15.75 21.5815 15.75 21.25C15.75 20.9185 15.8817 20.6005 16.1161 20.3661C16.3505 20.1317 16.6685 20 17 20C17.3315 20 17.6495 20.1317 17.8839 20.3661C18.1183 20.6005 18.25 20.9185 18.25 21.25ZM10.75 17.5C11.0815 17.5 11.3995 17.3683 11.6339 17.1339C11.8683 16.8995 12 16.5815 12 16.25C12 15.9185 11.8683 15.6005 11.6339 15.3661C11.3995 15.1317 11.0815 15 10.75 15C10.4185 15 10.1005 15.1317 9.86612 15.3661C9.6317 15.6005 9.5 15.9185 9.5 16.25C9.5 16.5815 9.6317 16.8995 9.86612 17.1339C10.1005 17.3683 10.4185 17.5 10.75 17.5ZM10.75 22.5C11.0815 22.5 11.3995 22.3683 11.6339 22.1339C11.8683 21.8995 12 21.5815 12 21.25C12 20.9185 11.8683 20.6005 11.6339 20.3661C11.3995 20.1317 11.0815 20 10.75 20C10.4185 20 10.1005 20.1317 9.86612 20.3661C9.6317 20.6005 9.5 20.9185 9.5 21.25C9.5 21.5815 9.6317 21.8995 9.86612 22.1339C10.1005 22.3683 10.4185 22.5 10.75 22.5Z" fill="#6147C6"/>
</svg>
