<svg width="113" height="94" viewBox="0 0 113 94" fill="none" xmlns="http://www.w3.org/2000/svg">
<path d="M70.7536 5.00432C69.1186 6.65049 31.0916 45.3602 28.6656 47.7498C26.5558 45.6788 16.8512 36.0678 15.48 34.7402C7.09402 25.8194 13.7394 10.5266 26.0283 10.5266C29.351 10.5266 34.0452 11.8542 36.7349 15.5181L31.1971 21.4652C28.7709 19.2351 27.2414 18.7041 26.0283 18.7041C21.0706 18.7041 18.2752 24.5451 21.3344 28.4214L30.3533 37.3422C31.0389 36.6518 48.3382 18.5979 49.815 17.1112C46.0176 6.06635 36.1021 -0.411932 24.5515 0.172211C1.29247 1.3405 -8.57028 30.6516 8.88723 45.3072C27.1888 63.4673 9.5202 45.9443 28.9291 65.1665C69.7514 24.7044 56.1969 37.1829 76.0802 18.2263C84.3086 7.81861 101.027 13.6597 101.027 26.9877C101.027 30.333 99.8671 33.3596 97.9685 35.7492C94.0128 39.6786 63.0005 71.3257 57.779 76.5298L52.2939 71.0603L92.3777 30.0144C96.2276 23.3237 86.7341 17.1642 82.1987 23.1644C81.3018 24.0672 35.311 69.8393 34.5198 70.5826C35.6802 71.7509 57.0407 92.8848 58.1483 94C58.3592 93.787 107.093 43.8203 107.093 43.8203C110.784 39.2007 113 33.3065 113 26.9347C112.947 4.84502 88.2114 -7.52723 70.7536 5.00432Z" fill="#29D0F4"/>
</svg>
