<svg width="28" height="28" viewBox="0 0 28 28" fill="none" xmlns="http://www.w3.org/2000/svg">
<path fill-rule="evenodd" clip-rule="evenodd" d="M8.85736 13.1623C7.66764 11.9726 6.99927 10.359 6.99927 8.67651C6.99927 6.99399 7.66764 5.38039 8.85736 4.19067C10.0471 3.00096 11.6607 2.33258 13.3432 2.33258C15.0257 2.33258 16.6393 3.00096 17.829 4.19067L20.0714 6.43417L19.9594 7.01167L19.9582 7.02217L19.943 7.08517C19.9188 7.1809 19.8916 7.27584 19.8614 7.36984C19.7388 7.74897 19.5887 8.11862 19.4122 8.47584C18.9595 9.41617 18.1569 10.7193 16.7709 12.1042C15.3849 13.4913 14.0829 14.2928 13.1425 14.7467C12.6724 14.973 12.2909 15.1118 12.0365 15.1935C11.9219 15.2306 11.806 15.2633 11.6889 15.2915L11.6784 15.2938L11.1009 15.4047L8.85736 13.1623ZM15.785 5.21501C15.7049 5.12904 15.6083 5.06009 15.501 5.01226C15.3937 4.96444 15.2778 4.93872 15.1603 4.93665C15.0428 4.93458 14.9261 4.95619 14.8172 5.0002C14.7082 5.0442 14.6092 5.10971 14.5261 5.1928C14.4431 5.27588 14.3776 5.37486 14.3336 5.48381C14.2895 5.59276 14.2679 5.70946 14.27 5.82695C14.2721 5.94444 14.2978 6.0603 14.3456 6.16763C14.3934 6.27497 14.4624 6.37157 14.5484 6.45167L16.2984 8.20167C16.3785 8.28764 16.4751 8.35659 16.5824 8.40442C16.6897 8.45224 16.8056 8.47796 16.9231 8.48003C17.0406 8.4821 17.1573 8.46049 17.2662 8.41648C17.3752 8.37248 17.4741 8.30697 17.5572 8.22388C17.6403 8.1408 17.7058 8.04182 17.7498 7.93287C17.7938 7.82392 17.8155 7.70722 17.8134 7.58973C17.8113 7.47224 17.7856 7.35638 17.7378 7.24905C17.6899 7.14171 17.621 7.04511 17.535 6.96501L15.785 5.21501Z" fill="white"/>
<path d="M21.5274 7.90301L21.5309 7.89368L23.8094 10.171C24.3985 10.7601 24.8658 11.4594 25.1846 12.2291C25.5034 12.9988 25.6675 13.8237 25.6675 14.6568C25.6675 15.4899 25.5034 16.3149 25.1846 17.0846C24.8658 17.8542 24.3985 18.5536 23.8094 19.1427C23.2203 19.7318 22.5209 20.1991 21.7513 20.5179C20.9816 20.8367 20.1566 21.0008 19.3235 21.0008C18.4904 21.0008 17.6655 20.8367 16.8958 20.5179C16.1261 20.1991 15.4268 19.7318 14.8377 19.1427L12.5604 16.8642L12.5685 16.8607C13.0248 16.7121 13.4704 16.5324 13.902 16.3228C15.0022 15.792 16.471 14.8808 18.0087 13.3432C19.5464 11.8043 20.4587 10.3367 20.9884 9.23651C21.2532 8.68701 21.4235 8.22968 21.5274 7.90301ZM6.16704 12.4227C5.1816 12.9234 4.32874 13.6503 3.67828 14.544C3.02781 15.4377 2.59823 16.4727 2.4247 17.5644C2.25116 18.656 2.33861 19.7732 2.67988 20.8246C3.02115 21.8759 3.60655 22.8315 4.38814 23.6131C5.16974 24.3947 6.12532 24.9801 7.17666 25.3213C8.228 25.6626 9.34522 25.7501 10.4369 25.5765C11.5285 25.403 12.5635 24.9734 13.4572 24.3229C14.3509 23.6725 15.0778 22.8196 15.5785 21.8342C14.8498 21.4516 14.1831 20.9612 13.601 20.3793L7.62071 14.399C7.0394 13.8172 6.54931 13.1509 6.16704 12.4227Z" fill="white"/>
</svg>
