<svg width="26" height="27" viewBox="0 0 26 27" fill="none" xmlns="http://www.w3.org/2000/svg">
<path d="M25.4113 12.4958L1.60635 0.118832C1.41977 0.0218043 1.2102 -0.0170726 1.00287 0.00688259C0.79554 0.0308378 0.599287 0.116604 0.437744 0.253853C0.28347 0.388304 0.168321 0.564837 0.105242 0.763608C0.0421617 0.962379 0.0336519 1.17551 0.080669 1.37903L2.94809 11.4969L10.9341 12.5051C12.1004 12.6524 12.1004 14.3421 10.9341 14.4894L2.94809 15.4976L0.0373873 25.5816C-0.00673152 25.7516 -0.0118815 25.9299 0.0223514 26.1023C0.0565844 26.2747 0.129245 26.4364 0.234491 26.5743C0.339737 26.7122 0.474631 26.8225 0.628328 26.8963C0.782024 26.9701 0.950234 27.0054 1.11943 26.9993C1.28882 26.9983 1.4556 26.9559 1.60635 26.8756L25.4113 14.4986C25.5886 14.4042 25.7373 14.2607 25.8412 14.084C25.945 13.9073 26 13.7043 26 13.4972C26 13.2901 25.945 13.087 25.8412 12.9104C25.7373 12.7337 25.5886 12.5902 25.4113 12.4958Z" fill="#6147C6"/>
</svg>
