<svg width="24" height="24" viewBox="0 0 24 24" fill="none" xmlns="http://www.w3.org/2000/svg">
<path d="M9.0791 1.93951C9.10492 1.94161 9.132 1.94569 9.16016 1.95319C9.21849 1.96874 9.27154 1.99637 9.32812 2.03619C9.43402 2.11075 9.58161 2.2487 9.83691 2.4903L10.2041 2.84576C12.041 4.65452 13.8321 6.94226 14.8174 8.7569L14.8818 8.87604L15.1084 8.64752L15.5957 8.16119C15.7205 8.03953 15.8124 7.95461 15.8857 7.89655C15.9615 7.83663 16.0281 7.796 16.0996 7.7735C16.1709 7.75111 16.2363 7.75104 16.293 7.75104C16.3408 7.75104 16.3962 7.75042 16.4521 7.76276C16.5128 7.77617 16.5666 7.80226 16.624 7.84186C16.7285 7.91395 16.8712 8.05074 17.123 8.29303L17.4365 8.60065C18.9908 10.1504 20.3197 11.89 21.1221 13.4366L21.3271 13.8497C21.7746 14.7981 22.0079 15.639 22.0557 16.4825L22.0625 16.6807C22.0911 18.6625 20.8679 20.5285 18.9502 21.4581L18.7568 21.5479C18.4463 21.685 18.0403 21.8203 17.7139 21.8995L17.4199 21.9581C17.367 21.9654 17.322 21.9754 17.293 21.9844C17.2896 21.9855 17.2866 21.9865 17.2842 21.9874C17.2821 21.9893 17.281 21.9919 17.2793 21.9932C17.2618 22.0076 17.2447 22.0156 17.2373 22.0186C17.2212 22.0252 17.2058 22.0286 17.1973 22.0303C17.1778 22.0343 17.1544 22.0378 17.1309 22.0401C17.082 22.0449 17.0132 22.0484 16.9326 22.0518C16.7706 22.0586 16.5487 22.0635 16.3057 22.0635C16.0268 22.0635 15.8042 22.0591 15.6504 22.0518C15.5741 22.0482 15.5112 22.0432 15.4658 22.0372C15.4442 22.0343 15.4199 22.0309 15.3984 22.0245C15.3888 22.0216 15.3701 22.0152 15.3506 22.003C15.3463 22.0003 15.3366 21.9917 15.3242 21.9796L15.1953 21.9678C15.1466 21.9605 15.0932 21.9497 15.0381 21.9376C14.9243 21.9126 14.7911 21.8778 14.6523 21.837C14.4447 21.7759 14.2204 21.7003 14.0254 21.6241L13.8418 21.5479C13.3576 21.3335 12.9089 21.0617 12.4951 20.7315L12.3203 20.587C12.1438 20.4354 11.9289 20.2083 11.7383 19.9825C11.5962 19.8142 11.4626 19.6402 11.3662 19.4932L11.2832 19.3565C11.2661 19.325 11.2515 19.3027 11.2402 19.2862C11.1167 19.3244 10.9071 19.3777 10.6934 19.4239C10.5689 19.4508 10.4394 19.4769 10.3203 19.4991L10.0088 19.5499C9.76832 19.5811 9.37596 19.5959 8.99414 19.5958C8.70789 19.5957 8.41919 19.587 8.19824 19.5694L8.00293 19.5489C4.40213 19.042 1.77829 16.1191 1.94434 12.751L1.97266 12.3965C2.16769 10.5991 3.17404 8.46494 4.85742 6.24225L5.34961 5.60748C5.5154 5.40005 5.70822 5.16421 6.00586 4.80475L6.42578 4.32135C6.91003 3.78215 7.56249 3.10363 8.14648 2.53424L8.47266 2.21881C8.55831 2.13877 8.62368 2.08177 8.67773 2.04205C8.73527 1.9998 8.7891 1.96971 8.84863 1.95319C8.90639 1.93716 8.96048 1.93661 9.00586 1.93658L9.0791 1.93951ZM17.3281 21.918C17.3319 21.9058 17.335 21.8919 17.335 21.876C17.335 21.8917 17.3318 21.9054 17.3281 21.918ZM16.2363 9.09869L15.8506 9.49323C15.05 10.2749 13.9647 11.5983 13.2588 12.6368L12.9814 13.0616C11.7967 14.969 11.452 16.4366 11.8223 17.7755L11.915 18.0694C12.4363 19.5161 13.7552 20.5911 15.4531 20.9102L15.6748 20.9424C15.9152 20.9679 16.2054 20.9744 16.498 20.963C16.8882 20.9477 17.2694 20.9012 17.5293 20.8301L17.8281 20.7383C19.2988 20.243 20.3713 19.1661 20.7744 17.7774L20.832 17.5577C20.877 17.3562 20.8857 17.1791 20.8877 16.7471L20.8789 16.3741C20.8396 15.6517 20.662 15.0476 20.2266 14.1807L19.9873 13.7237C19.3284 12.5115 18.4353 11.3058 17.2148 9.98737L16.6719 9.4151C16.5554 9.2954 16.4441 9.18671 16.3594 9.10846C16.3332 9.08427 16.3097 9.06398 16.29 9.04694L16.2363 9.09869ZM8.9248 3.33209L8.50391 3.75006C7.17278 5.10292 5.95927 6.56833 5.08301 7.87115L4.72852 8.41901C2.93081 11.3196 2.6387 13.4852 3.69922 15.4639L3.82227 15.6837C4.11748 16.1831 4.4648 16.5955 4.9375 17.0137L5.25391 17.2764C6.00434 17.8581 6.83769 18.2211 7.87793 18.4219L8.20312 18.4727C8.98842 18.5695 9.93609 18.5112 10.6855 18.3116L10.7822 18.2833L10.7734 18.2608C10.6491 17.9619 10.5755 17.5084 10.5518 17.0411C10.5279 16.5709 10.5536 16.0677 10.6377 15.6631L10.7021 15.3829C11.0553 13.9784 11.8868 12.4698 13.2246 10.7813L13.6426 10.2618C13.769 10.107 13.873 9.9832 13.9229 9.9278L14.0332 9.78912C14.0394 9.78013 14.0435 9.7707 14.0479 9.76373C14.0394 9.74253 14.0283 9.71502 14.0137 9.68268L13.877 9.40436C13.2338 8.17871 12.1383 6.64261 10.8984 5.21783L10.3584 4.6153C10.1418 4.38012 9.78862 4.01528 9.48438 3.70905C9.33248 3.55616 9.19359 3.41856 9.09082 3.3194C9.06217 3.29175 9.03572 3.26784 9.01367 3.24713C8.98832 3.27089 8.95856 3.29949 8.9248 3.33209ZM5.53027 12.9424C5.64094 12.9541 5.75762 12.994 5.84863 13.0665L5.89844 13.1094C5.94424 13.1544 5.97952 13.2078 6.00684 13.2862C6.03775 13.375 6.058 13.4977 6.08301 13.6768L6.11426 13.8546C6.15124 14.037 6.20428 14.2247 6.24805 14.3262L6.30664 14.4473C6.37516 14.5732 6.47059 14.7128 6.57812 14.8467C6.72152 15.0253 6.87917 15.1834 7.0127 15.2794L7.17871 15.3887C7.581 15.6303 8.08173 15.7812 8.4873 15.7813C8.58647 15.7813 8.6733 15.7851 8.75488 15.8155C8.83837 15.8466 8.90253 15.9007 8.9707 15.9639L9.04004 16.0352C9.06165 16.0595 9.08162 16.0838 9.09863 16.1075C9.11556 16.131 9.13201 16.1564 9.14453 16.1817C9.15465 16.2021 9.17186 16.2414 9.17188 16.2872C9.17188 16.3981 9.11555 16.5184 9.05762 16.6065C9.0266 16.6537 8.99083 16.7 8.95117 16.7383C8.93206 16.7568 8.90999 16.7754 8.88574 16.7921L8.80664 16.8331C8.69566 16.8732 8.54334 16.8789 8.38672 16.8692C8.22445 16.8591 8.03715 16.8312 7.84473 16.7901C7.5575 16.7288 7.24931 16.6369 6.9873 16.5264L6.74219 16.4092C6.56512 16.3132 6.33266 16.1423 6.12305 15.9659C5.96643 15.834 5.81395 15.6925 5.70215 15.5684L5.60547 15.4512C5.28819 15.0235 5.0542 14.4764 4.95898 13.9483L4.92676 13.7237C4.89375 13.4089 4.95345 13.1323 5.19629 13.001L5.27637 12.9669C5.3587 12.9402 5.44775 12.9338 5.53027 12.9424Z" fill="white" stroke="white" stroke-width="0.3"/>
</svg>
