<svg width="21" height="21" viewBox="0 0 21 21" fill="none" xmlns="http://www.w3.org/2000/svg">
<path d="M17.9375 1.75H3.0625C2.7144 1.75 2.38056 1.88828 2.13442 2.13442C1.88828 2.38056 1.75 2.7144 1.75 3.0625V17.9375C1.75 18.2856 1.88828 18.6194 2.13442 18.8656C2.38056 19.1117 2.7144 19.25 3.0625 19.25H17.9375C18.2856 19.25 18.6194 19.1117 18.8656 18.8656C19.1117 18.6194 19.25 18.2856 19.25 17.9375V3.0625C19.25 2.7144 19.1117 2.38056 18.8656 2.13442C18.6194 1.88828 18.2856 1.75 17.9375 1.75Z" stroke="white" stroke-width="1.5" stroke-linejoin="round"/>
<path d="M5.25 8.33612C6.70454 6.58612 8.45454 5.71112 10.5 5.71112C12.5452 5.71112 14.2952 6.58612 15.75 8.33612" stroke="white" stroke-width="1.5" stroke-linecap="round"/>
<path d="M10.5 11.6875C10.612 11.6875 10.7207 11.7209 10.8125 11.7822L10.8975 11.8525C11.0029 11.958 11.0625 12.1008 11.0625 12.25C11.0625 12.362 11.0291 12.4707 10.9678 12.5625L10.8975 12.6475C10.792 12.7529 10.6492 12.8125 10.5 12.8125C10.388 12.8125 10.2793 12.7791 10.1875 12.7178L10.1025 12.6475C9.99705 12.542 9.9375 12.3992 9.9375 12.25L9.94824 12.1396C9.96986 12.0316 10.0234 11.9316 10.1025 11.8525C10.208 11.7471 10.3508 11.6875 10.5 11.6875Z" fill="black" stroke="white" stroke-width="1.5"/>
<path d="M8.3125 9.1875L10.5035 12.25" stroke="white" stroke-width="1.5" stroke-linecap="round"/>
</svg>
