<svg width="21" height="12" viewBox="0 0 21 12" fill="none" xmlns="http://www.w3.org/2000/svg">
<path fill-rule="evenodd" clip-rule="evenodd" d="M15.8123 0.0239802C15.8986 -0.00271775 15.9905 -0.00721212 16.0791 0.0109444C16.1677 0.029101 16.2498 0.0692761 16.3173 0.127477L20.591 3.81685C20.6594 3.87585 20.7104 3.95127 20.7386 4.03542C20.7669 4.11956 20.7715 4.20942 20.7519 4.29584L19.5308 9.68716C19.5105 9.77681 19.465 9.85936 19.3993 9.92577C19.3336 9.99217 19.2501 10.0399 19.1582 10.0636L13.6633 11.4826C13.5759 11.5052 13.4839 11.5053 13.3964 11.483C13.3089 11.4608 13.229 11.4168 13.1645 11.3556L10.798 9.10568C10.7 9.01246 10.6445 8.88555 10.6436 8.75287C10.6427 8.6202 10.6966 8.49262 10.7934 8.3982C10.8901 8.30379 11.0218 8.25027 11.1596 8.24943C11.2973 8.24858 11.4297 8.30048 11.5277 8.3937L13.6814 10.4426L18.5842 9.17668L19.6735 4.36684L15.8466 1.06395L10.8873 2.60039L10.359 4.15534C10.3378 4.21775 10.304 4.27553 10.2597 4.32537C10.2153 4.37522 10.1612 4.41615 10.1004 4.44584C10.0396 4.47553 9.97331 4.4934 9.90535 4.49841C9.83739 4.50343 9.76908 4.4955 9.7043 4.47508C9.63952 4.45466 9.57955 4.42215 9.52781 4.3794C9.47607 4.33665 9.43358 4.28451 9.40277 4.22594C9.37195 4.16737 9.3534 4.10353 9.3482 4.03805C9.34299 3.97258 9.35122 3.90676 9.37241 3.84435L9.98272 2.04691C10.0083 1.9719 10.052 1.90379 10.1102 1.84818C10.1684 1.79256 10.2394 1.75101 10.3175 1.72692L15.8123 0.0239802Z" fill="white"/>
<path fill-rule="evenodd" clip-rule="evenodd" d="M14.911 5.01232C15.0452 5.04177 15.1617 5.12136 15.235 5.23359C15.3083 5.34583 15.3323 5.48151 15.3018 5.6108L14.0043 11.1106C13.9727 11.2388 13.8898 11.3498 13.7737 11.4194C13.6576 11.4891 13.5176 11.5117 13.3842 11.4825C13.2509 11.4532 13.1349 11.3744 13.0615 11.2632C12.9881 11.152 12.9633 11.0174 12.9923 10.8886L14.2898 5.38881C14.3203 5.25952 14.403 5.14723 14.5195 5.07662C14.6359 5.00602 14.7768 4.98289 14.911 5.01232Z" fill="white"/>
<path fill-rule="evenodd" clip-rule="evenodd" d="M10.2486 1.92668C10.3376 1.8256 10.4646 1.76272 10.6018 1.75184C10.7389 1.74096 10.8749 1.78299 10.9798 1.86868L14.7502 4.94858L18.2922 4.01761C18.425 3.98273 18.5667 4.00012 18.6863 4.06594C18.8058 4.13176 18.8933 4.24063 18.9295 4.36859C18.9657 4.49656 18.9476 4.63313 18.8793 4.74828C18.811 4.86342 18.698 4.9477 18.5651 4.98257L14.7595 5.98254C14.6782 6.00392 14.5927 6.0059 14.5104 5.9883C14.4281 5.9707 14.3515 5.93406 14.2873 5.88155L10.3088 2.63165C10.2568 2.58919 10.214 2.53726 10.1828 2.47884C10.1516 2.42042 10.1327 2.35665 10.1271 2.29118C10.1215 2.22571 10.1293 2.15982 10.1502 2.09728C10.1711 2.03473 10.2045 1.97676 10.2486 1.92668ZM3.50405 2.63865C3.56946 2.57839 3.6501 2.53566 3.73795 2.5147C3.8258 2.49374 3.91781 2.49527 4.00486 2.51916L8.29676 3.69962C8.38402 3.72355 8.46325 3.76911 8.52654 3.83175C8.58983 3.89439 8.63496 3.97192 8.65745 4.05661L9.84952 8.54246C9.8733 8.63182 9.87096 8.72577 9.84275 8.81392C9.81454 8.90208 9.76156 8.98099 9.68968 9.04194L6.35217 11.8748C6.28692 11.9303 6.20824 11.9691 6.12335 11.9877C6.03847 12.0062 5.95011 12.0038 5.86641 11.9808L1.57399 10.7999C1.48808 10.7762 1.40997 10.7315 1.34723 10.6702C1.2845 10.6089 1.23926 10.533 1.2159 10.4499L0.023305 6.20003C-0.00101361 6.11324 -0.000592654 6.02174 0.0245233 5.93516C0.0496392 5.84858 0.098521 5.77012 0.166022 5.70805L3.50405 2.63865ZM4.0059 3.55962L1.10536 6.22603L2.14019 9.91591L5.87783 10.9439L8.76487 8.49396L7.72537 4.58259L4.0059 3.55962Z" fill="white"/>
<path fill-rule="evenodd" clip-rule="evenodd" d="M7.11857 5.14624C7.21587 5.24 7.27052 5.36715 7.27052 5.49972C7.27052 5.6323 7.21587 5.75945 7.11857 5.85321L5.04268 7.85315C4.97771 7.91565 4.89669 7.96044 4.80789 7.98292C4.71909 8.00541 4.62568 8.00479 4.53721 7.98114L0.385427 6.87018C0.319124 6.85317 0.256981 6.82366 0.202592 6.78336C0.148203 6.74306 0.102648 6.69278 0.0685635 6.63541C0.0344788 6.57804 0.0125407 6.51472 0.00401863 6.44913C-0.00450347 6.38354 0.000559407 6.31697 0.0189146 6.25328C0.0372697 6.18959 0.0685528 6.13003 0.110954 6.07806C0.153354 6.02609 0.206031 5.98274 0.265937 5.95051C0.325842 5.91828 0.391786 5.89781 0.459955 5.89029C0.528123 5.88278 0.597162 5.88836 0.663078 5.90671L4.52319 6.93968L6.38475 5.14624C6.48207 5.0525 6.61405 4.99985 6.75166 4.99985C6.88927 4.99985 7.02125 5.0525 7.11857 5.14624Z" fill="white"/>
<path fill-rule="evenodd" clip-rule="evenodd" d="M4.55007 7.01456C4.68351 6.98249 4.8247 7.00276 4.94264 7.07092C5.06058 7.13907 5.14561 7.24954 5.17907 7.37805L6.21701 11.3779C6.24935 11.5062 6.22774 11.6415 6.1569 11.7545C6.08605 11.8675 5.97171 11.9489 5.83882 11.9809C5.70593 12.013 5.56527 11.9932 5.44751 11.9257C5.32975 11.8583 5.24444 11.7487 5.21021 11.6209L4.17226 7.62104C4.15571 7.55732 4.15235 7.49108 4.16239 7.42611C4.17242 7.36113 4.19564 7.2987 4.23073 7.24238C4.26581 7.18606 4.31208 7.13695 4.36687 7.09786C4.42167 7.05877 4.48392 7.03046 4.55007 7.01456Z" fill="white"/>
</svg>
