<svg width="24" height="24" viewBox="0 0 24 24" fill="none" xmlns="http://www.w3.org/2000/svg">
<path d="M19.001 14.5C19.1562 14.4996 19.2646 14.5469 19.3594 14.6416C19.4304 14.7126 19.474 14.791 19.4912 14.8906L19.5 14.998V17C19.5 17.4163 19.3579 17.7606 19.0596 18.0596C18.7988 18.3208 18.5025 18.4622 18.1533 18.4932L18.001 18.5H6C5.58354 18.5 5.23963 18.3578 4.94141 18.0596C4.68039 17.7986 4.53854 17.5021 4.50684 17.1523L4.5 16.999V15C4.5 14.8431 4.54766 14.7354 4.64062 14.6426C4.73479 14.5487 4.84403 14.5004 5.00098 14.5C5.15618 14.4996 5.26463 14.5469 5.35938 14.6416C5.43042 14.7126 5.47399 14.791 5.49121 14.8906L5.5 14.998V17.5H18.5V15C18.5 14.8431 18.5477 14.7354 18.6406 14.6426C18.7348 14.5487 18.844 14.5004 19.001 14.5ZM12.001 3.5C12.1173 3.49973 12.2075 3.526 12.2852 3.5791L12.3594 3.6416C12.4304 3.71264 12.474 3.79099 12.4912 3.89062L12.5 3.99805V12.3574L15.2285 9.62891C15.3341 9.52335 15.4397 9.4825 15.5732 9.48633C15.714 9.49042 15.8287 9.53852 15.9385 9.64648C16.0374 9.75758 16.0833 9.87508 16.0879 10.0166C16.0907 10.1055 16.0714 10.1847 16.0156 10.2646L15.9473 10.3457L12.3467 13.9463C12.2915 14.0015 12.2443 14.0292 12.2061 14.043C12.1773 14.0533 12.1459 14.0608 12.1123 14.0664L12.0029 14.0752H12C11.9192 14.0752 11.851 14.0629 11.792 14.042C11.7739 14.0356 11.7533 14.0257 11.7305 14.0107L11.6543 13.9473L8.05371 10.3467C7.94459 10.2376 7.90851 10.1345 7.91211 10.0146C7.91641 9.87353 7.96246 9.75678 8.0625 9.64551C8.17238 9.53901 8.28733 9.49138 8.42773 9.4873C8.52815 9.48442 8.61251 9.50647 8.69238 9.56152L8.77148 9.62891L11.5 12.3574V4C11.5 3.88192 11.5271 3.79181 11.5801 3.71484L11.6406 3.64258C11.7112 3.57221 11.7904 3.52685 11.8916 3.50879L12.001 3.5Z" fill="#674EC8" stroke="white"/>
</svg>
