<svg width="24" height="24" viewBox="0 0 24 24" fill="none" xmlns="http://www.w3.org/2000/svg">
<path d="M6.82352 7.93872H5.88235C5.38312 7.93872 4.90434 8.13704 4.55133 8.49004C4.19832 8.84304 4 9.32182 4 9.82104V18.2915C4 18.7907 4.19832 19.2695 4.55133 19.6225C4.90434 19.9755 5.38312 20.1738 5.88235 20.1738H14.3529C14.8521 20.1738 15.3309 19.9755 15.6839 19.6225C16.0369 19.2695 16.2353 18.7907 16.2353 18.2915V17.3503" stroke="white" stroke-width="2" stroke-linecap="round" stroke-linejoin="round"/>
<path d="M15.294 6.05625L18.1175 8.87972M19.4211 7.54798C19.7918 7.17731 20 6.67457 20 6.15036C20 5.62615 19.7918 5.12341 19.4211 4.75274C19.0504 4.38207 18.5476 4.17383 18.0234 4.17383C17.4992 4.17383 16.9965 4.38207 16.6258 4.75274L8.70581 12.6444V15.4678H11.5293L19.4211 7.54798Z" stroke="white" stroke-width="2" stroke-linecap="round" stroke-linejoin="round"/>
</svg>
