<svg width="109" height="114" viewBox="0 0 109 114" fill="none" xmlns="http://www.w3.org/2000/svg">
<g opacity="0.4">
<mask id="path-1-outside-1_698_1511" maskUnits="userSpaceOnUse" x="0" y="0" width="132" height="135" fill="black">
<rect fill="white" width="132" height="135"/>
<path fill-rule="evenodd" clip-rule="evenodd" d="M34.3043 1.81445C25.8089 4.06754 17.0558 11.294 12.781 19.5846C9.39217 26.1564 7.902 32.0321 7.79873 39.2244C7.75123 42.537 7.89942 46.3561 8.12816 47.7115L8.5433 50.1756L4.77191 50.3301C1.13322 50.4794 1 50.5307 1 51.794C1 53.0671 1.12082 53.1106 5.38378 53.3651C9.2507 53.5961 9.7908 53.7506 9.96171 54.6745C10.3851 56.9611 14.8778 65.8687 17.9981 70.6095C26.3123 83.2392 40.0678 97.1201 56.5072 109.469C58.6372 111.069 61.0351 112.807 61.8359 113.332C62.6368 113.857 64.8684 116.442 66.7949 119.075C70.5105 124.156 74.6263 127.734 79.8084 130.387C89.02 135.104 101.1 135.21 110.549 130.659C123.302 124.516 130.991 112.194 131 97.8822C131.006 88.277 127.713 80.0712 121.133 73.2931C118.957 71.0525 116.632 68.855 115.966 68.4088L114.753 67.5975L116.662 64.1362C117.711 62.2329 119.214 58.9717 120.002 56.8893L121.433 53.1033L124.986 52.9456C128.916 52.7712 129.578 52.423 129.07 50.7994C128.772 49.8478 128.321 49.699 125.728 49.699H122.73L122.995 42.6648C123.221 36.6503 123.096 34.911 122.129 30.6672C118.102 12.9929 104.752 1.03148 89.0164 1.00005C81.6755 0.985388 74.0645 4.01988 68.3987 9.22051L65.2717 12.0905L62.1313 9.14143C58.6051 5.83041 53.5687 3.04103 48.9009 1.81445C45.0588 0.804178 38.1124 0.804178 34.3043 1.81445ZM37.9188 4.49437C26.6077 6.39499 17.0109 15.3754 12.8378 27.9643C11.1705 32.9931 10.5509 42.304 11.5572 47.2113L12.1748 50.2228L27.2412 50.2165L42.3077 50.2097L47.7293 39.3941C50.7112 33.4451 53.6178 28.2722 54.1883 27.8983C55.0207 27.3531 55.4802 27.3468 56.5083 27.8668C57.6225 28.4304 58.237 30.0215 61.2018 40.0237C63.0782 46.3535 65.2479 53.6328 66.024 56.2001L67.4352 60.8681L69.6549 57.2476C70.8761 55.2563 72.4814 52.7435 73.2224 51.663L74.5695 49.699H80.254C83.381 49.699 85.939 49.6215 85.939 49.5262C85.939 48.8077 92.2988 31.0139 92.7552 30.4562C93.0759 30.0644 94.0296 29.8146 94.8743 29.9015C96.3149 30.0492 96.7136 30.6714 101.267 39.8791L106.122 49.699H112.491H118.859L119.504 45.4951C121.305 33.7504 117.336 21.6669 108.786 12.862C105.04 9.00421 100.688 6.52121 95.1681 5.093C91.2589 4.08168 90.3986 4.03035 86.1971 4.55879C80.0671 5.33025 74.5355 8.04631 69.4427 12.7866C67.4378 14.6532 65.5634 16.1804 65.2779 16.1804C64.9923 16.1804 63.0225 14.5474 60.9003 12.5514C58.7456 10.5256 55.6124 8.21076 53.8052 7.311C48.8601 4.84737 42.5122 3.7224 37.9188 4.49437ZM50.6374 41.1094C48.1899 45.9774 45.7244 50.7271 45.1584 51.663L44.1299 53.3651H28.9762C20.6418 53.3651 13.684 53.5055 13.5147 53.6773C13.3453 53.8491 13.8204 55.4402 14.5701 57.2125C20.5969 71.4616 35.1 88.388 53.9838 103.211C62.1886 109.651 61.6676 109.45 60.8332 105.855C59.8186 101.482 59.9471 93.6352 61.1058 89.2406C62.3993 84.3338 63.4108 82.0493 66.1412 77.8684C75.0136 64.2833 92.5374 58.4804 107.568 64.1498C109.446 64.8584 111.214 65.4905 111.498 65.5555C112.13 65.699 117.436 55.226 117.436 53.8365C117.436 52.9137 116.978 52.8409 111.111 52.8336C107.632 52.8288 104.523 52.6524 104.203 52.4408C103.883 52.2292 101.645 48.0493 99.2297 43.1524L94.8392 34.249L94.09 36.0821C93.6785 37.0903 92.3344 40.9789 91.1035 44.7236C89.873 48.4683 88.6436 51.827 88.372 52.1868C88.0286 52.6419 86.1099 52.8414 82.0757 52.8414H76.274L72.753 58.6339C70.8167 61.8197 68.8242 64.6479 68.3254 64.9186C67.776 65.2166 66.9343 65.2245 66.1918 64.938C65.1059 64.5195 64.4435 62.7059 60.4046 49.0952C57.8962 40.6417 55.6738 33.3948 55.4658 32.9915C55.2179 32.5102 53.5563 35.3043 50.6374 41.1094ZM89.2121 65.9252C82.9891 67.2649 75.5738 71.5496 71.6666 76.0641C67.4037 80.9898 64.3288 87.8276 63.4991 94.2271L63.1918 96.5948L67.0732 96.3958C70.3995 96.2256 71.0036 96.3277 71.3 97.1107C71.9233 98.7589 70.779 99.7047 67.9582 99.8728C66.5052 99.9598 64.8442 99.7749 64.2679 99.4617C62.9533 98.7479 62.9357 99.1491 64.0417 104.582C65.7472 112.958 71.6455 121.549 78.6575 125.869C82.0297 127.947 88.1081 130.087 92.036 130.578C94.6508 130.905 94.7514 130.874 94.2305 129.886C93.5793 128.653 93.5174 124.099 94.1375 123.107C94.3786 122.721 95.1299 122.485 95.8079 122.583C96.9392 122.745 97.0533 123.032 97.1953 126.078C97.2934 128.177 97.1132 129.687 96.7058 130.185C96.142 130.874 96.3795 130.929 98.6163 130.627C109.096 129.213 118.23 123.272 123.258 114.6C133.505 96.9295 125.15 73.9734 105.977 67.1204C103.036 66.0698 101.007 65.7377 96.7822 65.6173C93.8003 65.5324 90.3935 65.6712 89.2121 65.9252ZM94.0084 66.7349C93.5339 67.9887 93.6273 73.413 94.1375 74.229C94.3786 74.6144 95.1299 74.8501 95.8079 74.7527C96.9898 74.5835 97.0404 74.4039 97.0404 70.3864C97.0404 66.2547 97.0218 66.1944 95.6865 66.0373C94.8041 65.9336 94.2196 66.1766 94.0084 66.7349ZM94.3038 78.0852C93.8881 78.5068 93.6842 80.8604 93.6842 85.2309V91.7482L91.8403 93.3749C88.4742 96.3445 88.9864 101.458 92.8358 103.311C95.0483 104.375 96.4068 104.391 98.3483 103.372C101.99 101.462 102.404 96.2523 99.1425 93.3749L97.2986 91.7482V85.2309C97.2986 78.8451 96.9759 77.4567 95.4914 77.4567C95.179 77.4567 94.6446 77.7395 94.3038 78.0852ZM94.1132 95.9182C92.8771 96.9284 92.6546 98.177 93.4941 99.3931C94.4344 100.755 96.332 100.826 97.4767 99.5429C98.5936 98.2912 98.5548 97.5852 97.2986 96.311C96.1063 95.1017 95.2425 94.9954 94.1132 95.9182ZM118.592 96.9195C117.751 97.7727 117.785 98.1608 118.789 99.18C119.411 99.8105 120.463 100.001 122.89 99.921C126.762 99.7938 127.394 99.4837 127.163 97.823C126.999 96.6477 126.756 96.5639 123.11 96.422C120.536 96.322 119.016 96.4896 118.592 96.9195Z"/>
</mask>
<path fill-rule="evenodd" clip-rule="evenodd" d="M34.3043 1.81445C25.8089 4.06754 17.0558 11.294 12.781 19.5846C9.39217 26.1564 7.902 32.0321 7.79873 39.2244C7.75123 42.537 7.89942 46.3561 8.12816 47.7115L8.5433 50.1756L4.77191 50.3301C1.13322 50.4794 1 50.5307 1 51.794C1 53.0671 1.12082 53.1106 5.38378 53.3651C9.2507 53.5961 9.7908 53.7506 9.96171 54.6745C10.3851 56.9611 14.8778 65.8687 17.9981 70.6095C26.3123 83.2392 40.0678 97.1201 56.5072 109.469C58.6372 111.069 61.0351 112.807 61.8359 113.332C62.6368 113.857 64.8684 116.442 66.7949 119.075C70.5105 124.156 74.6263 127.734 79.8084 130.387C89.02 135.104 101.1 135.21 110.549 130.659C123.302 124.516 130.991 112.194 131 97.8822C131.006 88.277 127.713 80.0712 121.133 73.2931C118.957 71.0525 116.632 68.855 115.966 68.4088L114.753 67.5975L116.662 64.1362C117.711 62.2329 119.214 58.9717 120.002 56.8893L121.433 53.1033L124.986 52.9456C128.916 52.7712 129.578 52.423 129.07 50.7994C128.772 49.8478 128.321 49.699 125.728 49.699H122.73L122.995 42.6648C123.221 36.6503 123.096 34.911 122.129 30.6672C118.102 12.9929 104.752 1.03148 89.0164 1.00005C81.6755 0.985388 74.0645 4.01988 68.3987 9.22051L65.2717 12.0905L62.1313 9.14143C58.6051 5.83041 53.5687 3.04103 48.9009 1.81445C45.0588 0.804178 38.1124 0.804178 34.3043 1.81445ZM37.9188 4.49437C26.6077 6.39499 17.0109 15.3754 12.8378 27.9643C11.1705 32.9931 10.5509 42.304 11.5572 47.2113L12.1748 50.2228L27.2412 50.2165L42.3077 50.2097L47.7293 39.3941C50.7112 33.4451 53.6178 28.2722 54.1883 27.8983C55.0207 27.3531 55.4802 27.3468 56.5083 27.8668C57.6225 28.4304 58.237 30.0215 61.2018 40.0237C63.0782 46.3535 65.2479 53.6328 66.024 56.2001L67.4352 60.8681L69.6549 57.2476C70.8761 55.2563 72.4814 52.7435 73.2224 51.663L74.5695 49.699H80.254C83.381 49.699 85.939 49.6215 85.939 49.5262C85.939 48.8077 92.2988 31.0139 92.7552 30.4562C93.0759 30.0644 94.0296 29.8146 94.8743 29.9015C96.3149 30.0492 96.7136 30.6714 101.267 39.8791L106.122 49.699H112.491H118.859L119.504 45.4951C121.305 33.7504 117.336 21.6669 108.786 12.862C105.04 9.00421 100.688 6.52121 95.1681 5.093C91.2589 4.08168 90.3986 4.03035 86.1971 4.55879C80.0671 5.33025 74.5355 8.04631 69.4427 12.7866C67.4378 14.6532 65.5634 16.1804 65.2779 16.1804C64.9923 16.1804 63.0225 14.5474 60.9003 12.5514C58.7456 10.5256 55.6124 8.21076 53.8052 7.311C48.8601 4.84737 42.5122 3.7224 37.9188 4.49437ZM50.6374 41.1094C48.1899 45.9774 45.7244 50.7271 45.1584 51.663L44.1299 53.3651H28.9762C20.6418 53.3651 13.684 53.5055 13.5147 53.6773C13.3453 53.8491 13.8204 55.4402 14.5701 57.2125C20.5969 71.4616 35.1 88.388 53.9838 103.211C62.1886 109.651 61.6676 109.45 60.8332 105.855C59.8186 101.482 59.9471 93.6352 61.1058 89.2406C62.3993 84.3338 63.4108 82.0493 66.1412 77.8684C75.0136 64.2833 92.5374 58.4804 107.568 64.1498C109.446 64.8584 111.214 65.4905 111.498 65.5555C112.13 65.699 117.436 55.226 117.436 53.8365C117.436 52.9137 116.978 52.8409 111.111 52.8336C107.632 52.8288 104.523 52.6524 104.203 52.4408C103.883 52.2292 101.645 48.0493 99.2297 43.1524L94.8392 34.249L94.09 36.0821C93.6785 37.0903 92.3344 40.9789 91.1035 44.7236C89.873 48.4683 88.6436 51.827 88.372 52.1868C88.0286 52.6419 86.1099 52.8414 82.0757 52.8414H76.274L72.753 58.6339C70.8167 61.8197 68.8242 64.6479 68.3254 64.9186C67.776 65.2166 66.9343 65.2245 66.1918 64.938C65.1059 64.5195 64.4435 62.7059 60.4046 49.0952C57.8962 40.6417 55.6738 33.3948 55.4658 32.9915C55.2179 32.5102 53.5563 35.3043 50.6374 41.1094ZM89.2121 65.9252C82.9891 67.2649 75.5738 71.5496 71.6666 76.0641C67.4037 80.9898 64.3288 87.8276 63.4991 94.2271L63.1918 96.5948L67.0732 96.3958C70.3995 96.2256 71.0036 96.3277 71.3 97.1107C71.9233 98.7589 70.779 99.7047 67.9582 99.8728C66.5052 99.9598 64.8442 99.7749 64.2679 99.4617C62.9533 98.7479 62.9357 99.1491 64.0417 104.582C65.7472 112.958 71.6455 121.549 78.6575 125.869C82.0297 127.947 88.1081 130.087 92.036 130.578C94.6508 130.905 94.7514 130.874 94.2305 129.886C93.5793 128.653 93.5174 124.099 94.1375 123.107C94.3786 122.721 95.1299 122.485 95.8079 122.583C96.9392 122.745 97.0533 123.032 97.1953 126.078C97.2934 128.177 97.1132 129.687 96.7058 130.185C96.142 130.874 96.3795 130.929 98.6163 130.627C109.096 129.213 118.23 123.272 123.258 114.6C133.505 96.9295 125.15 73.9734 105.977 67.1204C103.036 66.0698 101.007 65.7377 96.7822 65.6173C93.8003 65.5324 90.3935 65.6712 89.2121 65.9252ZM94.0084 66.7349C93.5339 67.9887 93.6273 73.413 94.1375 74.229C94.3786 74.6144 95.1299 74.8501 95.8079 74.7527C96.9898 74.5835 97.0404 74.4039 97.0404 70.3864C97.0404 66.2547 97.0218 66.1944 95.6865 66.0373C94.8041 65.9336 94.2196 66.1766 94.0084 66.7349ZM94.3038 78.0852C93.8881 78.5068 93.6842 80.8604 93.6842 85.2309V91.7482L91.8403 93.3749C88.4742 96.3445 88.9864 101.458 92.8358 103.311C95.0483 104.375 96.4068 104.391 98.3483 103.372C101.99 101.462 102.404 96.2523 99.1425 93.3749L97.2986 91.7482V85.2309C97.2986 78.8451 96.9759 77.4567 95.4914 77.4567C95.179 77.4567 94.6446 77.7395 94.3038 78.0852ZM94.1132 95.9182C92.8771 96.9284 92.6546 98.177 93.4941 99.3931C94.4344 100.755 96.332 100.826 97.4767 99.5429C98.5936 98.2912 98.5548 97.5852 97.2986 96.311C96.1063 95.1017 95.2425 94.9954 94.1132 95.9182ZM118.592 96.9195C117.751 97.7727 117.785 98.1608 118.789 99.18C119.411 99.8105 120.463 100.001 122.89 99.921C126.762 99.7938 127.394 99.4837 127.163 97.823C126.999 96.6477 126.756 96.5639 123.11 96.422C120.536 96.322 119.016 96.4896 118.592 96.9195Z" fill="#6147C6"/>
<path fill-rule="evenodd" clip-rule="evenodd" d="M34.3043 1.81445C25.8089 4.06754 17.0558 11.294 12.781 19.5846C9.39217 26.1564 7.902 32.0321 7.79873 39.2244C7.75123 42.537 7.89942 46.3561 8.12816 47.7115L8.5433 50.1756L4.77191 50.3301C1.13322 50.4794 1 50.5307 1 51.794C1 53.0671 1.12082 53.1106 5.38378 53.3651C9.2507 53.5961 9.7908 53.7506 9.96171 54.6745C10.3851 56.9611 14.8778 65.8687 17.9981 70.6095C26.3123 83.2392 40.0678 97.1201 56.5072 109.469C58.6372 111.069 61.0351 112.807 61.8359 113.332C62.6368 113.857 64.8684 116.442 66.7949 119.075C70.5105 124.156 74.6263 127.734 79.8084 130.387C89.02 135.104 101.1 135.21 110.549 130.659C123.302 124.516 130.991 112.194 131 97.8822C131.006 88.277 127.713 80.0712 121.133 73.2931C118.957 71.0525 116.632 68.855 115.966 68.4088L114.753 67.5975L116.662 64.1362C117.711 62.2329 119.214 58.9717 120.002 56.8893L121.433 53.1033L124.986 52.9456C128.916 52.7712 129.578 52.423 129.07 50.7994C128.772 49.8478 128.321 49.699 125.728 49.699H122.73L122.995 42.6648C123.221 36.6503 123.096 34.911 122.129 30.6672C118.102 12.9929 104.752 1.03148 89.0164 1.00005C81.6755 0.985388 74.0645 4.01988 68.3987 9.22051L65.2717 12.0905L62.1313 9.14143C58.6051 5.83041 53.5687 3.04103 48.9009 1.81445C45.0588 0.804178 38.1124 0.804178 34.3043 1.81445ZM37.9188 4.49437C26.6077 6.39499 17.0109 15.3754 12.8378 27.9643C11.1705 32.9931 10.5509 42.304 11.5572 47.2113L12.1748 50.2228L27.2412 50.2165L42.3077 50.2097L47.7293 39.3941C50.7112 33.4451 53.6178 28.2722 54.1883 27.8983C55.0207 27.3531 55.4802 27.3468 56.5083 27.8668C57.6225 28.4304 58.237 30.0215 61.2018 40.0237C63.0782 46.3535 65.2479 53.6328 66.024 56.2001L67.4352 60.8681L69.6549 57.2476C70.8761 55.2563 72.4814 52.7435 73.2224 51.663L74.5695 49.699H80.254C83.381 49.699 85.939 49.6215 85.939 49.5262C85.939 48.8077 92.2988 31.0139 92.7552 30.4562C93.0759 30.0644 94.0296 29.8146 94.8743 29.9015C96.3149 30.0492 96.7136 30.6714 101.267 39.8791L106.122 49.699H112.491H118.859L119.504 45.4951C121.305 33.7504 117.336 21.6669 108.786 12.862C105.04 9.00421 100.688 6.52121 95.1681 5.093C91.2589 4.08168 90.3986 4.03035 86.1971 4.55879C80.0671 5.33025 74.5355 8.04631 69.4427 12.7866C67.4378 14.6532 65.5634 16.1804 65.2779 16.1804C64.9923 16.1804 63.0225 14.5474 60.9003 12.5514C58.7456 10.5256 55.6124 8.21076 53.8052 7.311C48.8601 4.84737 42.5122 3.7224 37.9188 4.49437ZM50.6374 41.1094C48.1899 45.9774 45.7244 50.7271 45.1584 51.663L44.1299 53.3651H28.9762C20.6418 53.3651 13.684 53.5055 13.5147 53.6773C13.3453 53.8491 13.8204 55.4402 14.5701 57.2125C20.5969 71.4616 35.1 88.388 53.9838 103.211C62.1886 109.651 61.6676 109.45 60.8332 105.855C59.8186 101.482 59.9471 93.6352 61.1058 89.2406C62.3993 84.3338 63.4108 82.0493 66.1412 77.8684C75.0136 64.2833 92.5374 58.4804 107.568 64.1498C109.446 64.8584 111.214 65.4905 111.498 65.5555C112.13 65.699 117.436 55.226 117.436 53.8365C117.436 52.9137 116.978 52.8409 111.111 52.8336C107.632 52.8288 104.523 52.6524 104.203 52.4408C103.883 52.2292 101.645 48.0493 99.2297 43.1524L94.8392 34.249L94.09 36.0821C93.6785 37.0903 92.3344 40.9789 91.1035 44.7236C89.873 48.4683 88.6436 51.827 88.372 52.1868C88.0286 52.6419 86.1099 52.8414 82.0757 52.8414H76.274L72.753 58.6339C70.8167 61.8197 68.8242 64.6479 68.3254 64.9186C67.776 65.2166 66.9343 65.2245 66.1918 64.938C65.1059 64.5195 64.4435 62.7059 60.4046 49.0952C57.8962 40.6417 55.6738 33.3948 55.4658 32.9915C55.2179 32.5102 53.5563 35.3043 50.6374 41.1094ZM89.2121 65.9252C82.9891 67.2649 75.5738 71.5496 71.6666 76.0641C67.4037 80.9898 64.3288 87.8276 63.4991 94.2271L63.1918 96.5948L67.0732 96.3958C70.3995 96.2256 71.0036 96.3277 71.3 97.1107C71.9233 98.7589 70.779 99.7047 67.9582 99.8728C66.5052 99.9598 64.8442 99.7749 64.2679 99.4617C62.9533 98.7479 62.9357 99.1491 64.0417 104.582C65.7472 112.958 71.6455 121.549 78.6575 125.869C82.0297 127.947 88.1081 130.087 92.036 130.578C94.6508 130.905 94.7514 130.874 94.2305 129.886C93.5793 128.653 93.5174 124.099 94.1375 123.107C94.3786 122.721 95.1299 122.485 95.8079 122.583C96.9392 122.745 97.0533 123.032 97.1953 126.078C97.2934 128.177 97.1132 129.687 96.7058 130.185C96.142 130.874 96.3795 130.929 98.6163 130.627C109.096 129.213 118.23 123.272 123.258 114.6C133.505 96.9295 125.15 73.9734 105.977 67.1204C103.036 66.0698 101.007 65.7377 96.7822 65.6173C93.8003 65.5324 90.3935 65.6712 89.2121 65.9252ZM94.0084 66.7349C93.5339 67.9887 93.6273 73.413 94.1375 74.229C94.3786 74.6144 95.1299 74.8501 95.8079 74.7527C96.9898 74.5835 97.0404 74.4039 97.0404 70.3864C97.0404 66.2547 97.0218 66.1944 95.6865 66.0373C94.8041 65.9336 94.2196 66.1766 94.0084 66.7349ZM94.3038 78.0852C93.8881 78.5068 93.6842 80.8604 93.6842 85.2309V91.7482L91.8403 93.3749C88.4742 96.3445 88.9864 101.458 92.8358 103.311C95.0483 104.375 96.4068 104.391 98.3483 103.372C101.99 101.462 102.404 96.2523 99.1425 93.3749L97.2986 91.7482V85.2309C97.2986 78.8451 96.9759 77.4567 95.4914 77.4567C95.179 77.4567 94.6446 77.7395 94.3038 78.0852ZM94.1132 95.9182C92.8771 96.9284 92.6546 98.177 93.4941 99.3931C94.4344 100.755 96.332 100.826 97.4767 99.5429C98.5936 98.2912 98.5548 97.5852 97.2986 96.311C96.1063 95.1017 95.2425 94.9954 94.1132 95.9182ZM118.592 96.9195C117.751 97.7727 117.785 98.1608 118.789 99.18C119.411 99.8105 120.463 100.001 122.89 99.921C126.762 99.7938 127.394 99.4837 127.163 97.823C126.999 96.6477 126.756 96.5639 123.11 96.422C120.536 96.322 119.016 96.4896 118.592 96.9195Z" stroke="#6147C6" stroke-width="2" mask="url(#path-1-outside-1_698_1511)"/>
</g>
</svg>
