<svg width="33" height="33" viewBox="0 0 33 33" fill="none" xmlns="http://www.w3.org/2000/svg">
<path d="M3.55566 6.00293C3.68656 5.99197 3.81831 5.99993 3.94629 6.02734L4.07324 6.06152C4.19827 6.10152 4.31617 6.1601 4.42383 6.23438L4.52832 6.31348C4.66201 6.42662 4.77234 6.56501 4.85254 6.7207C4.91275 6.83763 4.95497 6.96289 4.97852 7.0918L4.99609 7.22168L6.55273 26.0098C6.63367 26.9864 7.05604 27.9008 7.74219 28.5947L7.88281 28.7314C8.60381 29.3951 9.53405 29.7823 10.5088 29.8281L10.7041 29.832H22.2949C23.275 29.8319 24.2215 29.4869 24.9697 28.8604L25.1162 28.7314C25.8372 28.0676 26.2997 27.1719 26.4258 26.2041L26.4473 26.0098L28.0049 7.22656C28.0335 6.92039 28.1665 6.63473 28.3799 6.41699L28.4766 6.32812C28.712 6.13101 29.0071 6.02232 29.3115 6.01758L29.4434 6.02148C29.7496 6.04707 30.0361 6.17766 30.2559 6.38867L30.3457 6.48438C30.5729 6.75027 30.6865 7.09455 30.6621 7.44336L29.1045 26.2295C28.9719 27.8312 28.2794 29.3316 27.1543 30.4697L26.9229 30.6924C25.662 31.8535 24.0109 32.4983 22.2969 32.499H10.7061L10.3857 32.4912C8.89314 32.4214 7.46403 31.8645 6.31836 30.9053L6.07715 30.6934C4.89435 29.6046 4.13554 28.1362 3.92871 26.5488L3.89551 26.2295L2.33691 7.44336V7.44238L2.33203 7.31152C2.33334 7.2242 2.34301 7.13715 2.36133 7.05176L2.39551 6.92578C2.43555 6.80053 2.49393 6.68204 2.56836 6.57422L2.64746 6.46973C2.73227 6.36955 2.83158 6.28293 2.94141 6.21191L3.05469 6.14648C3.17164 6.08626 3.29684 6.04308 3.42578 6.01953L3.55566 6.00293Z" fill="white" stroke="#FD3D36"/>
<path d="M13.6406 0.5H19.3555C20.3392 0.499983 21.2995 0.790246 22.1172 1.33203L22.2793 1.44336C23.0774 2.01855 23.6867 2.81579 24.0332 3.7334L24.0986 3.91797V3.91895L25.0977 6.91211C25.1391 7.0366 25.1624 7.1662 25.166 7.29688L25.1631 7.42871C25.1537 7.55968 25.1249 7.68836 25.0781 7.81055L25.0254 7.93066C24.9666 8.04809 24.8908 8.156 24.8008 8.25098L24.7061 8.34082C24.6067 8.42689 24.4956 8.49841 24.376 8.55176L24.2539 8.59863C24.1292 8.64017 23.9991 8.66349 23.8682 8.66699L23.7373 8.66406C23.6063 8.6547 23.4777 8.62589 23.3555 8.5791L23.2354 8.52637C22.9587 8.3879 22.7405 8.15787 22.6152 7.87793L22.5674 7.75488L21.5693 4.7627C21.4341 4.35681 21.1905 3.99711 20.8662 3.72168L20.7217 3.6084C20.3749 3.35799 19.967 3.20793 19.543 3.17383L19.3604 3.16699H13.6406C13.1513 3.16736 12.6742 3.32116 12.2773 3.60742C11.9299 3.8581 11.659 4.19929 11.4932 4.5918L11.4287 4.7627L10.4316 7.75488C10.3199 8.0905 10.079 8.36807 9.7627 8.52637C9.48574 8.66494 9.1705 8.70165 8.87109 8.63379L8.74414 8.59863C8.45058 8.5008 8.20177 8.30436 8.03809 8.04492L7.97266 7.93066C7.83413 7.65382 7.79749 7.33837 7.86523 7.03906L7.90039 6.91211L8.89746 3.91797C9.20869 2.98483 9.78798 2.16574 10.5605 1.56152L10.7178 1.44336C11.5158 0.868354 12.4644 0.542438 13.4443 0.503906L13.6406 0.5Z" fill="white" stroke="#FD3D36"/>
<path d="M12.833 11.498C13.1425 11.498 13.4414 11.6053 13.6787 11.7998L13.7764 11.8887C14.0262 12.1386 14.1669 12.4776 14.167 12.8311V23.8311C14.167 24.1847 14.0264 24.5244 13.7764 24.7744C13.5263 25.0245 13.1866 25.165 12.833 25.165C12.4796 25.165 12.1406 25.0243 11.8906 24.7744C11.6406 24.5244 11.5 24.1847 11.5 23.8311V12.8311C11.5001 12.5218 11.6075 12.2235 11.8018 11.9863L11.8906 11.8887C12.1406 11.6387 12.4795 11.4981 12.833 11.498ZM20.167 11.498C20.4763 11.4981 20.7746 11.6055 21.0117 11.7998L21.1094 11.8887C21.3593 12.1386 21.4999 12.4776 21.5 12.8311V20.165C21.4999 20.4743 21.3925 20.7726 21.1982 21.0098L21.1094 21.1074C20.8594 21.3574 20.5205 21.498 20.167 21.498C19.8575 21.498 19.5586 21.3908 19.3213 21.1963L19.2236 21.1074C18.9738 20.8575 18.8331 20.5185 18.833 20.165V12.8311C18.8331 12.5216 18.9413 12.2235 19.1357 11.9863L19.2236 11.8887C19.4737 11.6386 19.8134 11.498 20.167 11.498ZM1.83301 5.99805H31.167C31.4763 5.99812 31.7746 6.10551 32.0117 6.2998L32.1094 6.38867C32.3593 6.63864 32.4999 6.97755 32.5 7.33105C32.5 7.64053 32.3927 7.93948 32.1982 8.17676L32.1094 8.27441C31.8594 8.52429 31.5204 8.66495 31.167 8.66504H1.83301C1.52359 8.66496 1.2255 8.55677 0.988281 8.3623L0.890625 8.27441C0.640576 8.02436 0.5 7.68468 0.5 7.33105L0.506836 7.19922C0.532877 6.93777 0.635249 6.68958 0.801758 6.48633L0.890625 6.38867C1.10932 6.16998 1.39609 6.03527 1.70117 6.00488L1.83301 5.99805Z" fill="white" stroke="#FD3D36"/>
</svg>
