<svg width="27" height="27" viewBox="0 0 27 27" fill="none" xmlns="http://www.w3.org/2000/svg">
<mask id="path-1-outside-1_704_2035" maskUnits="userSpaceOnUse" x="0" y="0" width="27" height="27" fill="black">
<rect fill="white" width="27" height="27"/>
<path fill-rule="evenodd" clip-rule="evenodd" d="M7.40468 1.15309C5.77094 1.5766 4.08765 2.93495 3.26557 4.49334C2.61388 5.72864 2.32731 6.8331 2.30745 8.18505C2.29831 8.80771 2.32681 9.52558 2.3708 9.78035L2.45064 10.2435L1.72537 10.2726C1.02562 10.3006 1 10.3103 1 10.5477C1 10.7871 1.02324 10.7952 1.84303 10.8431C2.58667 10.8865 2.69054 10.9155 2.72341 11.0892C2.80483 11.519 3.66881 13.1934 4.26887 14.0845C5.86775 16.4585 8.51304 19.0677 11.6745 21.3889C12.0841 21.6897 12.5452 22.0164 12.6992 22.1151C12.8532 22.2137 13.2824 22.6995 13.6529 23.1946C14.3674 24.1496 15.1589 24.8221 16.1555 25.3208C17.9269 26.2074 20.2501 26.2275 22.067 25.372C24.5197 24.2173 25.9982 21.9011 26 19.2109C26.0012 17.4054 25.3679 15.863 24.1024 14.5889C23.6841 14.1678 23.2369 13.7547 23.1088 13.6708L22.8756 13.5183L23.2426 12.8677C23.4445 12.5099 23.7335 11.8969 23.885 11.5055L24.1602 10.7938L24.8434 10.7642C25.5992 10.7314 25.7266 10.666 25.6289 10.3608C25.5716 10.1819 25.4847 10.154 24.9862 10.154H24.4096L24.4606 8.83173C24.5041 7.70119 24.48 7.37425 24.2941 6.57655C23.5196 3.25431 20.9522 1.00592 17.9262 1.00001C16.5145 0.997253 15.0509 1.56765 13.9613 2.54521L13.3599 3.08469L12.756 2.53034C12.0779 1.90797 11.1094 1.38365 10.2117 1.15309C9.47285 0.963191 8.137 0.963191 7.40468 1.15309ZM8.09976 1.65684C5.92455 2.0141 4.07901 3.70214 3.27649 6.06847C2.95586 7.01374 2.8367 8.76391 3.03023 9.68634L3.14899 10.2524L6.04639 10.2512L8.94379 10.2499L9.98641 8.21694C10.5599 7.0987 11.1188 6.12636 11.2285 6.05607C11.3886 5.95358 11.477 5.9524 11.6747 6.05016C11.8889 6.15609 12.0071 6.45516 12.5773 8.33527C12.9381 9.52509 13.3554 10.8934 13.5046 11.376L13.776 12.2534L14.2029 11.5728C14.4377 11.1986 14.7464 10.7262 14.8889 10.5231L15.148 10.154H16.2412C16.8425 10.154 17.3344 10.1394 17.3344 10.1215C17.3344 9.9864 18.5575 6.64172 18.6452 6.53687C18.7069 6.46324 18.8903 6.41628 19.0528 6.43262C19.3298 6.46038 19.4065 6.57734 20.2821 8.3081L21.2158 10.154H22.4405H23.6652L23.7891 9.36373C24.1356 7.1561 23.3724 4.88476 21.7281 3.2297C21.0077 2.50455 20.1707 2.03782 19.1093 1.76936C18.3575 1.57926 18.192 1.56961 17.3841 1.66895C16.2052 1.81396 15.1414 2.32449 14.1621 3.21552C13.7765 3.56638 13.416 3.85345 13.3611 3.85345C13.3062 3.85345 12.9274 3.5465 12.5193 3.17132C12.1049 2.79053 11.5024 2.35541 11.1548 2.18628C10.2039 1.72319 8.98311 1.51173 8.09976 1.65684ZM10.5457 8.53935C10.075 9.4544 9.60084 10.3472 9.49201 10.5231L9.29421 10.8431H6.38003C4.77727 10.8431 3.43924 10.8695 3.40667 10.9017C3.3741 10.934 3.46545 11.2331 3.60963 11.5663C4.76863 14.2447 7.5577 17.4263 11.1892 20.2126C12.767 21.4232 12.6668 21.3854 12.5064 20.7096C12.3113 19.8876 12.336 18.4126 12.5588 17.5866C12.8075 16.6642 13.0021 16.2348 13.5272 15.4489C15.2334 12.8954 18.6033 11.8046 21.4938 12.8703C21.8549 13.0035 22.195 13.1223 22.2496 13.1345C22.3711 13.1615 23.3916 11.1928 23.3916 10.9317C23.3916 10.7582 23.3034 10.7445 22.1752 10.7432C21.5061 10.7423 20.9083 10.7091 20.8468 10.6693C20.7851 10.6295 20.3547 9.84385 19.8903 8.92339L19.046 7.24982L18.9019 7.59437C18.8228 7.78388 18.5643 8.51484 18.3276 9.21872C18.091 9.92261 17.8545 10.5539 17.8023 10.6216C17.7363 10.7071 17.3673 10.7446 16.5915 10.7446H15.4758L14.7987 11.8334C14.4263 12.4323 14.0431 12.9639 13.9472 13.0148C13.8415 13.0708 13.6797 13.0723 13.5369 13.0184C13.3281 12.9398 13.2007 12.5988 12.424 10.0404C11.9416 8.45144 11.5142 7.08925 11.4742 7.01345C11.4265 6.92298 11.107 7.44818 10.5457 8.53935ZM17.9639 13.204C16.7671 13.4558 15.3411 14.2612 14.5897 15.1098C13.7699 16.0357 13.1786 17.321 13.0191 18.5239L12.96 18.969L13.7064 18.9315C14.3461 18.8995 14.4622 18.9187 14.5192 19.0659C14.6391 19.3757 14.419 19.5535 13.8766 19.5851C13.5972 19.6015 13.2777 19.5667 13.1669 19.5078C12.9141 19.3737 12.9107 19.4491 13.1234 20.4702C13.4514 22.0448 14.5857 23.6596 15.9341 24.4717C16.5826 24.8622 17.7516 25.2644 18.5069 25.3568C19.0098 25.4183 19.0291 25.4124 18.9289 25.2267C18.8037 24.9949 18.7918 24.1389 18.9111 23.9524C18.9574 23.8799 19.1019 23.8356 19.2323 23.8539C19.4498 23.8843 19.4718 23.9383 19.4991 24.5109C19.518 24.9055 19.4833 25.1892 19.405 25.2828C19.2965 25.4125 19.3422 25.4228 19.7724 25.366C21.7877 25.1001 23.5443 23.9834 24.5112 22.3534C26.4818 19.0319 24.875 14.7168 21.1878 13.4286C20.6224 13.2312 20.2322 13.1687 19.4197 13.1461C18.8462 13.1302 18.1911 13.1562 17.9639 13.204ZM18.8862 13.3562C18.795 13.5919 18.813 14.6115 18.9111 14.7648C18.9574 14.8373 19.1019 14.8816 19.2323 14.8633C19.4596 14.8315 19.4693 14.7977 19.4693 14.0425C19.4693 13.2659 19.4657 13.2546 19.209 13.2251C19.0393 13.2056 18.9268 13.2512 18.8862 13.3562ZM18.943 15.4897C18.8631 15.5689 18.8239 16.0114 18.8239 16.8329V18.0579L18.4693 18.3637C17.822 18.9219 17.9205 19.8831 18.6607 20.2313C19.0862 20.4315 19.3475 20.4343 19.7208 20.2429C20.4212 19.8838 20.5008 18.9046 19.8736 18.3637L19.519 18.0579V16.8329C19.519 15.6325 19.4569 15.3716 19.1714 15.3716C19.1113 15.3716 19.0086 15.4247 18.943 15.4897ZM18.9064 18.8418C18.6687 19.0317 18.6259 19.2664 18.7873 19.4949C18.9682 19.7509 19.3331 19.7643 19.5532 19.5231C19.768 19.2878 19.7605 19.1551 19.519 18.9156C19.2897 18.6883 19.1236 18.6683 18.9064 18.8418ZM23.6138 19.03C23.452 19.1904 23.4586 19.2633 23.6517 19.4549C23.7714 19.5734 23.9737 19.6091 24.4404 19.5942C25.1851 19.5703 25.3066 19.512 25.262 19.1998C25.2305 18.9789 25.1838 18.9631 24.4826 18.9365C23.9876 18.9177 23.6953 18.9492 23.6138 19.03Z"/>
</mask>
<path fill-rule="evenodd" clip-rule="evenodd" d="M7.40468 1.15309C5.77094 1.5766 4.08765 2.93495 3.26557 4.49334C2.61388 5.72864 2.32731 6.8331 2.30745 8.18505C2.29831 8.80771 2.32681 9.52558 2.3708 9.78035L2.45064 10.2435L1.72537 10.2726C1.02562 10.3006 1 10.3103 1 10.5477C1 10.7871 1.02324 10.7952 1.84303 10.8431C2.58667 10.8865 2.69054 10.9155 2.72341 11.0892C2.80483 11.519 3.66881 13.1934 4.26887 14.0845C5.86775 16.4585 8.51304 19.0677 11.6745 21.3889C12.0841 21.6897 12.5452 22.0164 12.6992 22.1151C12.8532 22.2137 13.2824 22.6995 13.6529 23.1946C14.3674 24.1496 15.1589 24.8221 16.1555 25.3208C17.9269 26.2074 20.2501 26.2275 22.067 25.372C24.5197 24.2173 25.9982 21.9011 26 19.2109C26.0012 17.4054 25.3679 15.863 24.1024 14.5889C23.6841 14.1678 23.2369 13.7547 23.1088 13.6708L22.8756 13.5183L23.2426 12.8677C23.4445 12.5099 23.7335 11.8969 23.885 11.5055L24.1602 10.7938L24.8434 10.7642C25.5992 10.7314 25.7266 10.666 25.6289 10.3608C25.5716 10.1819 25.4847 10.154 24.9862 10.154H24.4096L24.4606 8.83173C24.5041 7.70119 24.48 7.37425 24.2941 6.57655C23.5196 3.25431 20.9522 1.00592 17.9262 1.00001C16.5145 0.997253 15.0509 1.56765 13.9613 2.54521L13.3599 3.08469L12.756 2.53034C12.0779 1.90797 11.1094 1.38365 10.2117 1.15309C9.47285 0.963191 8.137 0.963191 7.40468 1.15309ZM8.09976 1.65684C5.92455 2.0141 4.07901 3.70214 3.27649 6.06847C2.95586 7.01374 2.8367 8.76391 3.03023 9.68634L3.14899 10.2524L6.04639 10.2512L8.94379 10.2499L9.98641 8.21694C10.5599 7.0987 11.1188 6.12636 11.2285 6.05607C11.3886 5.95358 11.477 5.9524 11.6747 6.05016C11.8889 6.15609 12.0071 6.45516 12.5773 8.33527C12.9381 9.52509 13.3554 10.8934 13.5046 11.376L13.776 12.2534L14.2029 11.5728C14.4377 11.1986 14.7464 10.7262 14.8889 10.5231L15.148 10.154H16.2412C16.8425 10.154 17.3344 10.1394 17.3344 10.1215C17.3344 9.9864 18.5575 6.64172 18.6452 6.53687C18.7069 6.46324 18.8903 6.41628 19.0528 6.43262C19.3298 6.46038 19.4065 6.57734 20.2821 8.3081L21.2158 10.154H22.4405H23.6652L23.7891 9.36373C24.1356 7.1561 23.3724 4.88476 21.7281 3.2297C21.0077 2.50455 20.1707 2.03782 19.1093 1.76936C18.3575 1.57926 18.192 1.56961 17.3841 1.66895C16.2052 1.81396 15.1414 2.32449 14.1621 3.21552C13.7765 3.56638 13.416 3.85345 13.3611 3.85345C13.3062 3.85345 12.9274 3.5465 12.5193 3.17132C12.1049 2.79053 11.5024 2.35541 11.1548 2.18628C10.2039 1.72319 8.98311 1.51173 8.09976 1.65684ZM10.5457 8.53935C10.075 9.4544 9.60084 10.3472 9.49201 10.5231L9.29421 10.8431H6.38003C4.77727 10.8431 3.43924 10.8695 3.40667 10.9017C3.3741 10.934 3.46545 11.2331 3.60963 11.5663C4.76863 14.2447 7.5577 17.4263 11.1892 20.2126C12.767 21.4232 12.6668 21.3854 12.5064 20.7096C12.3113 19.8876 12.336 18.4126 12.5588 17.5866C12.8075 16.6642 13.0021 16.2348 13.5272 15.4489C15.2334 12.8954 18.6033 11.8046 21.4938 12.8703C21.8549 13.0035 22.195 13.1223 22.2496 13.1345C22.3711 13.1615 23.3916 11.1928 23.3916 10.9317C23.3916 10.7582 23.3034 10.7445 22.1752 10.7432C21.5061 10.7423 20.9083 10.7091 20.8468 10.6693C20.7851 10.6295 20.3547 9.84385 19.8903 8.92339L19.046 7.24982L18.9019 7.59437C18.8228 7.78388 18.5643 8.51484 18.3276 9.21872C18.091 9.92261 17.8545 10.5539 17.8023 10.6216C17.7363 10.7071 17.3673 10.7446 16.5915 10.7446H15.4758L14.7987 11.8334C14.4263 12.4323 14.0431 12.9639 13.9472 13.0148C13.8415 13.0708 13.6797 13.0723 13.5369 13.0184C13.3281 12.9398 13.2007 12.5988 12.424 10.0404C11.9416 8.45144 11.5142 7.08925 11.4742 7.01345C11.4265 6.92298 11.107 7.44818 10.5457 8.53935ZM17.9639 13.204C16.7671 13.4558 15.3411 14.2612 14.5897 15.1098C13.7699 16.0357 13.1786 17.321 13.0191 18.5239L12.96 18.969L13.7064 18.9315C14.3461 18.8995 14.4622 18.9187 14.5192 19.0659C14.6391 19.3757 14.419 19.5535 13.8766 19.5851C13.5972 19.6015 13.2777 19.5667 13.1669 19.5078C12.9141 19.3737 12.9107 19.4491 13.1234 20.4702C13.4514 22.0448 14.5857 23.6596 15.9341 24.4717C16.5826 24.8622 17.7516 25.2644 18.5069 25.3568C19.0098 25.4183 19.0291 25.4124 18.9289 25.2267C18.8037 24.9949 18.7918 24.1389 18.9111 23.9524C18.9574 23.8799 19.1019 23.8356 19.2323 23.8539C19.4498 23.8843 19.4718 23.9383 19.4991 24.5109C19.518 24.9055 19.4833 25.1892 19.405 25.2828C19.2965 25.4125 19.3422 25.4228 19.7724 25.366C21.7877 25.1001 23.5443 23.9834 24.5112 22.3534C26.4818 19.0319 24.875 14.7168 21.1878 13.4286C20.6224 13.2312 20.2322 13.1687 19.4197 13.1461C18.8462 13.1302 18.1911 13.1562 17.9639 13.204ZM18.8862 13.3562C18.795 13.5919 18.813 14.6115 18.9111 14.7648C18.9574 14.8373 19.1019 14.8816 19.2323 14.8633C19.4596 14.8315 19.4693 14.7977 19.4693 14.0425C19.4693 13.2659 19.4657 13.2546 19.209 13.2251C19.0393 13.2056 18.9268 13.2512 18.8862 13.3562ZM18.943 15.4897C18.8631 15.5689 18.8239 16.0114 18.8239 16.8329V18.0579L18.4693 18.3637C17.822 18.9219 17.9205 19.8831 18.6607 20.2313C19.0862 20.4315 19.3475 20.4343 19.7208 20.2429C20.4212 19.8838 20.5008 18.9046 19.8736 18.3637L19.519 18.0579V16.8329C19.519 15.6325 19.4569 15.3716 19.1714 15.3716C19.1113 15.3716 19.0086 15.4247 18.943 15.4897ZM18.9064 18.8418C18.6687 19.0317 18.6259 19.2664 18.7873 19.4949C18.9682 19.7509 19.3331 19.7643 19.5532 19.5231C19.768 19.2878 19.7605 19.1551 19.519 18.9156C19.2897 18.6883 19.1236 18.6683 18.9064 18.8418ZM23.6138 19.03C23.452 19.1904 23.4586 19.2633 23.6517 19.4549C23.7714 19.5734 23.9737 19.6091 24.4404 19.5942C25.1851 19.5703 25.3066 19.512 25.262 19.1998C25.2305 18.9789 25.1838 18.9631 24.4826 18.9365C23.9876 18.9177 23.6953 18.9492 23.6138 19.03Z" fill="#6147C6"/>
<path fill-rule="evenodd" clip-rule="evenodd" d="M7.40468 1.15309C5.77094 1.5766 4.08765 2.93495 3.26557 4.49334C2.61388 5.72864 2.32731 6.8331 2.30745 8.18505C2.29831 8.80771 2.32681 9.52558 2.3708 9.78035L2.45064 10.2435L1.72537 10.2726C1.02562 10.3006 1 10.3103 1 10.5477C1 10.7871 1.02324 10.7952 1.84303 10.8431C2.58667 10.8865 2.69054 10.9155 2.72341 11.0892C2.80483 11.519 3.66881 13.1934 4.26887 14.0845C5.86775 16.4585 8.51304 19.0677 11.6745 21.3889C12.0841 21.6897 12.5452 22.0164 12.6992 22.1151C12.8532 22.2137 13.2824 22.6995 13.6529 23.1946C14.3674 24.1496 15.1589 24.8221 16.1555 25.3208C17.9269 26.2074 20.2501 26.2275 22.067 25.372C24.5197 24.2173 25.9982 21.9011 26 19.2109C26.0012 17.4054 25.3679 15.863 24.1024 14.5889C23.6841 14.1678 23.2369 13.7547 23.1088 13.6708L22.8756 13.5183L23.2426 12.8677C23.4445 12.5099 23.7335 11.8969 23.885 11.5055L24.1602 10.7938L24.8434 10.7642C25.5992 10.7314 25.7266 10.666 25.6289 10.3608C25.5716 10.1819 25.4847 10.154 24.9862 10.154H24.4096L24.4606 8.83173C24.5041 7.70119 24.48 7.37425 24.2941 6.57655C23.5196 3.25431 20.9522 1.00592 17.9262 1.00001C16.5145 0.997253 15.0509 1.56765 13.9613 2.54521L13.3599 3.08469L12.756 2.53034C12.0779 1.90797 11.1094 1.38365 10.2117 1.15309C9.47285 0.963191 8.137 0.963191 7.40468 1.15309ZM8.09976 1.65684C5.92455 2.0141 4.07901 3.70214 3.27649 6.06847C2.95586 7.01374 2.8367 8.76391 3.03023 9.68634L3.14899 10.2524L6.04639 10.2512L8.94379 10.2499L9.98641 8.21694C10.5599 7.0987 11.1188 6.12636 11.2285 6.05607C11.3886 5.95358 11.477 5.9524 11.6747 6.05016C11.8889 6.15609 12.0071 6.45516 12.5773 8.33527C12.9381 9.52509 13.3554 10.8934 13.5046 11.376L13.776 12.2534L14.2029 11.5728C14.4377 11.1986 14.7464 10.7262 14.8889 10.5231L15.148 10.154H16.2412C16.8425 10.154 17.3344 10.1394 17.3344 10.1215C17.3344 9.9864 18.5575 6.64172 18.6452 6.53687C18.7069 6.46324 18.8903 6.41628 19.0528 6.43262C19.3298 6.46038 19.4065 6.57734 20.2821 8.3081L21.2158 10.154H22.4405H23.6652L23.7891 9.36373C24.1356 7.1561 23.3724 4.88476 21.7281 3.2297C21.0077 2.50455 20.1707 2.03782 19.1093 1.76936C18.3575 1.57926 18.192 1.56961 17.3841 1.66895C16.2052 1.81396 15.1414 2.32449 14.1621 3.21552C13.7765 3.56638 13.416 3.85345 13.3611 3.85345C13.3062 3.85345 12.9274 3.5465 12.5193 3.17132C12.1049 2.79053 11.5024 2.35541 11.1548 2.18628C10.2039 1.72319 8.98311 1.51173 8.09976 1.65684ZM10.5457 8.53935C10.075 9.4544 9.60084 10.3472 9.49201 10.5231L9.29421 10.8431H6.38003C4.77727 10.8431 3.43924 10.8695 3.40667 10.9017C3.3741 10.934 3.46545 11.2331 3.60963 11.5663C4.76863 14.2447 7.5577 17.4263 11.1892 20.2126C12.767 21.4232 12.6668 21.3854 12.5064 20.7096C12.3113 19.8876 12.336 18.4126 12.5588 17.5866C12.8075 16.6642 13.0021 16.2348 13.5272 15.4489C15.2334 12.8954 18.6033 11.8046 21.4938 12.8703C21.8549 13.0035 22.195 13.1223 22.2496 13.1345C22.3711 13.1615 23.3916 11.1928 23.3916 10.9317C23.3916 10.7582 23.3034 10.7445 22.1752 10.7432C21.5061 10.7423 20.9083 10.7091 20.8468 10.6693C20.7851 10.6295 20.3547 9.84385 19.8903 8.92339L19.046 7.24982L18.9019 7.59437C18.8228 7.78388 18.5643 8.51484 18.3276 9.21872C18.091 9.92261 17.8545 10.5539 17.8023 10.6216C17.7363 10.7071 17.3673 10.7446 16.5915 10.7446H15.4758L14.7987 11.8334C14.4263 12.4323 14.0431 12.9639 13.9472 13.0148C13.8415 13.0708 13.6797 13.0723 13.5369 13.0184C13.3281 12.9398 13.2007 12.5988 12.424 10.0404C11.9416 8.45144 11.5142 7.08925 11.4742 7.01345C11.4265 6.92298 11.107 7.44818 10.5457 8.53935ZM17.9639 13.204C16.7671 13.4558 15.3411 14.2612 14.5897 15.1098C13.7699 16.0357 13.1786 17.321 13.0191 18.5239L12.96 18.969L13.7064 18.9315C14.3461 18.8995 14.4622 18.9187 14.5192 19.0659C14.6391 19.3757 14.419 19.5535 13.8766 19.5851C13.5972 19.6015 13.2777 19.5667 13.1669 19.5078C12.9141 19.3737 12.9107 19.4491 13.1234 20.4702C13.4514 22.0448 14.5857 23.6596 15.9341 24.4717C16.5826 24.8622 17.7516 25.2644 18.5069 25.3568C19.0098 25.4183 19.0291 25.4124 18.9289 25.2267C18.8037 24.9949 18.7918 24.1389 18.9111 23.9524C18.9574 23.8799 19.1019 23.8356 19.2323 23.8539C19.4498 23.8843 19.4718 23.9383 19.4991 24.5109C19.518 24.9055 19.4833 25.1892 19.405 25.2828C19.2965 25.4125 19.3422 25.4228 19.7724 25.366C21.7877 25.1001 23.5443 23.9834 24.5112 22.3534C26.4818 19.0319 24.875 14.7168 21.1878 13.4286C20.6224 13.2312 20.2322 13.1687 19.4197 13.1461C18.8462 13.1302 18.1911 13.1562 17.9639 13.204ZM18.8862 13.3562C18.795 13.5919 18.813 14.6115 18.9111 14.7648C18.9574 14.8373 19.1019 14.8816 19.2323 14.8633C19.4596 14.8315 19.4693 14.7977 19.4693 14.0425C19.4693 13.2659 19.4657 13.2546 19.209 13.2251C19.0393 13.2056 18.9268 13.2512 18.8862 13.3562ZM18.943 15.4897C18.8631 15.5689 18.8239 16.0114 18.8239 16.8329V18.0579L18.4693 18.3637C17.822 18.9219 17.9205 19.8831 18.6607 20.2313C19.0862 20.4315 19.3475 20.4343 19.7208 20.2429C20.4212 19.8838 20.5008 18.9046 19.8736 18.3637L19.519 18.0579V16.8329C19.519 15.6325 19.4569 15.3716 19.1714 15.3716C19.1113 15.3716 19.0086 15.4247 18.943 15.4897ZM18.9064 18.8418C18.6687 19.0317 18.6259 19.2664 18.7873 19.4949C18.9682 19.7509 19.3331 19.7643 19.5532 19.5231C19.768 19.2878 19.7605 19.1551 19.519 18.9156C19.2897 18.6883 19.1236 18.6683 18.9064 18.8418ZM23.6138 19.03C23.452 19.1904 23.4586 19.2633 23.6517 19.4549C23.7714 19.5734 23.9737 19.6091 24.4404 19.5942C25.1851 19.5703 25.3066 19.512 25.262 19.1998C25.2305 18.9789 25.1838 18.9631 24.4826 18.9365C23.9876 18.9177 23.6953 18.9492 23.6138 19.03Z" stroke="#6147C6" stroke-width="0.6" mask="url(#path-1-outside-1_704_2035)"/>
</svg>
