<svg width="20" height="20" viewBox="0 0 20 20" fill="none" xmlns="http://www.w3.org/2000/svg">
<path fill-rule="evenodd" clip-rule="evenodd" d="M12.3121 0.0445092C12.2633 0.0708257 12.1771 0.147242 12.1206 0.214363C10.9475 1.60716 9.87246 2.98758 8.92884 4.31277L8.55938 4.83163L8.43346 4.76783C8.0019 4.54922 7.34212 4.33377 6.84139 4.24798C4.52992 3.85187 2.22604 4.85235 0.946607 6.80785C0.50904 7.4766 0.212144 8.22697 0.074666 9.01145C-0.0345103 9.63456 -0.0230329 10.4913 0.103018 11.1264C0.547653 13.3669 2.27223 15.1551 4.49566 15.6813C4.83875 15.7625 5.30634 15.8249 5.57182 15.8249H5.77124L5.91645 16.0955C6.63242 17.4299 7.82705 18.5704 9.21834 19.248C9.80273 19.5327 10.492 19.77 10.6483 19.7405C10.8554 19.7013 10.9943 19.5397 10.9945 19.3375C10.9947 19.0903 10.8945 18.9926 10.5221 18.8763C9.37381 18.518 8.26345 17.7932 7.50165 16.9046C7.17916 16.5285 6.68251 15.8212 6.71681 15.7869C6.72269 15.781 6.86749 15.7467 7.03862 15.7106C7.20971 15.6745 7.37952 15.6336 7.41591 15.6198C7.46706 15.6003 7.48682 15.603 7.50289 15.6317C7.51431 15.6521 7.59015 15.7581 7.6714 15.8672C8.0471 16.3714 8.49335 16.6864 9.05629 16.8446C9.31163 16.9164 9.90978 16.9352 10.1315 16.8784C10.5966 16.7593 10.9603 16.3605 11.0472 15.8743C11.1419 15.3444 10.8492 14.7838 10.3554 14.5495C10.2541 14.5013 10.1312 14.4538 10.0824 14.4438C9.99948 14.4268 9.91526 14.3899 9.83137 14.3337C9.80337 14.315 9.84799 14.2533 10.0382 14.0479C10.3548 13.7058 10.483 13.5454 10.7036 13.2153C11.2363 12.4184 11.5525 11.5167 11.6526 10.5095C11.7257 9.77313 11.6303 8.94686 11.3854 8.19784C11.2571 7.80555 11.2553 7.8309 11.429 7.60266C11.5296 7.47045 11.7295 7.31523 11.9293 7.21407C12.4106 6.97044 12.6474 6.33501 12.4659 5.77393C12.3371 5.37572 12.0337 5.07309 11.6445 4.9546C11.4152 4.88477 11.0281 4.89797 10.8177 4.98274C10.6163 5.06392 9.97981 5.49154 9.80653 5.66216C9.77669 5.69154 9.75746 5.68376 9.67985 5.61102C9.62953 5.56386 9.52565 5.47546 9.44901 5.41462C9.37236 5.35378 9.30064 5.29656 9.28961 5.28745C9.25746 5.26082 10.3126 3.8084 11.0555 2.85658C11.66 2.08213 12.4919 1.05715 12.5136 1.06014C12.553 1.06556 13.9574 2.8336 14.5542 3.6291C16.1746 5.789 17.2823 7.50517 18.1016 9.12543C18.7043 10.3173 19.0329 11.2118 19.1435 11.9621C19.1932 12.2991 19.1795 13.0528 19.1161 13.4693C18.8082 15.4914 17.5889 17.2784 15.8252 18.2921C15.2505 18.6224 14.6891 18.8426 14.0096 19.0043C13.6904 19.0802 13.5853 19.139 13.5191 19.2783C13.4339 19.4579 13.4956 19.688 13.6607 19.8056C13.8125 19.9138 14.15 19.8651 14.8584 19.6327C15.672 19.3657 16.5414 18.8963 17.2021 18.3673C17.4972 18.1309 18.1399 17.4846 18.3702 17.1926C19.214 16.1225 19.7351 14.9287 19.9425 13.5902C19.9882 13.2951 19.9988 13.1169 19.9999 12.6208C20.0015 11.966 19.9739 11.7418 19.8215 11.1679C19.3034 9.21803 17.8178 6.60963 15.3043 3.23651C14.7291 2.46461 13.8413 1.34121 13.2253 0.605641C13.0226 0.363676 12.8397 0.144709 12.8188 0.119052C12.7211 -0.000879821 12.4658 -0.0384169 12.3121 0.0445092ZM5.44579 5.00959C4.78184 5.06073 4.01824 5.28127 3.49671 5.57255C2.70293 6.01587 2.12168 6.54382 1.66417 7.23699C1.07613 8.12798 0.813462 9.05035 0.84151 10.1259C0.864186 10.9958 1.05269 11.6937 1.46535 12.4356C1.74968 12.9468 2.22718 13.5134 2.68408 13.8819C4.85891 15.6355 8.01776 15.286 9.75827 13.0992C10.4889 12.1812 10.8879 10.9611 10.834 9.8093C10.7975 9.0294 10.6159 8.35683 10.2561 7.66961C9.33352 5.90731 7.43336 4.85655 5.44579 5.00959ZM11.1728 5.74947C11.0837 5.77401 10.5985 6.08593 10.4379 6.22197L10.3499 6.29649L10.4653 6.44451C10.5288 6.52594 10.6402 6.68116 10.7128 6.78946L10.8449 6.98637L11.0147 6.83313C11.1082 6.74883 11.2746 6.62604 11.3846 6.56024C11.6376 6.4089 11.6897 6.3417 11.6888 6.16767C11.688 6.00293 11.6299 5.88885 11.5069 5.81018C11.3915 5.73637 11.2884 5.71765 11.1728 5.74947ZM5.73716 5.83743C5.70929 5.84496 5.54967 5.91669 5.38245 5.99685C5.21523 6.07702 4.49123 6.42379 3.77356 6.76748C2.88166 7.19457 2.44705 7.41574 2.40028 7.46635C2.28183 7.59451 2.27562 7.66728 2.28376 8.83085L2.29136 9.91464L2.36235 10.0076C2.45524 10.1294 2.56771 10.1857 2.71433 10.1839C2.86615 10.1821 2.99874 10.1021 3.06492 9.97239C3.11103 9.88204 3.1148 9.82093 3.1148 9.16443C3.1148 8.77381 3.12337 8.45424 3.13381 8.45427C3.14425 8.45429 3.44925 8.60809 3.81157 8.79605C4.17388 8.98399 4.68412 9.24809 4.94539 9.38294L5.42045 9.62812V11.1308C5.42045 11.9572 5.41635 12.6334 5.41131 12.6334C5.40629 12.6334 5.10699 12.4774 4.74622 12.2867C4.18275 11.9889 4.07421 11.9401 3.97626 11.9403C3.83389 11.9408 3.72066 11.9987 3.63008 12.1174C3.4946 12.2949 3.5566 12.5847 3.75583 12.7053C3.80042 12.7322 4.26059 12.9778 4.77839 13.2511C5.87234 13.8284 5.81036 13.811 6.15221 13.6364C6.78877 13.3114 9.21381 12.0171 9.25543 11.9801C9.37434 11.8743 9.373 11.9002 9.3729 9.70246C9.37282 7.63276 9.37277 7.63096 9.31878 7.54238C9.28906 7.49362 9.24064 7.43674 9.2112 7.41594C9.08489 7.32681 5.95825 5.84321 5.8772 5.83396C5.82805 5.82834 5.76504 5.82991 5.73716 5.83743ZM5.71183 6.76274C5.62355 6.80978 5.266 6.98237 3.94086 7.61768L3.63943 7.76219L4.08021 7.99138C4.32264 8.11742 4.80862 8.37002 5.16014 8.55269C5.51169 8.73534 5.81652 8.8848 5.83755 8.8848C5.8586 8.8848 6.16386 8.73427 6.51592 8.55031C6.86797 8.36632 7.34245 8.11843 7.57031 7.99941C7.79816 7.88039 7.98059 7.77199 7.9757 7.75851C7.96812 7.73764 7.37506 7.44297 6.62395 7.0869C6.09239 6.8349 5.81923 6.70664 5.81634 6.70765C5.81459 6.70828 5.76757 6.73306 5.71183 6.76274ZM14.111 7.10394C13.4918 7.20728 12.9155 7.66961 12.6707 8.25941C12.1593 9.49104 12.9339 10.9687 14.263 11.297C14.5539 11.3688 14.9562 11.3671 15.2377 11.2929C16.018 11.087 16.5845 10.4171 16.6643 9.60621C16.7956 8.27266 15.7371 7.07335 14.4434 7.08991C14.2954 7.09181 14.1458 7.09812 14.111 7.10394ZM14.1029 7.97213C13.2588 8.24176 13.0872 9.40462 13.788 10.1053C14.2364 10.5535 14.8944 10.6456 15.3666 10.3263C15.7826 10.0451 15.9568 9.43785 15.7719 8.91388C15.6085 8.45107 15.2171 8.07456 14.7813 7.96109C14.5808 7.90886 14.2859 7.91368 14.1029 7.97213ZM7.37772 9.04136L6.25657 9.62605V11.1319V12.6378L6.52894 12.4944C6.67876 12.4155 7.1918 12.1438 7.66905 11.8906L8.53678 11.4303L8.53683 9.94228C8.53686 9.12385 8.52834 8.45477 8.51788 8.45543C8.50742 8.45609 7.99435 8.71976 7.37772 9.04136ZM14.1743 8.49773C14.0953 8.51693 13.9628 8.62663 13.9209 8.70755C13.8708 8.80454 13.8726 8.99394 13.9248 9.09503C13.985 9.21187 14.6406 9.8726 14.7373 9.91381C15.0213 10.035 15.356 9.79572 15.317 9.49935C15.2965 9.34343 15.2193 9.24062 14.8413 8.86573C14.4631 8.49056 14.3838 8.44684 14.1743 8.49773ZM2.4788 11.0948C2.35842 11.1745 2.26904 11.3616 2.29052 11.4887C2.35784 11.8871 2.82984 11.9849 3.05719 11.6476C3.17049 11.4795 3.10616 11.2005 2.92891 11.091C2.80767 11.016 2.59492 11.0179 2.4788 11.0948ZM15.3851 12.1788C14.7081 12.2621 14.038 12.5767 13.3987 13.1112C12.6598 13.729 12.1256 14.5753 11.9564 15.3959C11.911 15.6163 11.9037 15.7213 11.9126 16.0275C11.9222 16.356 11.9315 16.4182 12.0008 16.6167C12.1034 16.9109 12.2139 17.0919 12.4147 17.295C12.6143 17.4968 12.8265 17.6258 13.1343 17.7321C13.3548 17.8083 13.3796 17.8113 13.7816 17.8117C14.1554 17.812 14.2268 17.8049 14.4559 17.7441C15.1146 17.5694 15.7255 17.2141 16.2749 16.6865C16.8754 16.1097 17.2906 15.4357 17.4723 14.7426C17.5579 14.4161 17.5814 13.8998 17.5235 13.6199C17.4399 13.2154 17.253 12.8792 16.9693 12.6225C16.7831 12.4541 16.4269 12.2731 16.1759 12.2195C15.9372 12.1684 15.6075 12.1514 15.3851 12.1788ZM15.4594 13.0163C15.24 13.0415 14.8927 13.1536 14.6397 13.281C13.7665 13.7206 13.0248 14.6024 12.8027 15.465C12.7209 15.783 12.7264 16.1834 12.8158 16.4125C12.9245 16.691 13.1826 16.8983 13.5069 16.9679C13.6875 17.0066 14.0763 16.9809 14.3137 16.9145C14.7114 16.8032 15.2338 16.5035 15.6187 16.1657C16.2572 15.6053 16.7213 14.7162 16.7204 14.0549C16.7199 13.6988 16.6347 13.4641 16.4377 13.2757C16.204 13.0521 15.885 12.9675 15.4594 13.0163ZM15.4412 13.7661C15.3474 13.7889 15.2255 13.9022 15.1638 14.0239C14.889 14.5659 14.3996 15.0682 13.8405 15.3819C13.7245 15.447 13.6068 15.5293 13.5789 15.5647C13.3631 15.8389 13.5487 16.2312 13.8968 16.2364C14.0313 16.2385 14.1904 16.163 14.5452 15.9287C15.0194 15.6157 15.5123 15.0903 15.8114 14.5792C16.0123 14.2358 16.0274 14.079 15.876 13.9067C15.757 13.7711 15.6126 13.7245 15.4412 13.7661ZM8.97952 14.9117C8.92337 14.9515 8.74951 15.0548 8.59313 15.1413C8.43678 15.2277 8.30885 15.3081 8.30885 15.3197C8.30885 15.3681 8.5779 15.6592 8.71753 15.762C9.02221 15.9862 9.30621 16.0772 9.70238 16.0777C9.97533 16.078 10.0699 16.0401 10.1586 15.8947C10.3133 15.6412 10.1885 15.3399 9.89907 15.2684C9.73572 15.228 9.45489 15.0852 9.28085 14.9542C9.19531 14.8898 9.1155 14.8376 9.10349 14.8382C9.09145 14.8388 9.03569 14.8719 8.97952 14.9117ZM12.0997 19.1944C11.9318 19.2447 11.7866 19.4772 11.8178 19.6457C11.8596 19.8714 12.0574 20.0223 12.2787 19.9973C12.4098 19.9825 12.5011 19.9238 12.5867 19.7991C12.665 19.6851 12.6555 19.472 12.5667 19.3473C12.4654 19.2051 12.2737 19.1424 12.0997 19.1944Z" fill="#6147C6"/>
</svg>
