<svg width="24" height="26" viewBox="0 0 24 26" fill="none" xmlns="http://www.w3.org/2000/svg">
<path fill-rule="evenodd" clip-rule="evenodd" d="M9.66504 1.01185C9.58407 1.03654 9.49937 1.08257 9.44206 1.13304C9.19323 1.3522 6.39543 4.76377 5.38322 6.0823C3.84365 8.08781 2.88713 9.50521 2.19442 10.8076C1.51105 12.0925 1.15752 13.0945 1.02408 14.1246C0.992109 14.3715 0.991929 15.3406 1.02381 15.6348C1.32218 18.3881 3.05268 20.6866 5.74541 21.9061C7.36503 22.6397 9.18525 22.9109 11.0316 22.6939C11.2071 22.6733 11.4338 22.6414 11.5353 22.6231L11.7198 22.5898L11.8324 22.7287C12.7388 23.8474 14.1197 24.6422 15.6205 24.9089C16.0372 24.983 16.2549 25 16.7865 25C17.3155 25 17.5388 24.9827 17.9435 24.9104C19.4849 24.635 20.8396 23.8477 21.7742 22.6842C22.4231 21.8764 22.8037 21.0014 22.9632 19.9508C23.0123 19.6276 23.0123 18.8319 22.9632 18.5087C22.8094 17.4956 22.4561 16.6599 21.846 15.8658C21.0813 14.8706 20.0029 14.1344 18.729 13.7379C18.5655 13.687 18.5296 13.669 18.5183 13.6319C18.5108 13.6073 18.4715 13.4538 18.431 13.2907C18.0216 11.6411 16.9002 9.6365 14.8651 6.91617C13.8169 5.515 12.2844 3.60561 10.7899 1.8388C10.2202 1.16529 10.1633 1.10414 10.06 1.05484C9.95932 1.00678 9.75474 0.984521 9.66504 1.01185ZM9.77124 2.16748C9.67423 2.26665 8.55494 3.61623 7.77696 4.57206C4.86386 8.15099 3.30575 10.4467 2.51361 12.3271C2.06093 13.4016 1.89862 14.2641 1.96173 15.2595C2.05559 16.7397 2.56579 18.007 3.53045 19.1558C3.75422 19.4223 4.39694 20.0219 4.69027 20.2378C5.38619 20.7499 6.06749 21.1075 6.89829 21.3965C7.9571 21.7648 9.21994 21.9346 10.3534 21.8612C10.7009 21.8386 11.1458 21.7884 11.1676 21.7692C11.1766 21.7612 11.1557 21.6974 11.1212 21.6272C10.8673 21.1115 10.6952 20.5349 10.5992 19.8783C10.5601 19.6106 10.5665 18.7962 10.61 18.5087C10.7351 17.6816 10.9985 16.9628 11.4171 16.3063C12.3377 14.8622 13.8677 13.8595 15.6222 13.5503C16.1088 13.4646 16.8083 13.4271 17.2451 13.4635C17.3711 13.474 17.4776 13.4795 17.4817 13.4757C17.5044 13.4546 17.3293 12.8995 17.1815 12.5242C16.4614 10.6953 14.9617 8.43887 12.161 4.97046C11.4166 4.04848 9.92635 2.2418 9.82611 2.13968C9.81849 2.1319 9.79378 2.1444 9.77124 2.16748ZM4.86771 10.7127C4.81285 10.7367 4.74854 10.7762 4.7248 10.8005C4.60158 10.9265 3.98867 12.0078 3.76479 12.4941C3.43939 13.201 3.23803 13.8713 3.18321 14.4303C3.14033 14.8674 3.16055 15.4653 3.23302 15.9035C3.51026 17.5799 4.60392 19.0636 6.12316 19.8245C6.2604 19.8932 6.29757 19.9037 6.40243 19.9034C6.63494 19.9027 6.82427 19.764 6.87141 19.5598C6.92104 19.3448 6.81695 19.1671 6.56327 19.034C5.30726 18.3745 4.44136 17.2045 4.19156 15.8294C4.10399 15.3473 4.09828 14.6611 4.17831 14.2357C4.31852 13.4905 4.6858 12.6474 5.3358 11.5786C5.55154 11.2239 5.57809 11.1475 5.53604 11.0024C5.45651 10.728 5.14295 10.5921 4.86771 10.7127ZM16.3158 14.3578C15.3656 14.4367 14.3964 14.7826 13.6348 15.3148C12.946 15.7961 12.405 16.4084 12.0417 17.118C11.491 18.1933 11.3745 19.3798 11.7084 20.5114C12.2038 22.1908 13.599 23.4868 15.4068 23.9471C17.8487 24.5688 20.4442 23.4646 21.5314 21.3415C21.9405 20.5425 22.1131 19.6743 22.0322 18.8221C21.8367 16.7626 20.3071 15.0574 18.1663 14.5124C17.5766 14.3622 16.9217 14.3075 16.3158 14.3578ZM16.6495 15.6932C16.5611 15.7168 13.6211 17.2926 13.5499 17.3545C13.5197 17.3807 13.4749 17.4403 13.4502 17.4867L13.4054 17.5712V19.2297C13.4054 21.0703 13.396 20.94 13.5384 21.0862C13.5851 21.1342 14.0462 21.3907 15.091 21.9495C15.9083 22.3868 16.6076 22.7542 16.6449 22.7661C16.7313 22.7935 16.8417 22.7935 16.9282 22.7661C16.9655 22.7542 17.6647 22.3868 18.4821 21.9495C19.5268 21.3907 19.9879 21.1342 20.0347 21.0862C20.177 20.94 20.1677 21.0703 20.1677 19.2297V17.5712L20.1229 17.4867C20.0982 17.4403 20.0533 17.3807 20.0231 17.3545C19.9449 17.2864 17.0096 15.7167 16.9149 15.6923C16.8219 15.6683 16.7415 15.6686 16.6495 15.6932ZM15.8294 17.1444C15.3085 17.4239 14.8794 17.6604 14.876 17.6699C14.8726 17.6794 15.3011 17.9184 15.8282 18.2008L16.7865 18.7144L17.744 18.2013C18.2706 17.9191 18.7015 17.6814 18.7015 17.6732C18.7015 17.6602 16.807 16.6348 16.7848 16.6358C16.7803 16.636 16.3503 16.8649 15.8294 17.1444ZM14.3682 19.4811C14.3653 20.048 14.3673 20.5182 14.3728 20.5259C14.3783 20.5337 14.8137 20.7707 15.3403 21.0527L16.2978 21.5655L16.3029 20.533C16.3058 19.9652 16.3013 19.4943 16.293 19.4866C16.2847 19.479 15.8874 19.2631 15.4101 19.0069C14.9329 18.7508 14.5044 18.5207 14.458 18.4957L14.3735 18.4502L14.3682 19.4811ZM18.5619 18.7928C18.2163 18.9781 17.7854 19.2094 17.6044 19.3067L17.2752 19.4836L17.2701 20.5256L17.2649 21.5676L17.4016 21.4966C17.9421 21.2157 19.2001 20.5327 19.2046 20.5176C19.2077 20.5074 19.2057 20.0394 19.2002 19.4774L19.1902 18.4558L18.5619 18.7928Z" fill="#6147C6" stroke="#6147C6" stroke-width="0.2"/>
</svg>
