<svg width="24" height="24" viewBox="0 0 24 24" fill="none" xmlns="http://www.w3.org/2000/svg">
<path fill-rule="evenodd" clip-rule="evenodd" d="M0.173973 5.53646C0.0625318 5.64797 -4.81389e-05 5.79918 2.77842e-08 5.95683C4.81945e-05 6.11448 0.0627206 6.26565 0.17423 6.37709C0.285739 6.48853 0.436951 6.55111 0.594601 6.55106C0.75225 6.55101 0.903424 6.48834 1.01486 6.37683L1.43505 5.95665L3.536 8.05756L1.85524 9.73881C1.79849 9.79363 1.75321 9.85921 1.72207 9.93172C1.69093 10.0042 1.67454 10.0822 1.67386 10.1611C1.67317 10.24 1.68821 10.3183 1.71809 10.3913C1.74798 10.4644 1.79211 10.5307 1.84791 10.5865C1.90371 10.6423 1.97006 10.6864 2.0431 10.7163C2.11614 10.7462 2.19439 10.7612 2.2733 10.7606C2.35221 10.7599 2.4302 10.7435 2.50271 10.7123C2.57521 10.6812 2.6408 10.6359 2.69562 10.5792L3.536 9.73881L10.6813 16.884C11.0903 17.2927 11.6095 17.5734 12.1755 17.6916C12.7415 17.8098 13.3297 17.7605 13.8681 17.5497L14.464 18.145C14.6114 18.2928 14.7952 18.399 14.9967 18.453C15.1983 18.507 15.4106 18.5069 15.6121 18.4527L16.9851 19.8258C17.0403 19.881 17.1058 19.9248 17.1779 19.9547C17.25 19.9846 17.3273 20 17.4054 20C17.4835 20 17.5608 19.9847 17.6329 19.9548C17.705 19.925 17.7706 19.8812 17.8258 19.826C17.881 19.7709 17.9248 19.7053 17.9547 19.6332C17.9846 19.5611 18 19.4838 18 19.4058C18 19.3277 17.9847 19.2504 17.9548 19.1783C17.925 19.1062 17.8812 19.0406 17.826 18.9854L16.4525 17.6119C16.5066 17.4103 16.5066 17.198 16.4525 16.9964C16.3984 16.7949 16.292 16.6111 16.1442 16.4638L15.5494 15.8685C15.7604 15.33 15.8099 14.7418 15.6917 14.1757C15.5736 13.6096 15.2929 13.0902 14.8842 12.6811L7.73892 5.53595L8.57981 4.69558C8.63503 4.64037 8.67882 4.57482 8.70871 4.50268C8.73859 4.43054 8.75397 4.35323 8.75397 4.27514C8.75397 4.19706 8.73859 4.11974 8.70871 4.0476C8.67882 3.97546 8.63503 3.90992 8.57981 3.8547C8.5246 3.79949 8.45905 3.75569 8.38691 3.72581C8.31477 3.69593 8.23745 3.68055 8.15937 3.68055C8.08128 3.68055 8.00396 3.69593 7.93182 3.72581C7.85968 3.75569 7.79413 3.79949 7.73892 3.8547L6.05816 5.53595L3.95722 3.43503L4.37689 3.01485C4.43211 2.95967 4.47591 2.89416 4.50581 2.82205C4.5357 2.74994 4.5511 2.67265 4.55112 2.59459C4.55115 2.51653 4.53579 2.43923 4.50594 2.36711C4.47609 2.29498 4.43233 2.22944 4.37715 2.17423C4.32197 2.11901 4.25645 2.07521 4.18435 2.04532C4.11224 2.01542 4.03495 2.00002 3.95688 2C3.87882 1.99998 3.80152 2.01533 3.7294 2.04518C3.65727 2.07503 3.59173 2.11879 3.53651 2.17397L0.173973 5.53646ZM5.33131 6.26228L3.23036 4.16137L2.16191 5.2298L4.26286 7.33072L5.33131 6.26228ZM7.01258 6.26228L4.26234 9.01248L6.52561 11.2757L9.27585 8.52603L7.01258 6.26228ZM7.3665 12.1166L8.62707 13.3771L9.582 12.4222C9.63721 12.367 9.70275 12.3233 9.77488 12.2934C9.84701 12.2636 9.92431 12.2482 10.0024 12.2483C10.0804 12.2483 10.1577 12.2637 10.2298 12.2936C10.3019 12.3235 10.3675 12.3673 10.4226 12.4225C10.4778 12.4777 10.5216 12.5432 10.5514 12.6154C10.5813 12.6875 10.5966 12.7648 10.5966 12.8429C10.5966 12.9209 10.5812 12.9982 10.5513 13.0703C10.5214 13.1424 10.4776 13.2079 10.4224 13.2631L9.46796 14.218L10.3083 15.0584L11.2628 14.103C11.318 14.0477 11.3835 14.004 11.4557 13.9741C11.5278 13.9442 11.6051 13.9288 11.6832 13.9288C11.7613 13.9288 11.8386 13.9442 11.9107 13.9741C11.9829 14.004 12.0484 14.0477 12.1036 14.103C12.1589 14.1582 12.2027 14.2237 12.2325 14.2959C12.2624 14.368 12.2778 14.4453 12.2778 14.5234C12.2778 14.6015 12.2624 14.6788 12.2325 14.7509C12.2027 14.8231 12.1589 14.8886 12.1036 14.9438L11.1487 15.8988L11.4076 16.1576C11.6754 16.4252 12.0155 16.6088 12.3861 16.6861C12.7567 16.7634 13.1417 16.7309 13.4942 16.5927L14.5929 15.494C14.7311 15.1415 14.7634 14.7564 14.6861 14.3858C14.6087 14.0152 14.425 13.6752 14.1573 13.4075L10.1162 9.3664L7.3665 12.1166ZM15.4323 17.2066L15.4184 17.1901L14.9951 16.7669C14.923 16.8468 14.8467 16.923 14.7666 16.9949L15.1898 17.4187C15.195 17.4238 15.2004 17.4285 15.2063 17.4326C15.2596 17.3381 15.3378 17.2599 15.4323 17.2066Z" fill="#6147C6"/>
</svg>
