<svg width="27" height="27" viewBox="0 0 27 27" fill="none" xmlns="http://www.w3.org/2000/svg">
<path d="M14.625 12.375C15.2925 12.375 15.945 12.1771 16.5 11.8062C17.0551 11.4354 17.4876 10.9083 17.7431 10.2916C17.9985 9.67486 18.0654 8.99626 17.9352 8.34157C17.8049 7.68689 17.4835 7.08552 17.0115 6.61352C16.5395 6.14151 15.9381 5.82008 15.2834 5.68985C14.6287 5.55963 13.9501 5.62646 13.3334 5.88191C12.7167 6.13735 12.1896 6.56994 11.8188 7.12495C11.4479 7.67997 11.25 8.33249 11.25 9C11.25 9.89511 11.6056 10.7536 12.2385 11.3865C12.8714 12.0194 13.7299 12.375 14.625 12.375ZM14.625 7.875C14.8475 7.875 15.065 7.94098 15.25 8.0646C15.435 8.18821 15.5792 8.36392 15.6644 8.56948C15.7495 8.77505 15.7718 9.00125 15.7284 9.21948C15.685 9.43771 15.5778 9.63816 15.4205 9.7955C15.2632 9.95283 15.0627 10.06 14.8445 10.1034C14.6262 10.1468 14.4 10.1245 14.1945 10.0394C13.9889 9.95422 13.8132 9.81002 13.6896 9.62502C13.566 9.44001 13.5 9.22251 13.5 9C13.5 8.70163 13.6185 8.41548 13.8295 8.20451C14.0405 7.99353 14.3266 7.875 14.625 7.875ZM19.2488 12.2175C19.9069 11.2737 20.2598 10.1507 20.2598 9C20.2598 7.84933 19.9069 6.72634 19.2488 5.7825C19.5723 5.67816 19.9101 5.62502 20.25 5.625C21.1451 5.625 22.0036 5.98058 22.6365 6.61352C23.2694 7.24645 23.625 8.1049 23.625 9C23.625 9.89511 23.2694 10.7536 22.6365 11.3865C22.0036 12.0194 21.1451 12.375 20.25 12.375C19.9101 12.375 19.5723 12.3218 19.2488 12.2175ZM14.625 14.625C7.875 14.625 7.875 19.125 7.875 19.125V21.375H21.375V19.125C21.375 19.125 21.375 14.625 14.625 14.625ZM10.125 19.125C10.125 18.7988 10.485 16.875 14.625 16.875C18.5625 16.875 19.0575 18.63 19.125 19.125M27 19.125V21.375H23.625V19.125C23.5987 18.2887 23.4061 17.4661 23.0584 16.705C22.7107 15.944 22.215 15.2598 21.6 14.6925C27 15.2438 27 19.125 27 19.125ZM9 13.5H5.625V16.875H3.375V13.5H0V11.25H3.375V7.875H5.625V11.25H9V13.5Z" fill="#6147C6"/>
</svg>
