<svg width="31" height="20" viewBox="0 0 31 20" fill="none" xmlns="http://www.w3.org/2000/svg">
<path d="M11.2957 2.06335H19.6677V17.2311H11.2957V2.06335Z" fill="#FF5F00"/>
<path d="M11.8273 9.64735C11.8273 6.56561 13.2624 3.83213 15.4683 2.06341C13.8472 0.777121 11.8007 0 9.56821 0C4.279 0 0 4.31445 0 9.64735C0 14.9803 4.279 19.2947 9.56809 19.2947C11.8006 19.2947 13.8471 18.5176 15.4683 17.2312C13.2624 15.4893 11.8273 12.7291 11.8273 9.64735Z" fill="#EB001B"/>
<path d="M30.9633 9.64735C30.9633 14.9801 26.6843 19.2947 21.3952 19.2947C19.1627 19.2947 17.1163 18.5176 15.495 17.2312C17.7275 15.4626 19.1362 12.7291 19.1362 9.64735C19.1362 6.56561 17.7009 3.83213 15.495 2.06341C17.1161 0.777121 19.1627 0 21.3952 0C26.6843 0 30.9633 4.3413 30.9633 9.64735Z" fill="#F79E1B"/>
</svg>
