<svg width="29" height="29" viewBox="0 0 29 29" fill="none" xmlns="http://www.w3.org/2000/svg">
<path d="M7.25 22.9583V12.0833C7.25 10.1604 8.01384 8.31637 9.37347 6.95673C10.7331 5.59709 12.5772 4.83325 14.5 4.83325C16.4228 4.83325 18.2669 5.59709 19.6265 6.95673C20.9862 8.31637 21.75 10.1604 21.75 12.0833V22.9583M7.25 22.9583H21.75M7.25 22.9583H4.83333M21.75 22.9583H24.1667M13.2917 26.5833H15.7083" stroke="#6147C6" stroke-width="2.5" stroke-linecap="round" stroke-linejoin="round"/>
<path d="M14.5 4.83329C15.1673 4.83329 15.7083 4.2923 15.7083 3.62496C15.7083 2.95762 15.1673 2.41663 14.5 2.41663C13.8327 2.41663 13.2917 2.95762 13.2917 3.62496C13.2917 4.2923 13.8327 4.83329 14.5 4.83329Z" stroke="#6147C6" stroke-width="2.5"/>
</svg>
