<svg width="23" height="26" viewBox="0 0 23 26" fill="none" xmlns="http://www.w3.org/2000/svg">
<g clip-path="url(#clip0_192_591)">
<path d="M18.7886 2.02384C17.5831 0.656518 15.4039 0.0703125 12.6161 0.0703125H4.52508C4.24924 0.0702702 3.98244 0.168175 3.77266 0.346416C3.56289 0.524657 3.42391 0.771536 3.38074 1.04264L0.0117942 22.3047C-0.0551693 22.724 0.271083 23.1036 0.698127 23.1036H5.69323L6.94771 15.1856L6.90878 15.4336C6.99815 14.8739 7.47918 14.4611 8.0488 14.4611H10.4225C15.0855 14.4611 18.7368 12.5763 19.8033 7.12415C19.835 6.96289 19.8624 6.80595 19.8861 6.65262C19.7515 6.58168 19.7515 6.58168 19.8861 6.65262C20.2037 4.63744 19.884 3.26573 18.7886 2.02384Z" fill="#27346A"/>
<path d="M8.85903 5.92668C8.99555 5.86188 9.14493 5.82834 9.29619 5.82854H15.6394C16.3905 5.82854 17.0911 5.87718 17.7314 5.97972C17.9105 6.00816 18.0887 6.0421 18.2658 6.08148C18.5167 6.13659 18.7647 6.20402 19.0089 6.28354C19.3237 6.38814 19.6168 6.50996 19.8862 6.65262C20.2037 4.63667 19.884 3.26573 18.7886 2.02384C17.5824 0.656518 15.4039 0.0703125 12.6161 0.0703125H4.52439C3.95468 0.0703125 3.47002 0.483041 3.38074 1.04264L0.0117947 22.3039C-0.0551689 22.7239 0.271084 23.103 0.697436 23.103H5.69323L8.29589 6.67913C8.32151 6.51771 8.38614 6.36489 8.48423 6.23382C8.58232 6.10275 8.71095 5.99735 8.85903 5.92668Z" fill="#27346A"/>
<path d="M19.8033 7.12412C18.7367 12.5755 15.0856 14.461 10.4224 14.461H8.04808C7.47845 14.461 6.99734 14.8738 6.90883 15.4335L5.34817 25.2787C5.28985 25.6456 5.57501 25.9781 5.94807 25.9781H10.1588C10.4 25.978 10.6333 25.8923 10.8167 25.7364C11 25.5805 11.1215 25.3646 11.1592 25.1275L11.2002 24.914L11.9938 19.9089L12.045 19.6323C12.0826 19.3952 12.2041 19.1793 12.3875 19.0234C12.5708 18.8675 12.8041 18.7818 13.0453 18.7817H13.6754C17.7544 18.7817 20.9483 17.1327 21.8817 12.3635C22.2713 10.3704 22.0697 8.70642 21.0391 7.53762C20.7265 7.18361 20.3383 6.89124 19.8861 6.65259C19.8616 6.80669 19.835 6.96287 19.8033 7.12412Z" fill="#2790C3"/>
<path d="M18.7698 6.20968C18.6035 6.16136 18.4357 6.11857 18.2665 6.0814C18.0894 6.04265 17.9112 6.00894 17.7321 5.98032C17.0912 5.8771 16.3911 5.82837 15.6393 5.82837H9.29684C9.14548 5.82812 8.99603 5.86194 8.85967 5.92729C8.7114 5.9977 8.58261 6.10303 8.48447 6.23414C8.38632 6.36526 8.32179 6.51821 8.29645 6.67974L6.94836 15.1855L6.90942 15.4335C6.9981 14.8738 7.47913 14.461 8.04884 14.461H10.4232C15.0862 14.461 18.7374 12.5762 19.804 7.12407C19.8357 6.96281 19.8624 6.80656 19.8869 6.65254C19.6168 6.51077 19.3244 6.38797 19.0096 6.28415C18.9301 6.25793 18.8502 6.23311 18.7699 6.20968" fill="#1F264F"/>
</g>
<defs>
<clipPath id="clip0_192_591">
<rect width="22.1481" height="26" fill="white"/>
</clipPath>
</defs>
</svg>
