<svg width="23" height="22" viewBox="0 0 23 22" fill="none" xmlns="http://www.w3.org/2000/svg">
<path d="M5.10437 10.3382C5.05762 10.7626 5.16304 11.1265 5.45912 11.4226L8.92045 14.884L7.62429 16.1801L4.29954 12.8554L4.27204 12.9305C3.76054 14.3239 4.23904 15.9005 5.34912 17.0803C6.46104 18.2619 8.04687 18.8724 9.50895 18.5011C11.456 18.008 13.5652 16.644 15.4022 14.884C17.1622 13.047 18.5253 10.9377 19.0194 8.9907C19.3906 7.52862 18.7801 5.94279 17.5985 4.83087C16.4188 3.72079 14.843 3.24229 13.4488 3.75287L13.3736 3.78037L16.6984 7.10604L15.4022 8.4022L11.94 4.94087C11.6439 4.64479 11.28 4.53937 10.8555 4.58612C10.4073 4.63562 9.91137 4.85837 9.4897 5.2067C9.06529 5.55779 8.79579 5.96937 8.70779 6.31495C8.62987 6.61562 8.67937 6.86495 8.91862 7.10604L12.808 10.9945L11.5119 12.2907L7.62337 8.4022C7.3832 8.16204 7.13295 8.11254 6.83229 8.19045C6.4867 8.27845 6.07512 8.54795 5.72312 8.97329C5.3757 9.39495 5.15387 9.88995 5.10437 10.3382ZM6.85062 6.33329C6.86357 6.17295 6.89056 6.01407 6.93129 5.85845C7.1412 5.04445 7.68295 4.32212 8.32279 3.7932C8.96629 3.26154 9.78854 2.8582 10.6548 2.76379C10.939 2.7317 11.2295 2.73445 11.5174 2.77662C11.6512 2.62354 11.8034 2.51537 11.9253 2.43929C12.17 2.2862 12.479 2.15512 12.8172 2.03137C15.0291 1.22195 17.3125 2.04512 18.8544 3.4962C20.3953 4.94637 21.3688 7.18304 20.7959 9.4417C20.1945 11.8131 18.6005 14.1992 16.7103 16.1673L16.6975 16.1801L16.6846 16.193C14.7165 18.0831 12.3305 19.6763 9.95904 20.2785C7.70037 20.8515 5.4637 19.878 4.01354 18.337C2.56245 16.7952 1.73929 14.5118 2.5487 12.2999C2.67337 11.9607 2.80354 11.6527 2.95662 11.408C3.0327 11.286 3.14087 11.1339 3.29395 11C3.25298 10.7142 3.24866 10.4244 3.28112 10.1375C3.37645 9.2712 3.77887 8.44895 4.31054 7.80545C4.83945 7.16562 5.56179 6.62295 6.37579 6.41395C6.5314 6.37323 6.69029 6.34624 6.85062 6.33329Z" fill="#6147C6"/>
</svg>
