<svg width="23" height="24" viewBox="0 0 23 24" fill="none" xmlns="http://www.w3.org/2000/svg">
<path fill-rule="evenodd" clip-rule="evenodd" d="M8.44054 1.54143C8.33099 1.59403 8.25221 1.76434 8.27969 1.8892C8.29269 1.9483 8.40286 2.07694 8.64525 2.31605L8.99219 2.65831L8.90433 2.76507C7.86188 4.03158 7.679 5.77798 8.43775 7.22077C8.69973 7.719 9.15757 8.27417 9.35362 8.33134C9.50832 8.37646 9.5942 8.33409 9.82283 8.09975C10.3226 7.58756 10.7102 6.82887 10.8531 6.0831C10.9237 5.71451 10.9239 4.94197 10.8535 4.57273C10.746 4.00965 10.488 3.41913 10.1368 2.93287C9.94539 2.66789 8.89955 1.60549 8.76137 1.53569C8.66342 1.48621 8.55135 1.48823 8.44054 1.54143ZM1.25838 1.75337C1.15604 1.853 1.13197 1.98556 1.1945 2.10487C1.21164 2.13755 1.47581 2.40991 1.78155 2.7101L2.33742 3.25588L2.33753 3.39045C2.33759 3.46444 2.35607 3.63556 2.3786 3.77074C2.69393 5.66335 4.3445 7.11578 6.28007 7.20387C6.57723 7.2174 6.6446 7.21277 6.72257 7.17353C6.86368 7.10247 6.9029 6.98113 6.88087 6.68352C6.82228 5.89208 6.59783 5.23903 6.16616 4.60394C5.96346 4.3057 5.51879 3.84582 5.22507 3.63061C4.59067 3.1658 3.85326 2.88166 3.07922 2.80383L2.80069 2.7758L2.22384 2.21832L1.64703 1.66084H1.50021C1.37056 1.66084 1.34233 1.67165 1.25838 1.75337ZM9.25097 3.38169C9.0336 3.70352 8.92382 3.91823 8.82271 4.21946C8.47467 5.25623 8.6199 6.35284 9.22332 7.24486C9.45202 7.58296 9.43457 7.5798 9.61393 7.31575C9.88428 6.91775 10.0596 6.53523 10.171 6.10016C10.2548 5.77338 10.2611 4.94153 10.1823 4.61355C10.1095 4.31055 9.98315 3.96997 9.85414 3.7291C9.73106 3.49936 9.49415 3.1532 9.4502 3.13894C9.43429 3.13377 9.34465 3.243 9.25097 3.38169ZM3.00006 3.45016C2.97593 3.49272 3.06947 3.91434 3.16426 4.19024C3.59552 5.44569 4.69592 6.33589 6.07634 6.54603L6.19515 6.56413L6.19453 6.47329C6.1935 6.31667 6.08953 5.91445 5.98261 5.65344C5.7822 5.16419 5.53064 4.79294 5.14847 4.42251C4.65312 3.94229 4.04905 3.62775 3.35239 3.48722C3.03464 3.42313 3.01647 3.4212 3.00006 3.45016ZM12.0755 5.11499C12.0211 5.14727 11.9744 5.20575 11.9533 5.26807C11.8935 5.4445 11.9431 5.53011 12.3136 5.88939L12.6469 6.21277L12.4829 6.42806C11.8497 7.25953 11.5503 8.26404 11.6426 9.24763C11.7279 10.1567 12.0749 10.9451 12.6891 11.6254C13.0163 11.9879 13.1599 12.0024 13.4455 11.7021C14.0044 11.1144 14.3498 10.4432 14.5167 9.6209C14.5914 9.2527 14.584 8.4651 14.5024 8.09289C14.3716 7.49628 14.0963 6.88923 13.7502 6.43421C13.6489 6.30097 13.3064 5.93786 12.9891 5.62726L12.4122 5.06258L12.2878 5.06269C12.2146 5.06274 12.1273 5.08424 12.0755 5.11499ZM12.9398 6.89178C12.298 7.79787 12.1206 8.93432 12.4608 9.96107C12.5857 10.338 13.0089 11.0768 13.0999 11.0768C13.1417 11.0768 13.4015 10.7036 13.5246 10.4666C13.6513 10.2226 13.8006 9.7952 13.858 9.51204C13.9152 9.22984 13.9092 8.50753 13.8474 8.22866C13.7799 7.92466 13.6754 7.62142 13.5486 7.36215C13.4374 7.13464 13.1613 6.71987 13.11 6.70322C13.0937 6.69791 13.0171 6.78277 12.9398 6.89178ZM4.6856 8.29128C4.37461 8.3118 3.96426 8.39149 3.6424 8.49384C3.15719 8.64811 2.80756 8.83352 2.23665 9.23928C2.20866 9.25917 2.11281 9.18267 1.85577 8.9353C1.65405 8.74116 1.48059 8.59698 1.43547 8.58596C1.16224 8.5192 0.909058 8.79447 1.03183 9.02478C1.10429 9.16071 2.21915 10.2056 2.49117 10.3925C2.97926 10.7279 3.62559 10.9889 4.22435 11.0923C4.64138 11.1643 5.30538 11.1593 5.71307 11.0811C6.54276 10.9219 7.26771 10.5675 7.80941 10.0563C8.01868 9.85883 8.04015 9.82895 8.04015 9.7352C8.04015 9.58334 7.98524 9.50285 7.74182 9.29771C7.00477 8.67663 6.10662 8.33061 5.13287 8.29259C4.97144 8.28628 4.77016 8.28568 4.6856 8.29128ZM8.44549 8.57167C8.30627 8.62716 8.22154 8.81072 8.26577 8.96096C8.28539 9.02753 9.86247 10.5789 14.6445 15.2355C18.1384 18.6378 21.031 21.4392 21.0725 21.4607C21.3185 21.588 21.6058 21.3877 21.557 21.1229C21.5408 21.035 20.8009 20.3049 15.1738 14.8238C11.6731 11.4139 8.77493 8.6065 8.73342 8.585C8.65087 8.5423 8.5329 8.53684 8.44549 8.57167ZM15.7337 8.67007C15.6552 8.7236 15.5879 8.84846 15.5879 8.94055C15.5879 9.05806 15.6535 9.14441 15.9894 9.46891L16.3109 9.77958L16.219 9.89072C15.8001 10.3977 15.465 11.1122 15.35 11.7436C15.1168 13.0242 15.5383 14.3845 16.4516 15.2987C16.5966 15.444 16.6216 15.4583 16.7298 15.4583C16.8929 15.4583 16.9777 15.4089 17.1584 15.2084C17.6462 14.6675 18.0049 13.9815 18.1449 13.3217C18.2963 12.608 18.2562 11.8639 18.0281 11.1585C17.9308 10.8574 17.6522 10.3233 17.444 10.0387C17.2664 9.79589 16.2104 8.7285 16.0857 8.66569C15.9852 8.61513 15.8111 8.61731 15.7337 8.67007ZM4.42059 8.9556C4.13372 8.99917 3.81501 9.08938 3.55126 9.2017C3.10226 9.3929 2.66807 9.66975 2.71103 9.73743C2.73988 9.78288 3.1637 10.0497 3.35776 10.1445C3.56862 10.2476 3.96885 10.3775 4.27146 10.441C4.61449 10.5129 5.30776 10.508 5.66401 10.4311C6.0052 10.3575 6.33327 10.2403 6.63378 10.0846C6.86902 9.96281 7.19911 9.74619 7.2007 9.71258C7.20383 9.64648 6.61198 9.30519 6.26551 9.17331C5.80342 8.99743 5.54906 8.94899 5.03503 8.93895C4.78903 8.93413 4.51254 8.94164 4.42059 8.9556ZM16.6133 10.429C16.3458 10.7941 16.1587 11.2049 16.0331 11.7028C15.9779 11.922 15.9677 12.0337 15.9666 12.4375C15.9651 12.9612 16.0107 13.2252 16.1801 13.6758C16.3233 14.0565 16.6948 14.6591 16.7711 14.6343C16.8228 14.6176 17.0453 14.2837 17.187 14.0101C17.457 13.4891 17.5581 13.0645 17.5581 12.4511C17.5581 11.8405 17.4572 11.4149 17.1905 10.9C17.0499 10.6284 16.8217 10.2843 16.7714 10.268C16.7536 10.2622 16.6824 10.3347 16.6133 10.429ZM7.98424 11.8803C7.28143 11.9971 6.69271 12.2353 6.12895 12.6312L5.8531 12.8249L5.52793 12.5117C5.34908 12.3395 5.17528 12.1849 5.14171 12.1684C4.97401 12.0855 4.74252 12.1744 4.68513 12.3437C4.61949 12.5373 4.65896 12.5931 5.29308 13.202C5.61241 13.5086 5.96173 13.8231 6.06935 13.9008C7.34019 14.8179 9.0876 14.965 10.5015 14.2738C10.985 14.0374 11.5937 13.5793 11.6735 13.3918C11.7174 13.2885 11.6922 13.1475 11.6121 13.0483C11.5204 12.9349 11.0101 12.5495 10.7598 12.4046C10.3188 12.1495 9.7563 11.9566 9.23207 11.8808C8.88826 11.8311 8.2817 11.8309 7.98424 11.8803ZM8.13799 12.5091C7.4909 12.6036 6.87556 12.8553 6.39488 13.2219L6.32908 13.2721L6.43681 13.3543C6.82284 13.649 7.41374 13.9032 7.95628 14.0081C8.27687 14.07 8.92161 14.07 9.24219 14.0081C9.71789 13.9161 10.1801 13.731 10.612 13.4593C10.8958 13.2807 10.8961 13.2793 10.6903 13.1364C10.3233 12.8815 9.92917 12.707 9.43787 12.5819C9.21608 12.5254 9.09395 12.5128 8.69708 12.5055C8.4357 12.5008 8.18411 12.5024 8.13799 12.5091ZM11.7861 15.4318C11.4895 15.4718 11.1885 15.5364 10.956 15.61C10.6219 15.7159 10.0391 16.0081 9.76243 16.2086L9.51391 16.3887L9.18936 16.0761C9.01084 15.9042 8.83733 15.75 8.80375 15.7334C8.77015 15.7168 8.69174 15.7032 8.62948 15.7032C8.40177 15.7032 8.24916 15.9551 8.35598 16.1546C8.42639 16.2862 9.51525 17.3107 9.78367 17.498C10.2375 17.8147 10.7805 18.0469 11.3807 18.1812C11.7516 18.2641 12.4824 18.2835 12.8903 18.2213C13.6978 18.0981 14.3956 17.7886 15.0244 17.2747C15.2804 17.0655 15.364 16.9566 15.364 16.8326C15.364 16.7054 15.2803 16.6003 14.9935 16.3675C14.4211 15.9028 13.7546 15.5998 13.0164 15.4684C12.733 15.4179 12.0412 15.3973 11.7861 15.4318ZM11.9771 16.0588C11.4989 16.0923 11.0897 16.2046 10.6399 16.4256C10.3721 16.5571 10.0101 16.7923 10.0126 16.8329C10.0151 16.8739 10.3754 17.1096 10.6198 17.2301C10.9145 17.3755 11.0747 17.4348 11.4066 17.521C11.6693 17.5893 11.7266 17.5942 12.2613 17.5936C12.7919 17.593 12.8552 17.5876 13.116 17.5204C13.2709 17.4805 13.4659 17.4218 13.5493 17.3901C13.9069 17.2538 14.5464 16.8737 14.5112 16.8183C14.4848 16.7767 14.0453 16.5027 13.8616 16.4133C13.468 16.2218 13.0156 16.0963 12.6247 16.0703C12.494 16.0616 12.3556 16.0512 12.3172 16.0471C12.2788 16.0431 12.1257 16.0484 11.9771 16.0588Z" fill="#6147C6" stroke="#6147C6" stroke-width="0.3"/>
</svg>
