<svg width="23" height="24" viewBox="0 0 23 24" fill="none" xmlns="http://www.w3.org/2000/svg">
<path d="M7.64258 1.35254C7.6676 1.3547 7.69417 1.35848 7.72168 1.36621C7.77897 1.38237 7.8309 1.41107 7.88477 1.45117C7.98538 1.52612 8.12509 1.66488 8.36621 1.90625L8.71387 2.26172C10.4504 4.07069 12.143 6.35856 13.0742 8.17285L13.1289 8.28027L13.332 8.06348L13.793 7.57715C13.9109 7.45552 13.9979 7.37067 14.0674 7.3125C14.1392 7.25239 14.2035 7.21072 14.2734 7.1875C14.343 7.16443 14.4065 7.16406 14.46 7.16406C14.5048 7.16406 14.5593 7.16395 14.6143 7.17676C14.674 7.19071 14.7265 7.21689 14.7812 7.25684C14.8806 7.32931 15.0153 7.46717 15.2529 7.70898L15.5498 8.0166C17.0194 9.56667 18.2758 11.3062 19.0342 12.8525L19.2275 13.2656C19.6504 14.2137 19.8709 15.0534 19.916 15.8955L19.9229 16.0938C19.9498 18.0708 18.7961 19.9374 16.9795 20.8691L16.7959 20.959C16.5016 21.0964 16.1165 21.2331 15.8066 21.3125L15.5283 21.3701C15.4788 21.3774 15.4366 21.3877 15.4102 21.3965C15.4088 21.3969 15.4074 21.3971 15.4062 21.3975C15.4041 21.3996 15.4032 21.4027 15.4014 21.4043C15.3841 21.4194 15.3671 21.4273 15.3594 21.4307C15.3428 21.4379 15.3268 21.4415 15.3184 21.4434C15.2992 21.4475 15.2763 21.4498 15.2539 21.4521C15.2072 21.457 15.1427 21.4614 15.0664 21.4648C14.9129 21.4717 14.7027 21.4766 14.4727 21.4766C14.2089 21.4766 13.9974 21.4722 13.8516 21.4648C13.7796 21.4612 13.7193 21.4563 13.6758 21.4502C13.6553 21.4473 13.6317 21.4432 13.6104 21.4365C13.6007 21.4335 13.5811 21.427 13.5615 21.4141C13.5567 21.4108 13.5487 21.4023 13.5381 21.3916C13.4675 21.3904 13.3713 21.374 13.2705 21.3506C13.1626 21.3255 13.0366 21.2899 12.9053 21.249C12.7088 21.1879 12.4962 21.1125 12.3115 21.0361L12.1367 20.96C11.6783 20.7452 11.2537 20.4729 10.8623 20.1426L10.6963 19.9971C10.5292 19.8452 10.3257 19.6183 10.1455 19.3926C10.0111 19.2242 9.88498 19.0502 9.79395 18.9033L9.71582 18.7666C9.70145 18.7386 9.68962 18.7172 9.67969 18.7012C9.56116 18.7392 9.36752 18.791 9.1709 18.8359C9.05318 18.8629 8.9302 18.8889 8.81738 18.9111L8.52246 18.9629C8.29402 18.9943 7.92183 19.0089 7.56055 19.0088C7.28975 19.0087 7.01633 19.0001 6.80664 18.9824L6.62109 18.9619C3.20745 18.4535 0.732274 15.5257 0.888672 12.165L0.915039 11.8105C1.09919 10.015 2.04981 7.88147 3.6416 5.6582L4.10645 5.02344C4.26314 4.81605 4.44628 4.58101 4.72754 4.22168L5.12402 3.73828C5.58177 3.19908 6.19785 2.51971 6.75 1.9502L7.05957 1.63477C7.14066 1.55461 7.20258 1.4969 7.25391 1.45703C7.30851 1.41464 7.36055 1.38433 7.41895 1.36719C7.47572 1.35052 7.52834 1.34963 7.57129 1.34961L7.64258 1.35254ZM14.416 8.50879L14.0508 8.90332C13.2943 9.68476 12.2679 11.0075 11.6006 12.0459L11.3389 12.4717C10.219 14.3789 9.89136 15.8484 10.2422 17.1904L10.3311 17.4854C10.8246 18.9339 12.0711 20.0064 13.6699 20.3242L13.8779 20.3555C14.104 20.3808 14.3773 20.3873 14.6533 20.376C15.0213 20.3608 15.3799 20.3137 15.624 20.2432L15.9062 20.1523C17.2922 19.6586 18.3057 18.5836 18.6875 17.1924L18.7432 16.9717C18.7857 16.7698 18.794 16.5921 18.7959 16.1602L18.7881 15.7861C18.7508 15.0626 18.5816 14.4578 18.1699 13.5908L17.9434 13.1338C17.3204 11.9215 16.4767 10.7157 15.3232 9.39746L14.8096 8.8252C14.6995 8.70553 14.5947 8.59673 14.5146 8.51855C14.4939 8.49824 14.4744 8.4811 14.458 8.46582L14.416 8.50879ZM7.50391 2.74219L7.10645 3.16016C5.84811 4.51302 4.70048 5.97825 3.87207 7.28125L3.53711 7.8291C1.83774 10.7297 1.55947 12.8982 2.56348 14.8799L2.68066 15.0996C2.95986 15.5993 3.28788 16.0118 3.73438 16.4297L4.0332 16.6924C4.7416 17.2732 5.52791 17.6346 6.50879 17.835L6.81543 17.8857C7.55563 17.9822 8.44972 17.9247 9.15625 17.7256L9.24414 17.6973L9.23438 17.6719C9.11703 17.3739 9.04785 16.9213 9.02539 16.4541C9.00281 15.9842 9.027 15.4811 9.10645 15.0771L9.16699 14.7979C9.50052 13.3946 10.2861 11.8868 11.5508 10.1982L11.9463 9.67871C12.0659 9.5238 12.1638 9.39922 12.2109 9.34375L12.3154 9.20508C12.3218 9.19529 12.3267 9.18612 12.3311 9.17871C12.3229 9.15677 12.3118 9.12758 12.2969 9.09277L12.167 8.81445C11.5589 7.58857 10.5235 6.05257 9.35156 4.62793L8.8418 4.02539C8.63711 3.79029 8.3032 3.42534 8.01562 3.11914C7.87207 2.96629 7.74067 2.82863 7.64355 2.72949C7.62018 2.70563 7.59786 2.68474 7.5791 2.66602C7.55714 2.68789 7.53199 2.71349 7.50391 2.74219ZM4.28809 12.3564C4.39555 12.3684 4.5082 12.4086 4.5957 12.4824L4.64258 12.5254C4.68634 12.5708 4.72048 12.6235 4.74609 12.7012C4.77511 12.7892 4.79372 12.9115 4.81738 13.0908L4.84668 13.2686C4.88174 13.4517 4.93203 13.6402 4.97363 13.7422L5.0293 13.8633C5.09412 13.9892 5.18367 14.1289 5.28516 14.2627C5.42078 14.4414 5.56971 14.5998 5.69531 14.6953L5.85156 14.8037C6.23066 15.0446 6.70203 15.1943 7.08203 15.1943C7.17576 15.1943 7.26005 15.1981 7.33984 15.2295C7.42104 15.2615 7.48278 15.317 7.54688 15.3799L7.61328 15.4512C7.63382 15.4756 7.65283 15.5007 7.66895 15.5244C7.68487 15.5479 7.70024 15.5727 7.71191 15.5977C7.72154 15.6182 7.73729 15.6564 7.7373 15.7002C7.7373 15.8089 7.68485 15.9281 7.62988 16.0166C7.60062 16.0637 7.56604 16.1099 7.52832 16.1484C7.51051 16.1666 7.48986 16.1853 7.4668 16.2021L7.38965 16.2451C7.28165 16.2865 7.13407 16.292 6.98535 16.2822C6.83096 16.2721 6.65306 16.2443 6.4707 16.2031C6.19826 16.1416 5.90599 16.0485 5.65723 15.9375L5.42578 15.8213C5.25749 15.7248 5.03728 15.5526 4.83887 15.376C4.69075 15.2441 4.54624 15.1027 4.44043 14.9785L4.34863 14.8613C4.04881 14.4338 3.82814 13.8871 3.73828 13.3604L3.70801 13.1357C3.67716 12.8244 3.73144 12.5479 3.96387 12.415L4.04102 12.3809C4.12123 12.3533 4.2079 12.3476 4.28809 12.3564Z" fill="#6147C6" stroke="#6147C6" stroke-width="0.3"/>
</svg>
