<svg width="20" height="22" viewBox="0 0 20 22" fill="none" xmlns="http://www.w3.org/2000/svg">
<path fill-rule="evenodd" clip-rule="evenodd" d="M8.08957 1.00988C8.02333 1.03045 7.95403 1.06881 7.90714 1.11087C7.70355 1.2935 5.41444 4.13648 4.58627 5.23525C3.32662 6.9065 2.54402 8.08767 1.97725 9.17299C1.41813 10.2437 1.12888 11.0787 1.01971 11.9371C0.993543 12.1429 0.993396 12.9505 1.01948 13.1957C1.26361 15.4901 2.67946 17.4055 4.88261 18.4218C6.20775 19.033 7.69702 19.2591 9.20766 19.0783C9.35128 19.0611 9.53673 19.0345 9.61976 19.0192L9.77074 18.9915L9.86287 19.1073C10.6044 20.0395 11.7343 20.7018 12.9622 20.9241C13.3032 20.9858 13.4813 21 13.9162 21C14.349 21 14.5318 20.9856 14.8629 20.9253C16.124 20.6958 17.2324 20.0397 17.9971 19.0702C18.528 18.397 18.8394 17.6678 18.9699 16.7923C19.01 16.523 19.01 15.8599 18.9699 15.5906C18.8441 14.7463 18.555 14.0499 18.0558 13.3882C17.4301 12.5588 16.5478 11.9453 15.5055 11.6149C15.3717 11.5725 15.3424 11.5575 15.3331 11.5266C15.327 11.5061 15.2949 11.3781 15.2618 11.2422C14.9268 9.86758 14.0093 8.19708 12.3442 5.93014C11.4865 4.7625 10.2327 3.17134 9.00994 1.699C8.54383 1.13774 8.49725 1.08678 8.41276 1.0457C8.33036 1.00565 8.16297 0.987101 8.08957 1.00988ZM8.17647 1.9729C8.0971 2.05554 7.18131 3.18019 6.54478 3.97671C4.16134 6.95916 2.88653 8.87226 2.23841 10.4392C1.86804 11.3347 1.73523 12.0534 1.78687 12.8829C1.86366 14.1164 2.2811 15.1725 3.07036 16.1298C3.25345 16.3519 3.77931 16.8515 4.01931 17.0315C4.5887 17.4583 5.14613 17.7562 5.82588 17.997C6.69218 18.304 7.7254 18.4455 8.65274 18.3843C8.93709 18.3655 9.30114 18.3236 9.31895 18.3076C9.32631 18.301 9.30922 18.2478 9.28097 18.1894C9.07324 17.7596 8.93242 17.2791 8.85388 16.7319C8.82186 16.5089 8.8271 15.8301 8.8627 15.5906C8.96509 14.9013 9.18061 14.3023 9.52306 13.7552C10.2763 12.5518 11.5281 11.7162 12.9636 11.4586C13.3618 11.3871 13.9341 11.356 14.2914 11.3863C14.3946 11.395 14.4817 11.3996 14.485 11.3964C14.5036 11.3788 14.3603 10.9162 14.2394 10.6035C13.6502 9.07941 12.4232 7.19906 10.1318 4.30872C9.52263 3.5404 8.30338 2.03483 8.22136 1.94973C8.21513 1.94325 8.19491 1.95367 8.17647 1.9729ZM4.16449 9.09388C4.11961 9.11391 4.06699 9.14685 4.04756 9.16709C3.94675 9.27208 3.44527 10.1731 3.2621 10.5784C2.99586 11.1675 2.83112 11.7261 2.78627 12.1919C2.75118 12.5562 2.76773 13.0544 2.82702 13.4196C3.05385 14.8166 3.94866 16.053 5.19168 16.6871C5.30397 16.7444 5.33437 16.7531 5.42017 16.7529C5.61041 16.7523 5.76531 16.6367 5.80388 16.4665C5.84448 16.2873 5.75932 16.1393 5.55177 16.0283C4.52412 15.4787 3.81566 14.5038 3.61127 13.3578C3.53962 12.9561 3.53496 12.3842 3.60044 12.0298C3.71516 11.4088 4.01566 10.7061 4.54747 9.81552C4.72399 9.5199 4.74571 9.45626 4.7113 9.33537C4.64623 9.1067 4.38968 8.9934 4.16449 9.09388ZM13.5311 12.1315C12.7537 12.1972 11.9607 12.4855 11.3375 12.929C10.774 13.3301 10.3314 13.8403 10.0341 14.4317C9.58358 15.3277 9.48823 16.3165 9.76139 17.2595C10.1668 18.659 11.3083 19.739 12.7874 20.1226C14.7853 20.6407 16.9089 19.7205 17.7984 17.9512C18.1331 17.2854 18.2743 16.5619 18.2081 15.8517C18.0482 14.1355 16.7967 12.7145 15.0451 12.2603C14.5626 12.1352 14.0269 12.0896 13.5311 12.1315ZM13.8041 13.2443C13.7318 13.264 11.3264 14.5771 11.2681 14.6287C11.2434 14.6506 11.2067 14.7002 11.1865 14.739L11.1498 14.8094V16.1914C11.1498 17.7253 11.1422 17.6167 11.2587 17.7385C11.2969 17.7785 11.6742 17.9922 12.529 18.4579C13.1977 18.8223 13.7698 19.1285 13.8003 19.1384C13.8711 19.1613 13.9614 19.1613 14.0321 19.1384C14.0626 19.1285 14.6348 18.8223 15.3035 18.4579C16.1583 17.9922 16.5356 17.7785 16.5738 17.7385C16.6903 17.6167 16.6826 17.7253 16.6826 16.1914V14.8094L16.646 14.739C16.6258 14.7002 16.5891 14.6506 16.5644 14.6287C16.5004 14.572 14.0987 13.264 14.0213 13.2436C13.9452 13.2236 13.8794 13.2238 13.8041 13.2443ZM13.1332 14.4536C12.7069 14.6866 12.3559 14.8836 12.3531 14.8916C12.3503 14.8995 12.7009 15.0986 13.1321 15.334L13.9162 15.762L14.6996 15.3344C15.1305 15.0992 15.4831 14.9012 15.4831 14.8943C15.4831 14.8835 13.933 14.029 13.9149 14.0298C13.9111 14.03 13.5594 14.2207 13.1332 14.4536ZM11.9376 16.4009C11.9352 16.8734 11.9369 17.2652 11.9414 17.2716C11.9459 17.2781 12.3021 17.4756 12.733 17.7106L13.5164 18.1379L13.5206 17.2775C13.5229 16.8043 13.5193 16.4119 13.5124 16.4055C13.5056 16.3991 13.1806 16.2193 12.7901 16.0058C12.3996 15.7923 12.049 15.6006 12.0111 15.5798L11.9419 15.5419L11.9376 16.4009ZM15.3688 15.8273C15.086 15.9818 14.7335 16.1745 14.5854 16.2556L14.3161 16.403L14.3119 17.2713L14.3077 18.1397L14.4195 18.0805C14.8617 17.8465 15.891 17.2772 15.8947 17.2647C15.8972 17.2562 15.8956 16.8661 15.8911 16.3979L15.8829 15.5465L15.3688 15.8273Z" fill="#6147C6" stroke="#6147C6" stroke-width="0.2"/>
</svg>
