<svg width="21" height="16" viewBox="0 0 21 16" fill="none" xmlns="http://www.w3.org/2000/svg">
<path d="M8.33242 2.12775L6.14169 1.1968C6.01718 1.1439 5.87676 1.14261 5.75131 1.19324C5.62586 1.24387 5.52566 1.34225 5.47275 1.46676L2.54692 8.35194C2.52072 8.41359 2.50692 8.47979 2.50631 8.54677C2.5057 8.61375 2.51829 8.6802 2.54336 8.74232C2.56842 8.80443 2.60548 8.861 2.65241 8.9088C2.69934 8.95659 2.75523 8.99467 2.81688 9.02087L5.00761 9.95182C5.06926 9.97802 5.13547 9.99181 5.20245 9.99243C5.26943 9.99304 5.33587 9.98045 5.39799 9.95538C5.46011 9.93031 5.51668 9.89326 5.56447 9.84633C5.61227 9.7994 5.65035 9.74351 5.67655 9.68186L8.60238 2.79668C8.65529 2.67218 8.65657 2.53176 8.60594 2.40631C8.55532 2.28086 8.45693 2.18066 8.33242 2.12775ZM17.7213 6.11752L15.5306 5.18658C15.4061 5.13367 15.2656 5.13239 15.1402 5.18301C15.0147 5.23364 14.9145 5.33203 14.8616 5.45653L11.9358 12.3417C11.9096 12.4034 11.8958 12.4696 11.8952 12.5365C11.8946 12.6035 11.9072 12.67 11.9322 12.7321C11.9573 12.7942 11.9944 12.8508 12.0413 12.8986C12.0882 12.9464 12.1441 12.9844 12.2058 13.0106L14.3965 13.9416C14.4581 13.9678 14.5244 13.9816 14.5913 13.9822C14.6583 13.9828 14.7248 13.9702 14.7869 13.9452C14.849 13.9201 14.9056 13.883 14.9534 13.8361C15.0012 13.7892 15.0392 13.7333 15.0654 13.6716L17.9913 6.78645C18.0442 6.66195 18.0455 6.52153 17.9948 6.39608C17.9442 6.27063 17.8458 6.17043 17.7213 6.11752Z" stroke="#6147C6" stroke-linecap="round" stroke-linejoin="round"/>
<path d="M7.13956 6.23953L13.3988 8.89938M0.864759 5.78994L2.46067 2.03439C2.51358 1.90988 2.61378 1.81149 2.73922 1.76087C2.86467 1.71024 3.0051 1.71152 3.1296 1.76443L4.53793 2.3629C4.66244 2.4158 4.76082 2.516 4.81145 2.64145C4.86208 2.7669 4.8608 2.90732 4.80789 3.03183L3.21198 6.78738C3.15907 6.91189 3.05887 7.01027 2.93342 7.0609C2.80797 7.11153 2.66755 7.11025 2.54305 7.05734L1.13471 6.45887C1.01021 6.40596 0.911822 6.30576 0.861196 6.18032C0.810569 6.05487 0.811851 5.91444 0.864759 5.78994ZM18.0777 13.1045L19.6736 9.34897C19.7265 9.22446 19.7278 9.08404 19.6772 8.95859C19.6266 8.83314 19.5282 8.73294 19.4037 8.68003L17.9953 8.08157C17.8708 8.02866 17.7304 8.02738 17.605 8.078C17.4795 8.12863 17.3793 8.22702 17.3264 8.35152L15.7305 12.1071C15.6776 12.2316 15.6763 12.372 15.7269 12.4975C15.7776 12.6229 15.8759 12.7231 16.0004 12.776L17.4088 13.3745C17.5333 13.4274 17.6737 13.4287 17.7992 13.378C17.9246 13.3274 18.0248 13.229 18.0777 13.1045Z" stroke="#6147C6" stroke-linecap="round" stroke-linejoin="round"/>
</svg>
