<svg width="20" height="20" viewBox="0 0 20 20" fill="none" xmlns="http://www.w3.org/2000/svg">
<path d="M14.3636 14.5135C16.2995 12.55 15.0087 6.00443 12.105 3.05885C10.8147 1.74945 7.10438 -1.03274 3.07146 3.05885C-0.96147 7.14952 1.78114 10.9134 3.07146 12.2228C5.97513 15.1684 12.4276 16.4769 14.3636 14.5135Z" stroke="#6147C6" stroke-width="1.5" stroke-linecap="round" stroke-linejoin="round"/>
<path d="M17.8428 17.8116L14.6489 14.5717" stroke="#6147C6" stroke-width="1.5"/>
<path d="M18.6673 17.6656C18.5127 17.8224 18.2618 17.8228 18.1071 17.6663C17.9525 17.5094 17.9525 17.2543 18.1071 17.0974C18.2618 16.9408 18.5127 16.9413 18.6673 17.0981C18.8215 17.2549 18.8215 17.5088 18.6673 17.6656Z" fill="#6147C6" stroke="#6147C6" stroke-width="1.5"/>
<path d="M17.6995 18.6474C17.5449 18.8042 17.2941 18.8046 17.1394 18.6481C16.9847 18.4912 16.9847 18.2361 17.1394 18.0792C17.2941 17.9226 17.5449 17.9231 17.6995 18.0799C17.8537 18.2367 17.8537 18.4906 17.6995 18.6474Z" fill="#6147C6" stroke="#6147C6" stroke-width="1.5"/>
<path d="M6.8916 6.99048C6.97127 6.99048 7.05469 7.05906 7.05469 7.16626C7.05465 7.27342 6.97125 7.34204 6.8916 7.34204C6.81208 7.3418 6.72953 7.27323 6.72949 7.16626C6.72949 7.05924 6.81206 6.99072 6.8916 6.99048Z" fill="#6147C6" stroke="#6147C6" stroke-width="1.5"/>
<path d="M4.6106 8.37903C4.69026 8.37903 4.77368 8.44761 4.77368 8.55481C4.77364 8.66197 4.69024 8.73059 4.6106 8.73059C4.53108 8.73035 4.44853 8.66178 4.44849 8.55481C4.44849 8.44779 4.53106 8.37927 4.6106 8.37903Z" fill="#6147C6" stroke="#6147C6" stroke-width="1.5"/>
<path d="M6.8916 9.76733C6.97127 9.76733 7.05469 9.83591 7.05469 9.94312C7.05465 10.0503 6.97125 10.1189 6.8916 10.1189C6.81208 10.1187 6.72953 10.0501 6.72949 9.94312C6.72949 9.8361 6.81206 9.76757 6.8916 9.76733Z" fill="#6147C6" stroke="#6147C6" stroke-width="1.5"/>
</svg>
