<svg width="17" height="20" viewBox="0 0 17 20" fill="none" xmlns="http://www.w3.org/2000/svg">
<path d="M8.24902 0.150391C8.40774 0.150272 8.56258 0.19107 8.69727 0.267578L8.82422 0.355469L9.15527 0.640625C10.2146 1.57701 11.2131 2.57575 12.1455 3.63086L12.541 4.08594C13.3513 5.03973 14.1737 6.13052 14.8457 7.28418L15.124 7.7832C15.8346 9.11188 16.3496 10.5625 16.3496 12C16.3496 13.9504 15.6007 15.8264 14.2559 17.2666L13.9795 17.5488C12.4608 19.0215 10.3997 19.8496 8.25 19.8496C6.2345 19.8496 4.29722 19.122 2.81152 17.8174L2.52051 17.5488C1.00215 16.0763 0.150392 14.0803 0.150391 12C0.150391 10.742 0.544332 9.47373 1.11914 8.28613L1.37598 7.7832V7.78223C2.00079 6.61301 2.80083 5.49481 3.61133 4.50391L3.95898 4.08691C4.55753 3.38482 5.18503 2.70657 5.83984 2.05371L6.50391 1.40918C6.85657 1.07556 7.21717 0.749547 7.58496 0.431641L7.58398 0.430664L7.67383 0.355469L7.6748 0.356445C7.79436 0.257016 7.93879 0.191027 8.09277 0.164062L8.24902 0.150391ZM8.14844 2.23926C7.26992 3.04133 6.43735 3.88935 5.6543 4.7793L5.32129 5.16406C4.55363 6.0693 3.79799 7.07653 3.19238 8.11426L2.94238 8.56152H2.94141C2.33934 9.68856 1.96181 10.7911 1.91699 11.7998L1.91211 11.999C1.91212 13.5295 2.50063 15.0001 3.55371 16.1279L3.77051 16.3496C4.95933 17.5023 6.57076 18.1494 8.25 18.1494C9.82439 18.1494 11.3392 17.5805 12.502 16.5596L12.7295 16.3496C13.9185 15.1966 14.5879 13.6316 14.5879 11.999C14.5879 11.0695 14.2912 10.0544 13.7861 9.00977L13.5566 8.56055C12.9976 7.51521 12.2682 6.48905 11.5059 5.55566L11.1777 5.16211C10.2993 4.13199 9.35527 3.15539 8.35156 2.23926L8.25 2.14648L8.14844 2.23926Z" fill="#6147C6" stroke="white" stroke-width="0.3"/>
<path d="M4.53796 12.186C4.73496 12.1293 4.94522 12.1409 5.13269 12.2173L5.21082 12.2544C5.391 12.349 5.53024 12.4998 5.60632 12.6802L5.63464 12.7593C5.74895 13.1284 5.94429 13.468 6.20593 13.7554L6.32214 13.8755C6.60263 14.1475 6.94025 14.3563 7.31042 14.4888L7.47058 14.5405L7.47253 14.5415C7.58449 14.573 7.68869 14.6254 7.77917 14.6958C7.86974 14.7663 7.94453 14.8535 7.99988 14.9517C8.05517 15.0498 8.09027 15.1573 8.10242 15.2681C8.11451 15.3788 8.1039 15.4912 8.07117 15.5981C8.0384 15.705 7.98396 15.8051 7.91101 15.8921C7.85623 15.9573 7.79166 16.015 7.7196 16.062L7.64441 16.105C7.54177 16.1584 7.42869 16.1925 7.31238 16.2036C7.22546 16.2119 7.13789 16.2074 7.05261 16.1909L6.96765 16.1704L6.96667 16.1694C6.25128 15.962 5.60048 15.586 5.07312 15.0747C4.61176 14.6273 4.25743 14.0886 4.03308 13.4976L3.94421 13.2407C3.88682 13.0528 3.8986 12.8519 3.97644 12.6724L4.01453 12.5972C4.11124 12.4242 4.26686 12.2889 4.45496 12.2144L4.53796 12.186Z" fill="#6147C6" stroke="#D9D9D9" stroke-width="0.3"/>
</svg>
