<svg width="23" height="24" viewBox="0 0 23 24" fill="none" xmlns="http://www.w3.org/2000/svg">
<path fill-rule="evenodd" clip-rule="evenodd" d="M16.8123 6.02398C16.8986 5.99728 16.9905 5.99279 17.0791 6.01094C17.1677 6.0291 17.2498 6.06928 17.3173 6.12748L21.591 9.81685C21.6594 9.87585 21.7104 9.95127 21.7386 10.0354C21.7669 10.1196 21.7715 10.2094 21.7519 10.2958L20.5308 15.6872C20.5105 15.7768 20.465 15.8594 20.3993 15.9258C20.3336 15.9922 20.2501 16.0399 20.1582 16.0636L14.6633 17.4826C14.5759 17.5052 14.4839 17.5053 14.3964 17.483C14.3089 17.4608 14.229 17.4168 14.1645 17.3556L11.798 15.1057C11.7 15.0125 11.6445 14.8856 11.6436 14.7529C11.6427 14.6202 11.6966 14.4926 11.7934 14.3982C11.8901 14.3038 12.0218 14.2503 12.1596 14.2494C12.2973 14.2486 12.4297 14.3005 12.5277 14.3937L14.6814 16.4426L19.5842 15.1767L20.6735 10.3668L16.8466 7.06395L11.8873 8.60039L11.359 10.1553C11.3378 10.2178 11.304 10.2755 11.2597 10.3254C11.2153 10.3752 11.1612 10.4162 11.1004 10.4458C11.0396 10.4755 10.9733 10.4934 10.9054 10.4984C10.8374 10.5034 10.7691 10.4955 10.7043 10.4751C10.6395 10.4547 10.5795 10.4222 10.5278 10.3794C10.4761 10.3367 10.4336 10.2845 10.4028 10.2259C10.3719 10.1674 10.3534 10.1035 10.3482 10.0381C10.343 9.97258 10.3512 9.90676 10.3724 9.84435L10.9827 8.04691C11.0083 7.9719 11.052 7.90379 11.1102 7.84818C11.1684 7.79256 11.2394 7.75101 11.3175 7.72692L16.8123 6.02398Z" fill="#6147C6"/>
<path fill-rule="evenodd" clip-rule="evenodd" d="M15.911 11.0122C16.0452 11.0417 16.1617 11.1213 16.235 11.2335C16.3083 11.3457 16.3323 11.4814 16.3018 11.6107L15.0043 17.1105C14.9727 17.2387 14.8898 17.3497 14.7737 17.4194C14.6576 17.489 14.5176 17.5116 14.3842 17.4824C14.2509 17.4531 14.1349 17.3743 14.0615 17.2631C13.9881 17.1519 13.9633 17.0173 13.9923 16.8885L15.2898 11.3887C15.3203 11.2594 15.403 11.1471 15.5195 11.0765C15.6359 11.0059 15.7768 10.9828 15.911 11.0122Z" fill="#6147C6"/>
<path fill-rule="evenodd" clip-rule="evenodd" d="M11.2485 7.92677C11.3375 7.82569 11.4645 7.76281 11.6016 7.75193C11.7388 7.74106 11.8748 7.78308 11.9797 7.86877L15.7501 10.9487L19.292 10.0177C19.4249 9.98282 19.5666 10.0002 19.6861 10.066C19.8057 10.1319 19.8931 10.2407 19.9293 10.3687C19.9655 10.4966 19.9475 10.6332 19.8792 10.7484C19.8108 10.8635 19.6978 10.9478 19.565 10.9827L15.7594 11.9826C15.6781 12.004 15.5926 12.006 15.5103 11.9884C15.428 11.9708 15.3514 11.9342 15.2871 11.8816L11.3087 8.63174C11.2567 8.58928 11.2138 8.53735 11.1827 8.47893C11.1515 8.42051 11.1325 8.35674 11.127 8.29127C11.1214 8.2258 11.1292 8.15991 11.1501 8.09737C11.1709 8.03483 11.2044 7.97685 11.2485 7.92677ZM4.50393 8.63874C4.56934 8.57848 4.64998 8.53575 4.73783 8.51479C4.82568 8.49383 4.91769 8.49537 5.00474 8.51925L9.29664 9.69971C9.3839 9.72364 9.46313 9.7692 9.52642 9.83184C9.58971 9.89448 9.63484 9.97201 9.65732 10.0567L10.8494 14.5425C10.8732 14.6319 10.8708 14.7259 10.8426 14.814C10.8144 14.9022 10.7614 14.9811 10.6896 15.042L7.35205 17.8749C7.2868 17.9304 7.20812 17.9692 7.12323 17.9877C7.03835 18.0063 6.94999 18.0039 6.86629 17.9809L2.57387 16.8C2.48796 16.7763 2.40985 16.7316 2.34711 16.6703C2.28438 16.609 2.23914 16.5331 2.21578 16.45L1.02318 12.2001C0.998864 12.1133 0.999285 12.0218 1.0244 11.9352C1.04952 11.8487 1.0984 11.7702 1.1659 11.7081L4.50393 8.63874ZM5.00577 9.55971L2.10524 12.2261L3.14007 15.916L6.87771 16.944L9.76475 14.4941L8.72525 10.5827L5.00577 9.55971Z" fill="#6147C6"/>
<path fill-rule="evenodd" clip-rule="evenodd" d="M8.11857 11.1461C8.21587 11.2399 8.27052 11.3671 8.27052 11.4996C8.27052 11.6322 8.21587 11.7594 8.11857 11.8531L6.04268 13.8531C5.97771 13.9156 5.89669 13.9603 5.80789 13.9828C5.71909 14.0053 5.62568 14.0047 5.53721 13.9811L1.38543 12.8701C1.31912 12.8531 1.25698 12.8236 1.20259 12.7833C1.1482 12.743 1.10265 12.6927 1.06856 12.6353C1.03448 12.5779 1.01254 12.5146 1.00402 12.449C0.995497 12.3834 1.00056 12.3169 1.01891 12.2532C1.03727 12.1895 1.06855 12.1299 1.11095 12.078C1.15335 12.026 1.20603 11.9826 1.26594 11.9504C1.32584 11.9182 1.39179 11.8977 1.45995 11.8902C1.52812 11.8827 1.59716 11.8883 1.66308 11.9066L5.52319 12.9396L7.38475 11.1461C7.48207 11.0524 7.61405 10.9998 7.75166 10.9998C7.88927 10.9998 8.02125 11.0524 8.11857 11.1461Z" fill="#6147C6"/>
<path fill-rule="evenodd" clip-rule="evenodd" d="M5.55019 13.0146C5.68363 12.9826 5.82483 13.0028 5.94276 13.071C6.0607 13.1391 6.14573 13.2496 6.17919 13.3781L7.21713 17.378C7.24948 17.5062 7.22787 17.6416 7.15702 17.7546C7.08617 17.8675 6.97183 17.9489 6.83894 17.981C6.70605 18.0131 6.56539 17.9932 6.44763 17.9258C6.32987 17.8583 6.24457 17.7488 6.21033 17.621L5.17238 13.6211C5.15583 13.5574 5.15248 13.4911 5.16251 13.4262C5.17254 13.3612 5.19576 13.2988 5.23085 13.2424C5.26594 13.1861 5.3122 13.137 5.36699 13.0979C5.42179 13.0588 5.48404 13.0305 5.55019 13.0146Z" fill="#6147C6"/>
</svg>
