<svg width="21" height="23" viewBox="0 0 21 23" fill="none" xmlns="http://www.w3.org/2000/svg">
<path d="M13.6667 1.65625C13.6667 2.87988 13.9388 4.00781 14.4831 5.04004C15.0273 6.07227 15.8108 7.02246 16.8333 7.89062C17.8559 8.75879 18.6393 9.70898 19.1836 10.7412C19.7279 11.7734 20 12.9014 20 14.125C20 14.8496 19.8887 15.5469 19.666 16.2168C19.4434 16.8867 19.1217 17.5122 18.7012 18.0933C18.2806 18.6743 17.7858 19.2075 17.2168 19.6929C16.6478 20.1782 16.0087 20.5884 15.2995 20.9233C14.5903 21.2583 13.8316 21.5215 13.0234 21.7129C12.2153 21.9043 11.3741 22 10.5 22C9.62587 22 8.78472 21.9077 7.97656 21.7231C7.1684 21.5386 6.41385 21.272 5.71289 20.9233C5.01194 20.5747 4.36871 20.1646 3.7832 19.6929C3.1977 19.2212 2.70291 18.6914 2.29883 18.1035C1.89475 17.5156 1.57726 16.8867 1.34635 16.2168C1.11545 15.5469 1 14.8496 1 14.125C1 13.5508 1.07422 12.9868 1.22266 12.4331C1.37109 11.8794 1.5855 11.3496 1.86589 10.8438C2.14627 10.3379 2.49262 9.85596 2.90495 9.39795C3.31727 8.93994 3.7832 8.52637 4.30273 8.15723C4.36046 8.41699 4.4388 8.68359 4.53776 8.95703C4.63672 9.23047 4.75217 9.50391 4.88411 9.77734C5.01606 10.0508 5.17274 10.3105 5.35417 10.5566C5.53559 10.8027 5.72526 11.0317 5.92318 11.2437C6.08811 11.4146 6.30252 11.5 6.56641 11.5C6.78906 11.5 6.97461 11.4351 7.12305 11.3052C7.27148 11.1753 7.34983 11.0181 7.35807 10.8335C7.35807 10.7583 7.3457 10.6899 7.32096 10.6284C7.29622 10.5669 7.25499 10.5054 7.19727 10.4438C6.96636 10.1636 6.76432 9.88672 6.59115 9.61328C6.41797 9.33984 6.26541 9.05957 6.13346 8.77246C6.00152 8.48535 5.90668 8.18799 5.84896 7.88037C5.79123 7.57275 5.75825 7.24805 5.75 6.90625C5.75 6.09277 5.93555 5.32715 6.30664 4.60938C6.67773 3.8916 7.18902 3.26611 7.8405 2.73291C8.49197 2.19971 9.24653 1.7793 10.1042 1.47168C10.9618 1.16406 11.8854 1.00684 12.875 1H13.6667V1.65625ZM10.5 20.6875C11.5968 20.6875 12.6235 20.5166 13.5801 20.1748C14.5367 19.833 15.3778 19.3647 16.1035 18.77C16.8292 18.1753 17.3941 17.4814 17.7982 16.6885C18.2023 15.8955 18.4084 15.041 18.4167 14.125C18.4167 13.0928 18.1858 12.1323 17.724 11.2437C17.2622 10.355 16.5942 9.54834 15.7201 8.82373C14.648 7.92822 13.8069 6.94043 13.1966 5.86035C12.5864 4.78027 12.2235 3.61133 12.1081 2.35352C11.4236 2.42871 10.7928 2.59961 10.2155 2.86621C9.63824 3.13281 9.13108 3.47119 8.69401 3.88135C8.25694 4.2915 7.92296 4.75293 7.69206 5.26562C7.46115 5.77832 7.34158 6.3252 7.33333 6.90625C7.33333 7.43945 7.42817 7.92139 7.61784 8.35205C7.80751 8.78271 8.08789 9.21338 8.45898 9.64404C8.61567 9.82178 8.73524 10.0063 8.81771 10.1978C8.90017 10.3892 8.94553 10.6011 8.95378 10.8335C8.95378 11.1069 8.89193 11.3633 8.76823 11.6025C8.64453 11.8418 8.47135 12.0503 8.2487 12.228C8.02604 12.4058 7.77452 12.5493 7.49414 12.6587C7.21376 12.7681 6.90451 12.8193 6.56641 12.8125C6.18707 12.8125 5.85308 12.7544 5.56445 12.6382C5.27582 12.522 5.02018 12.3647 4.79753 12.1665C4.57487 11.9683 4.37695 11.7461 4.20378 11.5C4.0306 11.2539 3.86567 11.0078 3.70898 10.7617C3.32964 11.2607 3.04926 11.7974 2.86784 12.3716C2.68641 12.9458 2.59158 13.5303 2.58333 14.125C2.58333 15.0342 2.7895 15.8853 3.20182 16.6782C3.61415 17.4712 4.17904 18.1685 4.89648 18.77C5.61393 19.3716 6.45095 19.8398 7.40755 20.1748C8.36415 20.5098 9.39497 20.6807 10.5 20.6875Z" fill="white" stroke="white" stroke-width="0.2"/>
</svg>
