<svg width="23" height="24" viewBox="0 0 23 24" fill="none" xmlns="http://www.w3.org/2000/svg">
<path fill-rule="evenodd" clip-rule="evenodd" d="M9.237 2.04143C9.13044 2.09403 9.05382 2.26434 9.08055 2.3892C9.09319 2.4483 9.20035 2.57694 9.43611 2.81605L9.77356 3.15831L9.68811 3.26507C8.67417 4.53158 8.49629 6.27798 9.23428 7.72077C9.4891 8.219 9.93442 8.77417 10.1251 8.83134C10.2756 8.87646 10.3591 8.83409 10.5815 8.59975C11.0676 8.08756 11.4446 7.32887 11.5836 6.5831C11.6522 6.21451 11.6524 5.44197 11.5839 5.07273C11.4794 4.50965 11.2284 3.91913 10.8869 3.43287C10.7007 3.16789 9.68345 2.10549 9.54906 2.03569C9.45378 1.98621 9.34478 1.98823 9.237 2.04143ZM2.25131 2.25337C2.15177 2.353 2.12836 2.48556 2.18918 2.60487C2.20585 2.63755 2.46279 2.90991 2.76017 3.2101L3.30084 3.75588L3.30095 3.89045C3.301 3.96444 3.31897 4.13556 3.34089 4.27074C3.64759 6.16335 5.25301 7.61578 7.13563 7.70387C7.42466 7.7174 7.49019 7.71277 7.56602 7.67353C7.70328 7.60247 7.74142 7.48113 7.72 7.18352C7.66301 6.39208 7.4447 5.73903 7.02484 5.10394C6.82768 4.8057 6.39517 4.34582 6.10949 4.13061C5.49244 3.6658 4.7752 3.38166 4.02235 3.30383L3.75143 3.2758L3.19036 2.71832L2.62933 2.16084H2.48653C2.36042 2.16084 2.33296 2.17165 2.25131 2.25337ZM10.0253 3.88169C9.81383 4.20352 9.70706 4.41823 9.60871 4.71946C9.2702 5.75623 9.41145 6.85284 9.99837 7.74486C10.2208 8.08296 10.2038 8.0798 10.3783 7.81575C10.6412 7.41775 10.8118 7.03523 10.9202 6.60016C11.0016 6.27338 11.0077 5.44153 10.9311 5.11355C10.8603 4.81055 10.7374 4.46997 10.6119 4.2291C10.4922 3.99936 10.2618 3.6532 10.219 3.63894C10.2036 3.63377 10.1164 3.743 10.0253 3.88169ZM3.94534 3.95016C3.92188 3.99272 4.01286 4.41434 4.10506 4.69024C4.52451 5.94569 5.59481 6.83589 6.93747 7.04603L7.05303 7.06413L7.05243 6.97329C7.05143 6.81667 6.95031 6.41445 6.84631 6.15344C6.65138 5.66419 6.4067 5.29294 6.03499 4.92251C5.55319 4.44229 4.96564 4.12775 4.28804 3.98722C3.97898 3.92313 3.9613 3.9212 3.94534 3.95016ZM12.7725 5.61499C12.7196 5.64727 12.6742 5.70575 12.6537 5.76807C12.5955 5.9445 12.6438 6.03011 13.0041 6.38939L13.3283 6.71277L13.1688 6.92806C12.5529 7.75953 12.2617 8.76404 12.3514 9.74763C12.4344 10.6567 12.7719 11.4451 13.3693 12.1254C13.6876 12.4879 13.8272 12.5024 14.105 12.2021C14.6487 11.6144 14.9847 10.9432 15.1469 10.1209C15.2196 9.7527 15.2124 8.9651 15.133 8.59289C15.0058 7.99628 14.738 7.38923 14.4014 6.93421C14.3028 6.80097 13.9697 6.43786 13.6611 6.12726L13.1 5.56258L12.9791 5.56269C12.9078 5.56274 12.8229 5.58424 12.7725 5.61499ZM13.6132 7.39178C12.9889 8.29787 12.8164 9.43432 13.1473 10.4611C13.2688 10.838 13.6804 11.5768 13.7689 11.5768C13.8096 11.5768 14.0622 11.2036 14.182 10.9666C14.3052 10.7226 14.4504 10.2952 14.5063 10.012C14.5619 9.72984 14.5561 9.00753 14.4959 8.72866C14.4303 8.42466 14.3286 8.12142 14.2054 7.86215C14.0972 7.63464 13.8287 7.21987 13.7787 7.20322C13.7628 7.19791 13.6883 7.28277 13.6132 7.39178ZM5.58478 8.79128C5.28229 8.8118 4.88317 8.89149 4.57011 8.99384C4.09818 9.14811 3.75812 9.33352 3.20282 9.73928C3.1756 9.75917 3.08237 9.68267 2.83236 9.4353C2.63615 9.24116 2.46744 9.09698 2.42356 9.08596C2.1578 9.0192 1.91155 9.29447 2.03096 9.52478C2.10144 9.66071 3.1858 10.7056 3.45038 10.8925C3.92511 11.2279 4.55377 11.4889 5.13615 11.5923C5.54177 11.6643 6.18761 11.6593 6.58414 11.5811C7.39114 11.4219 8.09625 11.0675 8.62313 10.5563C8.82668 10.3588 8.84756 10.3289 8.84756 10.2352C8.84756 10.0833 8.79416 10.0028 8.55739 9.79771C7.8405 9.17663 6.96692 8.83061 6.01982 8.79259C5.8628 8.78628 5.66703 8.78568 5.58478 8.79128ZM9.24181 9.07167C9.10641 9.12716 9.02399 9.31072 9.06701 9.46096C9.08609 9.52753 10.62 11.0789 15.2712 15.7355C18.6696 19.1378 21.4831 21.9392 21.5235 21.9607C21.7627 22.088 22.0422 21.8877 21.9947 21.6229C21.9789 21.535 21.2592 20.8049 15.786 15.3238C12.3811 11.9139 9.56224 9.1065 9.52187 9.085C9.44157 9.0423 9.32683 9.03684 9.24181 9.07167ZM16.3307 9.17007C16.2543 9.2236 16.1888 9.34846 16.1888 9.44055C16.1888 9.55806 16.2526 9.64441 16.5793 9.96891L16.892 10.2796L16.8027 10.3907C16.3952 10.8977 16.0693 11.6122 15.9575 12.2436C15.7307 13.5242 16.1406 14.8845 17.0289 15.7987C17.17 15.944 17.1943 15.9583 17.2995 15.9583C17.4581 15.9583 17.5406 15.9089 17.7164 15.7084C18.1909 15.1675 18.5397 14.4815 18.6759 13.8217C18.8232 13.108 18.7841 12.3639 18.5623 11.6585C18.4677 11.3574 18.1967 10.8233 17.9942 10.5387C17.8214 10.2959 16.7943 9.2285 16.673 9.16569C16.5753 9.11513 16.4059 9.11731 16.3307 9.17007ZM5.32702 9.4556C5.048 9.49917 4.73801 9.58938 4.48147 9.7017C4.04475 9.8929 3.62244 10.1697 3.66423 10.2374C3.69229 10.2829 4.10451 10.5497 4.29326 10.6445C4.49836 10.7476 4.88763 10.8775 5.18196 10.941C5.51561 11.0129 6.18992 11.008 6.53642 10.9311C6.86828 10.8575 7.18738 10.7403 7.47967 10.5846C7.70847 10.4628 8.02953 10.2462 8.03108 10.2126C8.03412 10.1465 7.45846 9.80519 7.12147 9.67331C6.67202 9.49743 6.42462 9.44899 5.92465 9.43895C5.68538 9.43413 5.41645 9.44164 5.32702 9.4556ZM17.1862 10.929C16.926 11.2941 16.744 11.7049 16.6219 12.2028C16.5681 12.422 16.5583 12.5337 16.5572 12.9375C16.5557 13.4612 16.6 13.7252 16.7649 14.1758C16.9041 14.5565 17.2655 15.1591 17.3397 15.1343C17.39 15.1176 17.6064 14.7837 17.7442 14.5101C18.0068 13.9891 18.1051 13.5645 18.1051 12.9511C18.1051 12.3405 18.007 11.9149 17.7476 11.4C17.6108 11.1284 17.3889 10.7843 17.34 10.768C17.3226 10.7622 17.2534 10.8347 17.1862 10.929ZM8.79318 12.3803C8.1096 12.4971 7.53698 12.7353 6.98865 13.1312L6.72034 13.3249L6.40406 13.0117C6.2301 12.8395 6.06106 12.6849 6.02841 12.6684C5.8653 12.5855 5.64014 12.6744 5.58432 12.8437C5.52048 13.0373 5.55887 13.0931 6.17564 13.702C6.48623 14.0086 6.826 14.3231 6.93068 14.4008C8.16675 15.3179 9.86636 15.465 11.2415 14.7738C11.7119 14.5374 12.3039 14.0793 12.3815 13.8918C12.4242 13.7885 12.3997 13.6475 12.3218 13.5483C12.2326 13.4349 11.7363 13.0495 11.4928 12.9046C11.0639 12.6495 10.5168 12.4566 10.0069 12.3808C9.67247 12.3311 9.08251 12.3309 8.79318 12.3803ZM8.94272 13.0091C8.31333 13.1036 7.71483 13.3553 7.2473 13.7219L7.1833 13.7721L7.28809 13.8543C7.66355 14.149 8.23829 14.4032 8.76599 14.5081C9.0778 14.57 9.70491 14.57 10.0167 14.5081C10.4794 14.4161 10.929 14.231 11.349 13.9593C11.6251 13.7807 11.6254 13.7793 11.4252 13.6364C11.0682 13.3815 10.6849 13.207 10.207 13.0819C9.99133 13.0254 9.87253 13.0128 9.48652 13.0055C9.2323 13.0008 8.98759 13.0024 8.94272 13.0091ZM12.491 15.9318C12.2026 15.9718 11.9098 16.0364 11.6837 16.11C11.3587 16.2159 10.7918 16.5081 10.5227 16.7086L10.281 16.8887L9.96533 16.5761C9.7917 16.4042 9.62293 16.25 9.59028 16.2334C9.55759 16.2168 9.48133 16.2032 9.42077 16.2032C9.19929 16.2032 9.05086 16.4551 9.15475 16.6546C9.22324 16.7862 10.2823 17.8107 10.5434 17.998C10.9848 18.3147 11.5129 18.5469 12.0967 18.6812C12.4575 18.7641 13.1683 18.7835 13.565 18.7213C14.3505 18.5981 15.0292 18.2886 15.6407 17.7747C15.8897 17.5655 15.9711 17.4566 15.9711 17.3326C15.9711 17.2054 15.8896 17.1003 15.6107 16.8675C15.0539 16.4028 14.4057 16.0998 13.6877 15.9684C13.412 15.9179 12.7391 15.8973 12.491 15.9318ZM12.6768 16.5588C12.2117 16.5923 11.8137 16.7046 11.3762 16.9256C11.1158 17.0571 10.7636 17.2923 10.766 17.3329C10.7685 17.3739 11.119 17.6096 11.3567 17.7301C11.6433 17.8755 11.7991 17.9348 12.1219 18.021C12.3775 18.0893 12.4332 18.0942 12.9532 18.0936C13.4693 18.093 13.5309 18.0876 13.7845 18.0204C13.9352 17.9805 14.1249 17.9218 14.206 17.8901C14.5538 17.7538 15.1758 17.3737 15.1416 17.3183C15.1159 17.2767 14.6885 17.0027 14.5098 16.9133C14.127 16.7218 13.6869 16.5963 13.3067 16.5703C13.1796 16.5616 13.045 16.5512 13.0076 16.5471C12.9702 16.5431 12.8214 16.5484 12.6768 16.5588Z" fill="white" stroke="white" stroke-width="0.3"/>
</svg>
