<svg width="23" height="23" viewBox="0 0 23 23" fill="none" xmlns="http://www.w3.org/2000/svg">
<path d="M16.9151 15.915C18.78 14.0505 17.5366 7.83478 14.7395 5.03764C13.4965 3.79422 9.92229 1.15223 6.03732 5.03764C2.15235 8.92216 4.79434 12.4964 6.03732 13.7398C8.83446 16.5369 15.0502 17.7795 16.9151 15.915Z" stroke="white" stroke-width="1.5" stroke-linecap="round" stroke-linejoin="round"/>
<path d="M20.2666 19.0469L17.1899 15.9702" stroke="white" stroke-width="1.5"/>
<path d="M21.0375 18.8853C20.9014 19.0215 20.6807 19.0214 20.5445 18.8853C20.4083 18.7491 20.4083 18.5285 20.5445 18.3923C20.6807 18.2562 20.9014 18.2561 21.0375 18.3923C21.1736 18.5285 21.1736 18.7491 21.0375 18.8853Z" fill="white" stroke="white" stroke-width="1.5"/>
<path d="M20.1054 19.8177C19.9692 19.9539 19.7486 19.9538 19.6124 19.8177C19.4762 19.6815 19.4762 19.4609 19.6124 19.3246C19.7486 19.1886 19.9692 19.1885 20.1054 19.3246C20.2415 19.4608 20.2415 19.6815 20.1054 19.8177Z" fill="white" stroke="white" stroke-width="1.5"/>
<path d="M9.71777 8.8089C9.789 8.8089 9.8466 8.8666 9.84668 8.93781C9.84668 9.00908 9.78905 9.06671 9.71777 9.06671C9.64657 9.06663 9.58887 9.00903 9.58887 8.93781C9.58895 8.86665 9.64662 8.80898 9.71777 8.8089Z" fill="white" stroke="white" stroke-width="1.5"/>
<path d="M7.52026 10.1275C7.59149 10.1275 7.64909 10.1852 7.64917 10.2564C7.64917 10.3277 7.59154 10.3853 7.52026 10.3853C7.44906 10.3852 7.39136 10.3276 7.39136 10.2564C7.39144 10.1853 7.44911 10.1276 7.52026 10.1275Z" fill="white" stroke="white" stroke-width="1.5"/>
<path d="M9.71777 11.4459C9.789 11.4459 9.8466 11.5036 9.84668 11.5748C9.84668 11.6461 9.78905 11.7037 9.71777 11.7037C9.64657 11.7037 9.58887 11.6461 9.58887 11.5748C9.58895 11.5037 9.64662 11.446 9.71777 11.4459Z" fill="white" stroke="white" stroke-width="1.5"/>
</svg>
