<svg width="24" height="24" viewBox="0 0 24 24" fill="none" xmlns="http://www.w3.org/2000/svg">
<path d="M11.999 2.15039C12.1983 2.15024 12.3911 2.22021 12.5439 2.34766H12.5449L12.5518 2.35352L12.873 2.63867C14.047 3.70881 15.144 4.86074 16.1562 6.08496V6.08398C16.942 7.03785 17.7389 8.12931 18.3906 9.2832L18.6611 9.78125C19.3502 11.11 19.8496 12.5614 19.8496 14C19.8496 16.0819 19.0229 18.0786 17.5508 19.5508C16.0786 21.0229 14.0819 21.8496 12 21.8496C10.0482 21.8496 8.17143 21.1231 6.73145 19.8193L6.44922 19.5508C4.97706 18.0786 4.15039 16.0819 4.15039 14C4.15039 12.7413 4.53254 11.4727 5.08984 10.2852L5.33887 9.78125C6.03134 8.44484 6.94489 7.17399 7.84277 6.08496L7.84375 6.08594C8.42432 5.38362 9.03282 4.70479 9.66797 4.05176L10.3115 3.40723C10.653 3.07413 11.0014 2.74809 11.3574 2.43066L11.3584 2.43164L11.4473 2.35449L11.4463 2.35352C11.5618 2.25459 11.7017 2.18968 11.8496 2.16309L11.999 2.15039ZM11.8975 4.24121C11.0453 5.04352 10.237 5.89106 9.47754 6.78125L9.15527 7.16504V7.16602C8.41071 8.07145 7.6771 9.07838 7.08984 10.1162L6.84766 10.5625V10.5635C6.26391 11.6904 5.89795 12.7921 5.85449 13.7998L5.84961 13.999C5.84962 15.5283 6.41971 16.9988 7.44141 18.127L7.65137 18.3477C8.80471 19.501 10.3689 20.1494 12 20.1494C13.5293 20.1494 14.9997 19.5793 16.1279 18.5576L16.3486 18.3477C17.502 17.1943 18.1504 15.6301 18.1504 13.999C18.1504 13.0702 17.8629 12.0554 17.373 11.0107L17.1514 10.5615C16.6093 9.5164 15.9013 8.49095 15.1621 7.55762L14.8438 7.16406V7.16309C13.9919 6.13291 13.0759 5.15744 12.1025 4.24121L12 4.14355L11.8975 4.24121Z" fill="white" stroke="#7662CE" stroke-width="0.3"/>
<path d="M8.36007 14.042C8.10588 14.1175 7.89209 14.2908 7.7657 14.5239C7.6393 14.757 7.61066 15.0308 7.68607 15.285C7.90028 16.0014 8.28926 16.6533 8.818 17.1821C9.34674 17.7108 9.99865 18.0998 10.7151 18.314C10.8413 18.3525 10.9738 18.3657 11.1051 18.3527C11.2364 18.3398 11.3638 18.301 11.4801 18.2386C11.5963 18.1762 11.6991 18.0914 11.7824 17.9891C11.8657 17.8868 11.928 17.769 11.9656 17.6426C12.0032 17.5161 12.0154 17.3834 12.0015 17.2522C11.9876 17.1211 11.9479 16.9939 11.8846 16.8781C11.8214 16.7623 11.7358 16.6602 11.6329 16.5776C11.53 16.4951 11.4118 16.4337 11.2851 16.397C10.8875 16.2776 10.5257 16.0614 10.2322 15.7679C9.93862 15.4743 9.72247 15.1126 9.60307 14.715C9.52736 14.461 9.35392 14.2474 9.12085 14.1212C8.88778 13.995 8.61414 13.9665 8.36007 14.042Z" fill="white"/>
</svg>
