<svg width="414" height="896" viewBox="0 0 414 896" fill="none" xmlns="http://www.w3.org/2000/svg">
<path opacity="0.25" d="M322.506 504.526C323.577 504.614 324.712 504.92 326.072 505.475L326.669 505.728C327.451 506.07 328.033 506.338 328.79 506.854C329.556 507.375 330.511 508.158 332.014 509.539C334.269 511.612 337.723 515 343.571 520.801L350.262 527.447L368.577 545.656L368.691 545.77L368.85 545.795L373.449 546.547C376.607 547.063 379.027 547.767 381.032 548.801C382.906 549.767 384.438 551.032 385.877 552.736L386.164 553.083C393.817 562.537 391.004 575.903 380.367 581.35L379.854 581.603C376.279 583.308 372.775 583.852 369.453 583.282C366.338 582.748 363.35 581.229 360.589 578.715L360.04 578.198C358.246 576.459 356.993 574.91 356.072 573.196C355.267 571.697 354.705 570.051 354.266 568.012L354.085 567.113C353.863 565.932 353.573 564.686 353.286 563.628C353.039 562.715 352.784 561.908 352.566 561.405L352.476 561.209C352.34 560.939 352 560.492 351.557 559.954C351.098 559.398 350.487 558.699 349.771 557.905C348.696 556.714 347.376 555.303 345.956 553.834L344.508 552.353C342.203 550.018 340.45 548.15 339.289 546.799C338.708 546.122 338.284 545.585 338.015 545.189C337.879 544.991 337.793 544.84 337.744 544.735C337.732 544.709 337.725 544.688 337.72 544.673C337.761 544.545 337.868 544.341 338.061 544.104C338.219 543.908 338.411 543.717 338.609 543.559L338.811 543.412C339.086 543.229 339.176 543.205 339.278 543.217C339.424 543.234 339.698 543.345 340.26 543.794C341.089 544.458 342.366 545.703 344.528 547.89L347.003 550.404C349.11 552.55 351.125 554.699 352.674 556.433C353.448 557.299 354.104 558.059 354.595 558.661C354.973 559.125 355.234 559.472 355.382 559.696L355.491 559.879C355.898 560.684 356.553 562.732 357.032 564.694L357.225 565.526C357.802 568.154 358.299 569.959 358.949 571.431C359.523 572.73 360.211 573.756 361.154 574.857L361.574 575.336C368.214 582.698 380.44 580.964 385.337 572.179L385.564 571.755C388.436 566.204 387.284 558.42 383.005 553.986L382.581 553.567C380.365 551.484 377.688 550.345 373.437 549.627L372.565 549.488C371.458 549.324 370.329 549.11 369.406 548.897C368.945 548.791 368.538 548.686 368.214 548.59C367.962 548.515 367.777 548.45 367.657 548.399L367.559 548.354C367.573 548.361 367.542 548.343 367.433 548.253C367.339 548.175 367.212 548.066 367.053 547.925C366.735 547.642 366.299 547.241 365.758 546.735C364.676 545.724 363.181 544.297 361.381 542.56C358.681 539.954 355.296 536.651 351.595 533.006L347.801 529.259C341.24 522.761 336.369 518.024 332.937 514.813C331.221 513.209 329.86 511.982 328.826 511.105C327.936 510.351 327.256 509.829 326.787 509.559L326.599 509.458C323.346 507.884 320.154 507.997 317.947 509.378C315.786 510.73 314.666 513.241 315.335 516.298L315.405 516.596C315.67 517.638 316.171 518.579 317.431 520.115C318.37 521.26 319.75 522.758 321.805 524.896L324.094 527.259C326.29 529.513 328.347 531.674 329.89 533.339C330.661 534.172 331.304 534.879 331.77 535.41C332.003 535.676 332.189 535.896 332.325 536.063C332.393 536.147 332.446 536.216 332.485 536.27C332.505 536.296 332.52 536.317 332.53 536.333L332.544 536.354C332.749 536.738 332.696 537.345 332.377 537.914C332.074 538.454 331.64 538.769 331.266 538.805C331.234 538.786 331.19 538.76 331.134 538.721C330.983 538.615 330.776 538.453 330.518 538.233C330.001 537.797 329.307 537.164 328.489 536.388C326.855 534.837 324.743 532.734 322.597 530.533C320.45 528.333 318.273 526.037 316.507 524.101C314.951 522.394 313.737 520.993 313.138 520.181L312.919 519.869C312.339 518.986 311.998 518.326 311.793 517.622C311.613 517.004 311.53 516.328 311.507 515.404L311.5 514.993C311.468 510.626 314.136 506.823 318.352 505.216L318.765 505.066C320.12 504.606 321.288 504.427 322.506 504.526ZM341.009 531.812C341.199 531.965 341.465 532.196 341.8 532.497C342.467 533.098 343.387 533.964 344.48 535.016C346.667 537.118 349.536 539.952 352.448 542.875C355.36 545.797 358.313 548.806 360.665 551.259C362.736 553.418 364.316 555.119 365.007 555.957L365.247 556.263C365.672 556.841 366.04 557.31 366.387 557.664C366.734 558.019 367.085 558.288 367.482 558.435C368.196 558.697 368.916 558.513 369.76 558.156L370.129 557.993C370.414 557.863 370.833 557.79 371.354 557.791C371.867 557.792 372.446 557.865 373.028 558.001C374.138 558.26 375.18 558.727 375.792 559.266L375.909 559.374C377.465 560.915 378.333 562.228 378.66 563.562C378.965 564.803 378.817 566.131 378.203 567.776L378.074 568.109C376.056 573.15 368.819 573.712 365.702 569.053L365.558 568.827C365.141 568.154 364.9 567.602 364.769 566.928C364.668 566.411 364.629 565.81 364.638 565.009L364.662 564.137C364.704 563.134 364.67 562.186 364.569 561.381C364.483 560.689 364.344 560.066 364.139 559.604L364.046 559.416V559.415C363.97 559.275 363.805 559.065 363.609 558.832C363.4 558.582 363.118 558.261 362.773 557.878C362.084 557.112 361.134 556.09 359.994 554.886C358.284 553.079 356.142 550.858 353.799 548.467L351.397 546.028C347.739 542.331 344.775 539.24 342.728 537C341.703 535.879 340.913 534.976 340.381 534.319C340.114 533.99 339.919 533.73 339.793 533.54C339.73 533.446 339.691 533.378 339.669 533.334C339.677 533.145 339.726 532.912 339.812 532.686C339.885 532.496 339.971 532.34 340.052 532.231L340.13 532.14C340.258 532.012 340.431 531.888 340.604 531.798C340.708 531.743 340.793 531.713 340.853 531.695C340.893 531.725 340.946 531.762 341.009 531.812Z" fill="#00D2FF" stroke="#00D2FF"/>
<path opacity="0.08" d="M35.5059 421.526C36.5772 421.614 37.7121 421.92 39.0723 422.475L39.6689 422.728C40.4508 423.07 41.0332 423.338 41.79 423.854C42.5557 424.375 43.5106 425.158 45.0137 426.539C47.2695 428.612 50.7234 432 56.5713 437.801L63.2617 444.447L81.5771 462.656L81.6914 462.77L81.8496 462.795L86.4492 463.547C89.607 464.063 92.027 464.767 94.0322 465.801C95.9061 466.767 97.4383 468.032 98.877 469.736L99.1641 470.083C106.817 479.537 104.004 492.903 93.3672 498.35L92.8545 498.603C89.2786 500.308 85.7749 500.852 82.4531 500.282C79.3382 499.748 76.3498 498.229 73.5889 495.715L73.04 495.198C71.2456 493.459 69.993 491.91 69.0723 490.196C68.2666 488.697 67.7047 487.051 67.2656 485.012L67.085 484.113C66.8627 482.932 66.5731 481.686 66.2861 480.628C66.0386 479.715 65.7842 478.908 65.5664 478.405L65.4756 478.209C65.3402 477.939 65.0004 477.492 64.5566 476.954C64.0977 476.398 63.4868 475.699 62.7705 474.905C61.6955 473.714 60.3759 472.303 58.9561 470.834L57.5078 469.353C55.2033 467.018 53.4499 465.15 52.2891 463.799C51.7076 463.122 51.2838 462.585 51.0146 462.189C50.8793 461.991 50.7925 461.84 50.7441 461.735C50.7321 461.709 50.7254 461.688 50.7197 461.673C50.7607 461.545 50.8681 461.341 51.0605 461.104C51.219 460.908 51.4105 460.717 51.6094 460.559L51.8105 460.412C52.0862 460.229 52.1758 460.205 52.2783 460.217C52.4241 460.234 52.698 460.345 53.2598 460.794C54.0894 461.458 55.3656 462.703 57.5283 464.89L60.0029 467.404C62.1097 469.55 64.1251 471.699 65.6738 473.433C66.4483 474.299 67.1038 475.059 67.5947 475.661C67.9728 476.125 68.2345 476.472 68.3818 476.696L68.4912 476.879C68.8982 477.684 69.5533 479.732 70.0322 481.694L70.2246 482.526C70.8021 485.154 71.2991 486.959 71.9492 488.431C72.5232 489.73 73.2107 490.756 74.1543 491.857L74.5742 492.336C81.2139 499.698 93.4395 497.964 98.3369 489.179L98.5645 488.755C101.436 483.204 100.284 475.42 96.0049 470.986L95.5811 470.567C93.365 468.484 90.6878 467.345 86.4365 466.627L85.5654 466.488C84.4584 466.324 83.3294 466.11 82.4062 465.897C81.9446 465.791 81.5384 465.686 81.2139 465.59C80.9623 465.515 80.7774 465.45 80.6572 465.399L80.5586 465.354C80.5731 465.361 80.5418 465.343 80.4326 465.253C80.3385 465.175 80.2118 465.066 80.0527 464.925C79.7349 464.642 79.2991 464.241 78.7578 463.735C77.6759 462.724 76.1812 461.297 74.3809 459.56C71.6806 456.954 68.296 453.651 64.5947 450.006L60.8008 446.259C54.2402 439.761 49.369 435.024 45.9365 431.813C44.2208 430.209 42.8604 428.982 41.8262 428.105C40.9361 427.351 40.2557 426.829 39.7871 426.559L39.5986 426.458C36.3458 424.884 33.1542 424.997 30.9473 426.378C28.786 427.73 27.6662 430.241 28.335 433.298L28.4053 433.596C28.6701 434.638 29.1707 435.579 30.4307 437.115C31.3698 438.26 32.7496 439.758 34.8047 441.896L37.0938 444.259C39.2903 446.513 41.3466 448.674 42.8896 450.339C43.6615 451.172 44.3037 451.879 44.7695 452.41C45.0026 452.676 45.1891 452.896 45.3252 453.063C45.3933 453.147 45.4463 453.216 45.4854 453.27C45.5048 453.296 45.5197 453.317 45.5303 453.333L45.5439 453.354C45.7486 453.738 45.6957 454.345 45.377 454.914C45.0744 455.454 44.6399 455.769 44.2656 455.805C44.2343 455.786 44.1901 455.76 44.1338 455.721C43.983 455.615 43.7765 455.453 43.5176 455.233C43.0014 454.797 42.3072 454.164 41.4893 453.388C39.8549 451.837 37.7434 449.734 35.5967 447.533C33.4504 445.333 31.2729 443.037 29.5068 441.101C27.9506 439.394 26.7375 437.993 26.1377 437.181L25.9189 436.869C25.3392 435.986 24.9982 435.326 24.793 434.622C24.6127 434.004 24.5301 433.328 24.5068 432.404L24.5 431.993C24.4681 427.626 27.136 423.823 31.3516 422.216L31.7646 422.066C33.1204 421.606 34.2881 421.427 35.5059 421.526ZM54.0088 448.812C54.199 448.965 54.4653 449.196 54.7998 449.497C55.4672 450.098 56.3868 450.964 57.4805 452.016C59.6667 454.118 62.536 456.952 65.4482 459.875C68.3603 462.797 71.3129 465.806 73.665 468.259C75.7356 470.418 77.3163 472.119 78.0068 472.957L78.2471 473.263C78.6721 473.841 79.0405 474.31 79.3867 474.664C79.7338 475.019 80.0845 475.288 80.4824 475.435C81.1957 475.697 81.9159 475.513 82.7598 475.156L83.1289 474.993C83.4137 474.863 83.8328 474.79 84.3535 474.791C84.867 474.792 85.4458 474.865 86.0283 475.001C87.1378 475.26 88.1798 475.727 88.792 476.266L88.9092 476.374C90.4649 477.915 91.3327 479.228 91.6602 480.562C91.965 481.803 91.817 483.131 91.2031 484.776L91.0742 485.109C89.0563 490.15 81.8186 490.712 78.7021 486.053L78.5576 485.827C78.1411 485.154 77.9 484.602 77.7686 483.928C77.6679 483.411 77.629 482.81 77.6377 482.009L77.6621 481.137C77.704 480.134 77.6696 479.186 77.5693 478.381C77.4831 477.689 77.3441 477.066 77.1387 476.604L77.0459 476.416V476.415C76.9699 476.275 76.8048 476.065 76.6094 475.832C76.4002 475.582 76.1179 475.261 75.7734 474.878C75.084 474.112 74.1339 473.09 72.9941 471.886C71.2839 470.079 69.1416 467.858 66.7988 465.467L64.3975 463.028C60.7395 459.331 57.775 456.24 55.7275 454C54.7032 452.879 53.9129 451.976 53.3809 451.319C53.114 450.99 52.919 450.73 52.793 450.54C52.7304 450.446 52.6908 450.378 52.6689 450.334C52.6771 450.145 52.726 449.912 52.8125 449.686C52.8847 449.496 52.9709 449.34 53.0518 449.231L53.1299 449.14C53.2576 449.012 53.4309 448.888 53.6035 448.798C53.7078 448.743 53.7925 448.713 53.8525 448.695C53.8927 448.725 53.9456 448.762 54.0088 448.812Z" fill="#00D2FF" stroke="#00D2FF"/>
<path opacity="0.08" d="M92.4941 108.526C91.4228 108.614 90.2879 108.92 88.9277 109.475L88.3311 109.728C87.5492 110.07 86.9668 110.338 86.21 110.854C85.4443 111.375 84.4894 112.158 82.9863 113.539C80.7305 115.612 77.2766 119 71.4287 124.801L64.7383 131.447L46.4229 149.656L46.3086 149.77L46.1504 149.795L41.5508 150.547C38.393 151.063 35.973 151.767 33.9678 152.801C32.0939 153.767 30.5617 155.032 29.123 156.736L28.8359 157.083C21.183 166.537 23.9957 179.903 34.6328 185.35L35.1455 185.603C38.7214 187.308 42.2251 187.852 45.5469 187.282C48.6618 186.748 51.6502 185.229 54.4111 182.715L54.96 182.198C56.7544 180.459 58.007 178.91 58.9277 177.196C59.7334 175.697 60.2953 174.051 60.7344 172.012L60.915 171.113C61.1373 169.932 61.4269 168.686 61.7139 167.628C61.9614 166.715 62.2158 165.908 62.4336 165.405L62.5244 165.209C62.6598 164.939 62.9996 164.492 63.4434 163.954C63.9023 163.398 64.5132 162.699 65.2295 161.905C66.3045 160.714 67.6241 159.303 69.0439 157.834L70.4922 156.353C72.7967 154.018 74.5501 152.15 75.7109 150.799C76.2924 150.122 76.7162 149.585 76.9854 149.189C77.1207 148.991 77.2075 148.84 77.2559 148.735C77.2679 148.709 77.2746 148.688 77.2803 148.673C77.2393 148.545 77.1319 148.341 76.9395 148.104C76.781 147.908 76.5895 147.717 76.3906 147.559L76.1895 147.412C75.9138 147.229 75.8242 147.205 75.7217 147.217C75.5759 147.234 75.302 147.345 74.7402 147.794C73.9106 148.458 72.6344 149.703 70.4717 151.89L67.9971 154.404C65.8903 156.55 63.8749 158.699 62.3262 160.433C61.5517 161.299 60.8962 162.059 60.4053 162.661C60.0272 163.125 59.7655 163.472 59.6182 163.696L59.5088 163.879C59.1018 164.684 58.4467 166.732 57.9678 168.694L57.7754 169.526C57.1979 172.154 56.7009 173.959 56.0508 175.431C55.4768 176.73 54.7893 177.756 53.8457 178.857L53.4258 179.336C46.7861 186.698 34.5605 184.964 29.6631 176.179L29.4355 175.755C26.5638 170.204 27.7155 162.42 31.9951 157.986L32.4189 157.567C34.635 155.484 37.3122 154.345 41.5635 153.627L42.4346 153.488C43.5416 153.324 44.6706 153.11 45.5938 152.897C46.0554 152.791 46.4616 152.686 46.7861 152.59C47.0377 152.515 47.2226 152.45 47.3428 152.399L47.4414 152.354C47.4269 152.361 47.4582 152.343 47.5674 152.253C47.6615 152.175 47.7882 152.066 47.9473 151.925C48.2651 151.642 48.7009 151.241 49.2422 150.735C50.3241 149.724 51.8188 148.297 53.6191 146.56C56.3194 143.954 59.704 140.651 63.4053 137.006L67.1992 133.259C73.7598 126.761 78.631 122.024 82.0635 118.813C83.7792 117.209 85.1396 115.982 86.1738 115.105C87.0639 114.351 87.7443 113.829 88.2129 113.559L88.4014 113.458C91.6542 111.884 94.8458 111.997 97.0527 113.378C99.214 114.73 100.334 117.241 99.665 120.298L99.5947 120.596C99.3299 121.638 98.8293 122.579 97.5693 124.115C96.6302 125.26 95.2504 126.758 93.1953 128.896L90.9062 131.259C88.7097 133.513 86.6534 135.674 85.1104 137.339C84.3385 138.172 83.6963 138.879 83.2305 139.41C82.9974 139.676 82.8109 139.896 82.6748 140.063C82.6067 140.147 82.5537 140.216 82.5146 140.27C82.4952 140.296 82.4803 140.317 82.4697 140.333L82.4561 140.354C82.2514 140.738 82.3043 141.345 82.623 141.914C82.9256 142.454 83.3601 142.769 83.7344 142.805C83.7657 142.786 83.8099 142.76 83.8662 142.721C84.017 142.615 84.2235 142.453 84.4824 142.233C84.9986 141.797 85.6928 141.164 86.5107 140.388C88.1451 138.837 90.2566 136.734 92.4033 134.533C94.5496 132.333 96.7271 130.037 98.4932 128.101C100.049 126.394 101.263 124.993 101.862 124.181L102.081 123.869C102.661 122.986 103.002 122.326 103.207 121.622C103.387 121.004 103.47 120.328 103.493 119.404L103.5 118.993C103.532 114.626 100.864 110.823 96.6484 109.216L96.2354 109.066C94.8796 108.606 93.7119 108.427 92.4941 108.526ZM73.9912 135.812C73.801 135.965 73.5347 136.196 73.2002 136.497C72.5328 137.098 71.6132 137.964 70.5195 139.016C68.3333 141.118 65.464 143.952 62.5518 146.875C59.6397 149.797 56.6871 152.806 54.335 155.259C52.2644 157.418 50.6837 159.119 49.9932 159.957L49.7529 160.263C49.3279 160.841 48.9595 161.31 48.6133 161.664C48.2662 162.019 47.9155 162.288 47.5176 162.435C46.8043 162.697 46.0841 162.513 45.2402 162.156L44.8711 161.993C44.5863 161.863 44.1672 161.79 43.6465 161.791C43.133 161.792 42.5542 161.865 41.9717 162.001C40.8622 162.26 39.8202 162.727 39.208 163.266L39.0908 163.374C37.5351 164.915 36.6673 166.228 36.3398 167.562C36.035 168.803 36.183 170.131 36.7969 171.776L36.9258 172.109C38.9437 177.15 46.1814 177.712 49.2979 173.053L49.4424 172.827C49.8589 172.154 50.1 171.602 50.2314 170.928C50.3321 170.411 50.371 169.81 50.3623 169.009L50.3379 168.137C50.296 167.134 50.3304 166.186 50.4307 165.381C50.5169 164.689 50.6559 164.066 50.8613 163.604L50.9541 163.416V163.415C51.0301 163.275 51.1952 163.065 51.3906 162.832C51.5998 162.582 51.8821 162.261 52.2266 161.878C52.916 161.112 53.8661 160.09 55.0059 158.886C56.7161 157.079 58.8584 154.858 61.2012 152.467L63.6025 150.028C67.2605 146.331 70.225 143.24 72.2725 141C73.2968 139.879 74.0871 138.976 74.6191 138.319C74.886 137.99 75.081 137.73 75.207 137.54C75.2696 137.446 75.3092 137.378 75.3311 137.334C75.3229 137.145 75.274 136.912 75.1875 136.686C75.1153 136.496 75.0291 136.34 74.9482 136.231L74.8701 136.14C74.7424 136.012 74.5691 135.888 74.3965 135.798C74.2922 135.743 74.2075 135.713 74.1475 135.695C74.1073 135.725 74.0544 135.762 73.9912 135.812Z" fill="#00D2FF" stroke="#00D2FF"/>
<g opacity="0.1">
<path d="M162.849 359.685L134.685 387.849L119.354 372.518L147.518 344.354L162.849 359.685ZM124.35 372.518L124.526 372.695L134.685 382.854L157.854 359.685L147.695 349.526L147.518 349.35L124.35 372.518Z" fill="#00D2FF" stroke="#00D2FF" stroke-width="0.5"/>
<path d="M192.97 395.51L192.972 395.512C194.38 396.889 195.519 398.515 196.331 400.306L196.489 400.667C197.258 402.48 197.683 404.419 197.742 406.385L197.75 406.778C197.762 408.879 197.356 410.961 196.558 412.904C195.759 414.847 194.583 416.612 193.098 418.098C191.612 419.583 189.847 420.759 187.904 421.558C185.961 422.356 183.879 422.762 181.778 422.75L181.385 422.742C179.55 422.686 177.739 422.313 176.031 421.639L175.667 421.489C173.854 420.721 172.201 419.622 170.791 418.25L170.512 417.972L170.51 417.97L135.038 382.499L157.499 360.038L192.97 395.51ZM140.034 382.5L140.211 382.677L173.008 415.472C174.08 416.561 175.343 417.44 176.734 418.067L177.014 418.19C178.516 418.823 180.129 419.152 181.759 419.158C183.389 419.165 185.005 418.849 186.512 418.229C187.925 417.647 189.218 416.807 190.323 415.755L190.542 415.542C191.695 414.389 192.608 413.019 193.229 411.512C193.849 410.005 194.165 408.389 194.158 406.759C194.152 405.231 193.863 403.718 193.305 402.297L193.19 402.014C192.596 400.606 191.747 399.321 190.686 398.224L190.471 398.007L157.677 365.211L157.5 365.034L140.034 382.5Z" fill="#00D2FF" stroke="#00D2FF" stroke-width="0.5"/>
<path d="M189.942 392.48L174.609 407.812L150.722 383.924L166.054 368.592L189.942 392.48ZM165.878 373.767L155.897 383.749L155.72 383.925L174.61 402.815L174.787 402.638L184.769 392.657L184.946 392.48L184.769 392.303L166.231 373.767L166.054 373.591L165.878 373.767ZM142.172 378.934L139.675 381.432L125.056 366.813L127.553 364.316L142.172 378.934ZM149.302 371.804L146.803 374.303L132.187 359.684L134.684 357.187L149.302 371.804ZM156.432 364.675L153.934 367.173L139.315 352.553L141.813 350.056L156.432 364.675Z" fill="#00D2FF" stroke="#00D2FF" stroke-width="0.5"/>
<path d="M165.909 397.74C164.905 398.28 163.755 399.146 162.701 400.13L162.224 400.591H162.223C161.571 401.244 161.044 401.865 160.654 402.401C160.349 402.818 160.12 403.194 159.982 403.5L156.62 402.38C157.096 401.152 158.101 399.81 159.212 398.624L159.726 398.096V398.095C161.085 396.734 162.748 395.414 164.328 394.581L165.909 397.74Z" fill="#00D2FF" stroke="#00D2FF" stroke-width="0.5"/>
</g>
<g opacity="0.08">
<path d="M355.849 355.685L327.685 383.849L312.354 368.518L340.518 340.354L355.849 355.685ZM317.35 368.518L317.526 368.695L327.685 378.854L350.854 355.685L340.695 345.526L340.518 345.35L317.35 368.518Z" fill="#00D2FF" stroke="#00D2FF" stroke-width="0.5"/>
<path d="M385.97 391.51L385.972 391.512C387.38 392.889 388.519 394.515 389.331 396.306L389.489 396.667C390.258 398.48 390.683 400.419 390.742 402.385L390.75 402.778C390.762 404.879 390.356 406.961 389.558 408.904C388.759 410.847 387.583 412.612 386.098 414.098C384.612 415.583 382.847 416.759 380.904 417.558C378.961 418.356 376.879 418.762 374.778 418.75L374.385 418.742C372.55 418.686 370.739 418.313 369.031 417.639L368.667 417.489C366.854 416.721 365.201 415.622 363.791 414.25L363.512 413.972L363.51 413.97L328.038 378.499L350.499 356.038L385.97 391.51ZM333.034 378.5L333.211 378.677L366.008 411.472C367.08 412.561 368.343 413.44 369.734 414.067L370.014 414.19C371.516 414.823 373.129 415.152 374.759 415.158C376.389 415.165 378.005 414.849 379.512 414.229C380.925 413.647 382.218 412.807 383.323 411.755L383.542 411.542C384.695 410.389 385.608 409.019 386.229 407.512C386.849 406.005 387.165 404.389 387.158 402.759C387.152 401.231 386.863 399.718 386.305 398.297L386.19 398.014C385.596 396.606 384.747 395.321 383.686 394.224L383.471 394.007L350.677 361.211L350.5 361.034L333.034 378.5Z" fill="#00D2FF" stroke="#00D2FF" stroke-width="0.5"/>
<path d="M382.942 388.48L367.609 403.812L343.722 379.924L359.054 364.592L382.942 388.48ZM358.878 369.767L348.897 379.749L348.72 379.925L367.61 398.815L367.787 398.638L377.769 388.657L377.946 388.48L377.769 388.303L359.231 369.767L359.054 369.591L358.878 369.767ZM335.172 374.934L332.675 377.432L318.056 362.813L320.553 360.316L335.172 374.934ZM342.302 367.804L339.803 370.303L325.187 355.684L327.684 353.187L342.302 367.804ZM349.432 360.675L346.934 363.173L332.315 348.553L334.813 346.056L349.432 360.675Z" fill="#00D2FF" stroke="#00D2FF" stroke-width="0.5"/>
<path d="M358.909 393.74C357.905 394.28 356.755 395.146 355.701 396.13L355.224 396.591H355.223C354.571 397.244 354.044 397.865 353.654 398.401C353.349 398.818 353.12 399.194 352.982 399.5L349.62 398.38C350.096 397.152 351.101 395.81 352.212 394.624L352.726 394.096V394.095C354.085 392.734 355.748 391.414 357.328 390.581L358.909 393.74Z" fill="#00D2FF" stroke="#00D2FF" stroke-width="0.5"/>
</g>
<g opacity="0.25">
<path d="M250.151 117.685L278.315 145.849L293.646 130.518L265.482 102.354L250.151 117.685ZM288.65 130.518L288.474 130.695L278.315 140.854L255.146 117.685L265.305 107.526L265.482 107.35L288.65 130.518Z" fill="#00D2FF" stroke="#00D2FF" stroke-width="0.5"/>
<path d="M220.03 153.51L220.028 153.512C218.62 154.889 217.481 156.515 216.669 158.306L216.511 158.667C215.742 160.48 215.317 162.419 215.258 164.385L215.25 164.778C215.238 166.879 215.644 168.961 216.442 170.904C217.241 172.847 218.417 174.612 219.902 176.098C221.388 177.583 223.153 178.759 225.096 179.558C227.039 180.356 229.121 180.762 231.222 180.75L231.615 180.742C233.45 180.686 235.261 180.313 236.969 179.639L237.333 179.489C239.146 178.721 240.799 177.622 242.209 176.25L242.488 175.972L242.49 175.97L277.962 140.499L255.501 118.038L220.03 153.51ZM272.966 140.5L272.789 140.677L239.992 173.472C238.92 174.561 237.657 175.44 236.266 176.067L235.986 176.19C234.484 176.823 232.871 177.152 231.241 177.158C229.611 177.165 227.995 176.849 226.488 176.229C225.075 175.647 223.782 174.807 222.677 173.755L222.458 173.542C221.305 172.389 220.392 171.019 219.771 169.512C219.151 168.005 218.835 166.389 218.842 164.759C218.848 163.231 219.137 161.718 219.695 160.297L219.81 160.014C220.404 158.606 221.253 157.321 222.314 156.224L222.529 156.007L255.323 123.211L255.5 123.034L272.966 140.5Z" fill="#00D2FF" stroke="#00D2FF" stroke-width="0.5"/>
<path d="M223.058 150.48L238.391 165.812L262.278 141.924L246.946 126.592L223.058 150.48ZM247.122 131.767L257.103 141.749L257.28 141.925L238.39 160.815L238.213 160.638L228.231 150.657L228.054 150.48L228.231 150.303L246.769 131.767L246.946 131.591L247.122 131.767ZM270.828 136.934L273.325 139.432L287.944 124.813L285.447 122.316L270.828 136.934ZM263.698 129.804L266.197 132.303L280.813 117.684L278.316 115.187L263.698 129.804ZM256.568 122.675L259.066 125.173L273.685 110.553L271.187 108.056L256.568 122.675Z" fill="#00D2FF" stroke="#00D2FF" stroke-width="0.5"/>
<path d="M247.091 155.74C248.095 156.28 249.245 157.146 250.299 158.13L250.776 158.591H250.777C251.429 159.244 251.956 159.865 252.346 160.401C252.651 160.818 252.88 161.194 253.018 161.5L256.38 160.38C255.904 159.152 254.899 157.81 253.788 156.624L253.274 156.096V156.095C251.915 154.734 250.252 153.414 248.672 152.581L247.091 155.74Z" fill="#00D2FF" stroke="#00D2FF" stroke-width="0.5"/>
</g>
<g opacity="0.08">
<path d="M154.151 671.685L182.315 699.849L197.646 684.518L169.482 656.354L154.151 671.685ZM192.65 684.518L192.474 684.695L182.315 694.854L159.146 671.685L169.305 661.526L169.482 661.35L192.65 684.518Z" fill="#00D2FF" stroke="#00D2FF" stroke-width="0.5"/>
<path d="M124.03 707.51L124.028 707.512C122.62 708.889 121.481 710.515 120.669 712.306L120.511 712.667C119.742 714.48 119.317 716.419 119.258 718.385L119.25 718.778C119.238 720.879 119.644 722.961 120.442 724.904C121.241 726.847 122.417 728.612 123.902 730.098C125.388 731.583 127.153 732.759 129.096 733.558C131.039 734.356 133.121 734.762 135.222 734.75L135.615 734.742C137.45 734.686 139.261 734.313 140.969 733.639L141.333 733.489C143.146 732.721 144.799 731.622 146.209 730.25L146.488 729.972L146.49 729.97L181.962 694.499L159.501 672.038L124.03 707.51ZM176.966 694.5L176.789 694.677L143.992 727.472C142.92 728.561 141.657 729.44 140.266 730.067L139.986 730.19C138.484 730.823 136.871 731.152 135.241 731.158C133.611 731.165 131.995 730.849 130.488 730.229C129.075 729.647 127.782 728.807 126.677 727.755L126.458 727.542C125.305 726.389 124.392 725.019 123.771 723.512C123.151 722.005 122.835 720.389 122.842 718.759C122.848 717.231 123.137 715.718 123.695 714.297L123.81 714.014C124.404 712.606 125.253 711.321 126.314 710.224L126.529 710.007L159.323 677.211L159.5 677.034L176.966 694.5Z" fill="#00D2FF" stroke="#00D2FF" stroke-width="0.5"/>
<path d="M127.058 704.48L142.391 719.812L166.278 695.925L150.946 680.592L127.058 704.48ZM151.122 685.767L161.103 695.749L161.28 695.926L142.39 714.815L142.213 714.638L132.231 704.657L132.054 704.48L132.231 704.303L150.769 685.767L150.946 685.591L151.122 685.767ZM174.828 690.934L177.325 693.432L191.944 678.813L189.447 676.316L174.828 690.934ZM167.698 683.804L170.197 686.303L184.813 671.684L182.316 669.187L167.698 683.804ZM160.568 676.676L163.066 679.173L177.685 664.553L175.187 662.056L160.568 676.676Z" fill="#00D2FF" stroke="#00D2FF" stroke-width="0.5"/>
<path d="M151.091 709.74C152.095 710.28 153.245 711.146 154.299 712.13L154.776 712.591H154.777C155.429 713.244 155.956 713.865 156.346 714.401C156.651 714.818 156.88 715.194 157.018 715.5L160.38 714.38C159.904 713.152 158.899 711.81 157.788 710.624L157.274 710.096V710.095C155.915 708.734 154.252 707.414 152.672 706.581L151.091 709.74Z" fill="#00D2FF" stroke="#00D2FF" stroke-width="0.5"/>
</g>
<path opacity="0.08" d="M266.654 577H242.346V604H215V628H242.346V655H266.654V628H294V604H266.654V577Z" stroke="#00D2FF" stroke-width="4" stroke-linecap="round" stroke-linejoin="round"/>
<path opacity="0.08" d="M146.346 181H170.654V208H198V232H170.654V259H146.346V232H119V208H146.346V181Z" stroke="#00D2FF" stroke-width="4" stroke-linecap="round" stroke-linejoin="round"/>
<path opacity="0.08" d="M339.346 817H363.654V844H391V868H363.654V895H339.346V868H312V844H339.346V817Z" stroke="#00D2FF" stroke-width="4" stroke-linecap="round" stroke-linejoin="round"/>
<g opacity="0.08">
<path d="M215 460.8C215 446.093 215 438.738 219.571 434.171C224.142 429.604 231.493 429.6 246.2 429.6H261.8C276.507 429.6 283.862 429.6 288.429 434.171C290.98 436.717 292.107 440.13 292.602 445.2M293 460.8C293 475.507 293 482.862 288.429 487.429C283.858 491.996 276.507 492 261.8 492H246.2C231.493 492 224.138 492 219.571 487.429C217.02 484.882 215.893 481.47 215.398 476.4" stroke="#00D2FF" stroke-width="4" stroke-linecap="round"/>
<path d="M269.6 429.6C269.6 422.245 269.6 418.571 267.315 416.285C265.029 414 261.355 414 254 414C246.645 414 242.971 414 240.685 416.285C238.4 418.571 238.4 422.245 238.4 429.6" stroke="#00D2FF" stroke-width="4"/>
<path d="M259.85 460.8H248.15M254 454.95V466.65" stroke="#00D2FF" stroke-width="4" stroke-linecap="round"/>
<path d="M254 476.4C262.616 476.4 269.6 469.416 269.6 460.8C269.6 452.184 262.616 445.2 254 445.2C245.384 445.2 238.4 452.184 238.4 460.8C238.4 469.416 245.384 476.4 254 476.4Z" stroke="#00D2FF" stroke-width="4"/>
</g>
<g opacity="0.08">
<path d="M198 64.8C198 50.0931 198 42.7377 193.429 38.1708C188.858 33.6039 181.507 33.6 166.8 33.6H151.2C136.493 33.6 129.138 33.6 124.571 38.1708C122.02 40.7175 120.893 44.13 120.398 49.2M120 64.8C120 79.5069 120 86.8623 124.571 91.4292C129.142 95.9961 136.493 96 151.2 96H166.8C181.507 96 188.862 96 193.429 91.4292C195.98 88.8825 197.107 85.47 197.602 80.4" stroke="#00D2FF" stroke-width="4" stroke-linecap="round"/>
<path d="M143.4 33.6C143.4 26.2446 143.4 22.5708 145.685 20.2854C147.971 18 151.645 18 159 18C166.355 18 170.029 18 172.315 20.2854C174.6 22.5708 174.6 26.2446 174.6 33.6" stroke="#00D2FF" stroke-width="4"/>
<path d="M153.15 64.8H164.85M159 58.95V70.65" stroke="#00D2FF" stroke-width="4" stroke-linecap="round"/>
<path d="M159 80.4C150.384 80.4 143.4 73.4156 143.4 64.8C143.4 56.1843 150.384 49.2 159 49.2C167.616 49.2 174.6 56.1843 174.6 64.8C174.6 73.4156 167.616 80.4 159 80.4Z" stroke="#00D2FF" stroke-width="4"/>
</g>
<g opacity="0.08">
<path d="M103 797.8C103 783.093 103 775.738 98.4292 771.171C93.8584 766.604 86.5069 766.6 71.8 766.6H56.2C41.4931 766.6 34.1377 766.6 29.5708 771.171C27.0202 773.718 25.8931 777.13 25.3978 782.2M25 797.8C25 812.507 25 819.862 29.5708 824.429C34.1416 828.996 41.4931 829 56.2 829H71.8C86.5069 829 93.8623 829 98.4292 824.429C100.98 821.883 102.107 818.47 102.602 813.4" stroke="#00D2FF" stroke-width="4" stroke-linecap="round"/>
<path d="M48.4 766.6C48.4 759.245 48.4 755.571 50.6854 753.285C52.9708 751 56.6446 751 64 751C71.3554 751 75.0292 751 77.3146 753.285C79.6 755.571 79.6 759.245 79.6 766.6" stroke="#00D2FF" stroke-width="4"/>
<path d="M58.15 797.8H69.85M64 791.95V803.65" stroke="#00D2FF" stroke-width="4" stroke-linecap="round"/>
<path d="M64 813.4C55.3843 813.4 48.4 806.416 48.4 797.8C48.4 789.184 55.3843 782.2 64 782.2C72.6156 782.2 79.6 789.184 79.6 797.8C79.6 806.416 72.6156 813.4 64 813.4Z" stroke="#00D2FF" stroke-width="4"/>
</g>
<g opacity="0.25">
<path d="M74.8607 606.25V615.139H83.7504V623.527H74.8607V632.417H66.472V623.527H57.5834V615.139H66.472V606.25H74.8607Z" fill="#00D2FF" stroke="#00D2FF" stroke-width="0.5"/>
<path d="M70.667 586.25C88.9376 586.25 103.75 601.062 103.75 619.333C103.75 637.604 88.9377 652.417 70.667 652.417H70.666C62.7449 652.429 55.0845 649.587 49.0879 644.411L48.9121 644.259L45.6943 647.477L45.6846 647.563L45.3438 650.586L30.2842 665.646L24.3535 659.716L39.5039 644.564L43.1992 644.308L43.293 644.301L43.3594 644.234L45.9326 641.659L46.0986 641.492L45.9424 641.316C40.7415 635.472 37.583 627.772 37.583 619.333C37.5832 601.062 52.3963 586.25 70.667 586.25ZM70.667 590.194C54.5735 590.194 41.5275 603.24 41.5273 619.333C41.5273 635.427 54.5734 648.473 70.667 648.473C86.7605 648.472 99.8057 635.427 99.8057 619.333C99.8055 603.24 86.7604 590.195 70.667 590.194Z" fill="#00D2FF" stroke="#00D2FF" stroke-width="0.5"/>
<path d="M70.667 586.25C88.9376 586.25 103.75 601.062 103.75 619.333C103.75 637.318 89.3968 651.953 71.5205 652.406L70.667 652.417H70.666C62.7449 652.429 55.0845 649.587 49.0879 644.411L48.9121 644.259L45.6943 647.477L45.6846 647.563L45.3457 650.588L30.2842 665.646L24.3535 659.716L39.5039 644.564L43.2002 644.305L43.293 644.299L46.0996 641.492L45.9424 641.315C40.7157 635.455 37.7591 627.927 37.5908 620.093L37.583 619.334V619.333C37.5832 601.062 52.3963 586.25 70.667 586.25ZM44.1494 645.966L40.3604 646.232L40.2666 646.239L40.2012 646.306L26.791 659.716L26.9678 659.893L30.1104 663.034L30.2871 663.211L43.7031 649.795L43.7129 649.708L44.0547 646.683L44.3438 646.392L44.8135 645.919L44.1494 645.966ZM39.8232 620.36L39.3232 620.377C39.3389 620.868 39.3677 621.358 39.4062 621.846C39.4081 621.869 39.4102 621.893 39.4121 621.917C39.4307 622.146 39.452 622.374 39.4756 622.603C39.4795 622.64 39.4833 622.678 39.4873 622.716C39.5096 622.924 39.5341 623.132 39.5605 623.339C39.5659 623.381 39.5716 623.424 39.5771 623.466C39.6017 623.652 39.6274 623.838 39.6553 624.023C39.6677 624.106 39.6803 624.189 39.6934 624.271C39.7148 624.407 39.7376 624.542 39.7607 624.677C39.7772 624.773 39.7932 624.868 39.8105 624.964C39.8332 625.089 39.8577 625.213 39.8818 625.338C39.9045 625.455 39.9273 625.571 39.9512 625.688C39.9752 625.804 40.0001 625.92 40.0254 626.036C40.0515 626.156 40.077 626.276 40.1045 626.396C40.1358 626.532 40.169 626.667 40.2021 626.803C40.361 627.453 40.5406 628.095 40.7393 628.729C40.7783 628.853 40.8169 628.978 40.8574 629.102C40.866 629.128 40.8741 629.154 40.8828 629.181L41.0605 629.702C41.0679 629.723 41.0757 629.744 41.083 629.765C41.1129 629.85 41.1442 629.934 41.1748 630.019C41.2263 630.161 41.2785 630.303 41.332 630.444C41.3626 630.525 41.3936 630.605 41.4248 630.686C41.4848 630.84 41.546 630.994 41.6084 631.147C41.6326 631.207 41.6571 631.266 41.6816 631.325C41.7431 631.474 41.8054 631.622 41.8691 631.77C41.9037 631.849 41.9384 631.929 41.9736 632.009C42.0439 632.168 42.1155 632.326 42.1885 632.484C42.2107 632.532 42.2334 632.58 42.2559 632.628C42.3304 632.787 42.4062 632.946 42.4834 633.104C42.5087 633.155 42.5339 633.207 42.5596 633.259C43.7071 635.573 45.1443 637.751 46.8496 639.735C46.9007 639.795 46.9524 639.854 47.0039 639.913L47.2285 640.171L48.6221 641.737L48.6328 641.75L48.6455 641.761L50.21 643.105V643.104C50.2687 643.155 50.3286 643.205 50.3877 643.255C50.4282 643.289 50.4691 643.323 50.5098 643.357C50.6597 643.484 50.8108 643.608 50.9629 643.731C50.991 643.754 51.0187 643.777 51.0469 643.8C52.709 645.136 54.4947 646.292 56.374 647.255C56.4124 647.275 56.4508 647.294 56.4893 647.313C56.6702 647.405 56.8516 647.496 57.0342 647.584C57.0579 647.595 57.0817 647.607 57.1055 647.618C57.2885 647.706 57.4725 647.792 57.6572 647.876C57.6995 647.895 57.7418 647.914 57.7842 647.934C57.9574 648.012 58.1311 648.088 58.3057 648.163C58.3432 648.179 58.3804 648.196 58.418 648.212C58.8505 648.395 59.2872 648.569 59.7275 648.732C59.7746 648.75 59.8219 648.767 59.8691 648.784C60.0353 648.845 60.2019 648.905 60.3691 648.963C60.461 648.995 60.5533 649.026 60.6455 649.057C60.77 649.099 60.8945 649.14 61.0195 649.181C61.1215 649.214 61.2238 649.245 61.3262 649.277C61.4419 649.313 61.5577 649.349 61.6738 649.384C61.7778 649.415 61.8819 649.446 61.9863 649.476C62.128 649.516 62.2699 649.556 62.4121 649.595C62.4823 649.614 62.5526 649.633 62.623 649.651C62.7764 649.692 62.93 649.731 63.084 649.77C63.1659 649.79 63.2479 649.81 63.3301 649.83C64.0225 649.996 64.7215 650.138 65.4258 650.257C65.4671 650.264 65.5084 650.271 65.5498 650.277C65.7305 650.307 65.9114 650.336 66.0928 650.362C66.1708 650.374 66.249 650.384 66.3271 650.395C66.5108 650.42 66.6946 650.445 66.8789 650.467C66.9166 650.471 66.9544 650.475 66.9922 650.479C67.1924 650.503 67.3929 650.524 67.5938 650.544C67.6448 650.549 67.6959 650.554 67.7471 650.559C67.9148 650.574 68.0828 650.588 68.251 650.601C68.3391 650.607 68.4273 650.615 68.5156 650.621C68.7463 650.637 68.9776 650.651 69.209 650.661L69.2314 650.161C68.9669 650.149 68.7032 650.133 68.4404 650.114C68.2184 650.099 67.9967 650.08 67.7754 650.06C67.7389 650.056 67.7025 650.052 67.666 650.049C67.472 650.03 67.2783 650.01 67.085 649.987C67.0207 649.98 66.9567 649.972 66.8926 649.964C66.724 649.943 66.5557 649.922 66.3877 649.898C66.3219 649.889 66.2561 649.881 66.1904 649.871C66.0114 649.845 65.8327 649.817 65.6543 649.788C65.0621 649.691 64.4758 649.577 63.8955 649.447C63.7432 649.413 63.5911 649.378 63.4395 649.342C63.3651 649.324 63.2909 649.305 63.2168 649.287C63.0641 649.249 62.9118 649.21 62.7598 649.17C62.6883 649.151 62.6171 649.132 62.5459 649.112C62.3962 649.072 62.2467 649.03 62.0977 648.987C62.0151 648.963 61.9329 648.939 61.8506 648.914C61.7185 648.875 61.5866 648.835 61.4551 648.794C61.3608 648.764 61.2668 648.734 61.1729 648.704C61.0544 648.666 60.9363 648.627 60.8184 648.587C60.7219 648.554 60.6253 648.523 60.5293 648.489C60.3673 648.433 60.2059 648.375 60.0449 648.316C59.3074 648.046 58.583 647.749 57.873 647.425C57.685 647.339 57.4978 647.252 57.3115 647.162C55.1447 646.12 53.1185 644.833 51.2686 643.336C51.1244 643.219 50.9811 643.101 50.8389 642.981C47.384 640.082 44.5737 636.44 42.6543 632.3C42.5647 632.106 42.4771 631.912 42.3916 631.717C42.3815 631.694 42.3714 631.671 42.3613 631.647C42.2835 631.468 42.2073 631.289 42.1328 631.108C42.1171 631.07 42.1006 631.032 42.085 630.994C42.0206 630.836 41.9583 630.678 41.8965 630.519C41.8619 630.43 41.8278 630.34 41.7939 630.251C41.7358 630.097 41.6787 629.943 41.623 629.788C41.6029 629.732 41.5823 629.676 41.5625 629.62C41.5173 629.492 41.4732 629.364 41.4297 629.235C41.398 629.142 41.3658 629.048 41.335 628.954C41.2736 628.767 41.215 628.578 41.1572 628.39C41.1497 628.365 41.1412 628.341 41.1338 628.316C40.9287 627.641 40.7473 626.958 40.5889 626.269C40.5684 626.18 40.5499 626.09 40.5303 626.001C40.5002 625.864 40.4697 625.728 40.4414 625.591C40.42 625.487 40.4002 625.383 40.3799 625.278C40.3556 625.154 40.3314 625.029 40.3086 624.904C40.29 624.802 40.2725 624.7 40.2549 624.598C40.2308 624.458 40.2068 624.317 40.1846 624.177C40.1712 624.092 40.1582 624.007 40.1455 623.922C40.1219 623.764 40.0993 623.606 40.0781 623.447C40.0695 623.382 40.062 623.317 40.0537 623.252C40.0306 623.069 40.0092 622.886 39.9893 622.703C39.9835 622.65 39.9772 622.597 39.9717 622.544C39.9518 622.352 39.9342 622.159 39.918 621.966C39.9135 621.912 39.9085 621.859 39.9043 621.806C39.8911 621.639 39.8796 621.471 39.8691 621.304C39.8494 620.991 39.8335 620.676 39.8232 620.36ZM70.667 590.194C54.5735 590.194 41.5275 603.24 41.5273 619.333C41.5273 635.427 54.5734 648.473 70.667 648.473C86.7605 648.472 99.8057 635.427 99.8057 619.333C99.8055 603.24 86.7604 590.195 70.667 590.194ZM74.8613 606.25V615.139H83.75V623.527H74.8613V632.417H66.4727V623.527H57.583V615.139H66.4727V606.25H74.8613ZM68.1943 616.861H59.3057V621.806H68.1943V630.694H73.1387V621.806H82.0273V616.861H73.1387V607.973H68.1943V616.861Z" fill="#00D2FF" stroke="#00D2FF" stroke-width="0.5"/>
</g>
<g opacity="0.08">
<path d="M340.139 195.25V204.139H331.25V212.527H340.139V221.417H348.528V212.527H357.417V204.139H348.528V195.25H340.139Z" fill="#00D2FF" stroke="#00D2FF" stroke-width="0.5"/>
<path d="M344.333 175.25C326.062 175.25 311.25 190.062 311.25 208.333C311.25 226.604 326.062 241.417 344.333 241.417H344.334C352.255 241.429 359.916 238.587 365.912 233.411L366.088 233.259L369.306 236.477L369.315 236.563L369.656 239.586L384.716 254.646L390.646 248.716L375.496 233.564L371.801 233.308L371.707 233.301L371.641 233.234L369.067 230.659L368.901 230.492L369.058 230.316C374.258 224.472 377.417 216.772 377.417 208.333C377.417 190.062 362.604 175.25 344.333 175.25ZM344.333 179.194C360.427 179.194 373.472 192.24 373.473 208.333C373.473 224.427 360.427 237.473 344.333 237.473C328.24 237.472 315.194 224.427 315.194 208.333C315.195 192.24 328.24 179.195 344.333 179.194Z" fill="#00D2FF" stroke="#00D2FF" stroke-width="0.5"/>
<path d="M344.333 175.25C326.062 175.25 311.25 190.062 311.25 208.333C311.25 226.318 325.603 240.953 343.479 241.406L344.333 241.417H344.334C352.255 241.429 359.916 238.587 365.912 233.411L366.088 233.259L369.306 236.477L369.315 236.563L369.654 239.588L384.716 254.646L390.646 248.716L375.496 233.564L371.8 233.305L371.707 233.299L368.9 230.492L369.058 230.315C374.284 224.455 377.241 216.927 377.409 209.093L377.417 208.334V208.333C377.417 190.062 362.604 175.25 344.333 175.25ZM370.851 234.966L374.64 235.232L374.733 235.239L374.799 235.306L388.209 248.716L388.032 248.893L384.89 252.034L384.713 252.211L371.297 238.795L371.287 238.708L370.945 235.683L370.656 235.392L370.187 234.919L370.851 234.966ZM375.177 209.36L375.677 209.377C375.661 209.868 375.632 210.358 375.594 210.846C375.592 210.869 375.59 210.893 375.588 210.917C375.569 211.146 375.548 211.374 375.524 211.603C375.521 211.64 375.517 211.678 375.513 211.716C375.49 211.924 375.466 212.132 375.439 212.339C375.434 212.381 375.428 212.424 375.423 212.466C375.398 212.652 375.373 212.838 375.345 213.023C375.332 213.106 375.32 213.189 375.307 213.271C375.285 213.407 375.262 213.542 375.239 213.677C375.223 213.773 375.207 213.868 375.189 213.964C375.167 214.089 375.142 214.213 375.118 214.338C375.096 214.455 375.073 214.571 375.049 214.688C375.025 214.804 375 214.92 374.975 215.036C374.948 215.156 374.923 215.276 374.896 215.396C374.864 215.532 374.831 215.667 374.798 215.803C374.639 216.453 374.459 217.095 374.261 217.729C374.222 217.853 374.183 217.978 374.143 218.102C374.134 218.128 374.126 218.154 374.117 218.181L373.939 218.702C373.932 218.723 373.924 218.744 373.917 218.765C373.887 218.85 373.856 218.934 373.825 219.019C373.774 219.161 373.722 219.303 373.668 219.444C373.637 219.525 373.606 219.605 373.575 219.686C373.515 219.84 373.454 219.994 373.392 220.147C373.367 220.207 373.343 220.266 373.318 220.325C373.257 220.474 373.195 220.622 373.131 220.77C373.096 220.849 373.062 220.929 373.026 221.009C372.956 221.168 372.884 221.326 372.812 221.484C372.789 221.532 372.767 221.58 372.744 221.628C372.67 221.787 372.594 221.946 372.517 222.104C372.491 222.155 372.466 222.207 372.44 222.259C371.293 224.573 369.856 226.751 368.15 228.735C368.099 228.795 368.048 228.854 367.996 228.913L367.771 229.171L366.378 230.737L366.367 230.75L366.354 230.761L364.79 232.105V232.104C364.731 232.155 364.671 232.205 364.612 232.255C364.572 232.289 364.531 232.323 364.49 232.357C364.34 232.484 364.189 232.608 364.037 232.731C364.009 232.754 363.981 232.777 363.953 232.8C362.291 234.136 360.505 235.292 358.626 236.255C358.588 236.275 358.549 236.294 358.511 236.313C358.33 236.405 358.148 236.496 357.966 236.584C357.942 236.595 357.918 236.607 357.895 236.618C357.711 236.706 357.527 236.792 357.343 236.876C357.301 236.895 357.258 236.914 357.216 236.934C357.043 237.012 356.869 237.088 356.694 237.163C356.657 237.179 356.62 237.196 356.582 237.212C356.15 237.395 355.713 237.569 355.272 237.732C355.225 237.75 355.178 237.767 355.131 237.784C354.965 237.845 354.798 237.905 354.631 237.963C354.539 237.995 354.447 238.026 354.354 238.057C354.23 238.099 354.105 238.14 353.98 238.181C353.879 238.214 353.776 238.245 353.674 238.277C353.558 238.313 353.442 238.349 353.326 238.384C353.222 238.415 353.118 238.446 353.014 238.476C352.872 238.516 352.73 238.556 352.588 238.595C352.518 238.614 352.447 238.633 352.377 238.651C352.224 238.692 352.07 238.731 351.916 238.77C351.834 238.79 351.752 238.81 351.67 238.83C350.977 238.996 350.279 239.138 349.574 239.257C349.533 239.264 349.492 239.271 349.45 239.277C349.27 239.307 349.089 239.336 348.907 239.362C348.829 239.374 348.751 239.384 348.673 239.395C348.489 239.42 348.305 239.445 348.121 239.467C348.083 239.471 348.046 239.475 348.008 239.479C347.808 239.503 347.607 239.524 347.406 239.544C347.355 239.549 347.304 239.554 347.253 239.559C347.085 239.574 346.917 239.588 346.749 239.601C346.661 239.607 346.573 239.615 346.484 239.621C346.254 239.637 346.022 239.651 345.791 239.661L345.769 239.161C346.033 239.149 346.297 239.133 346.56 239.114C346.782 239.099 347.003 239.08 347.225 239.06C347.261 239.056 347.298 239.052 347.334 239.049C347.528 239.03 347.722 239.01 347.915 238.987C347.979 238.98 348.043 238.972 348.107 238.964C348.276 238.943 348.444 238.922 348.612 238.898C348.678 238.889 348.744 238.881 348.81 238.871C348.989 238.845 349.167 238.817 349.346 238.788C349.938 238.691 350.524 238.577 351.104 238.447C351.257 238.413 351.409 238.378 351.561 238.342C351.635 238.324 351.709 238.305 351.783 238.287C351.936 238.249 352.088 238.21 352.24 238.17C352.312 238.151 352.383 238.132 352.454 238.112C352.604 238.072 352.753 238.03 352.902 237.987C352.985 237.963 353.067 237.939 353.149 237.914C353.282 237.875 353.413 237.835 353.545 237.794C353.639 237.764 353.733 237.734 353.827 237.704C353.946 237.666 354.064 237.627 354.182 237.587C354.278 237.554 354.375 237.523 354.471 237.489C354.633 237.433 354.794 237.375 354.955 237.316C355.693 237.046 356.417 236.749 357.127 236.425C357.315 236.339 357.502 236.252 357.688 236.162C359.855 235.12 361.881 233.833 363.731 232.336C363.876 232.219 364.019 232.101 364.161 231.981C367.616 229.082 370.426 225.44 372.346 221.3C372.435 221.106 372.523 220.912 372.608 220.717C372.619 220.694 372.629 220.671 372.639 220.647C372.717 220.468 372.793 220.289 372.867 220.108C372.883 220.07 372.899 220.032 372.915 219.994C372.979 219.836 373.042 219.678 373.104 219.519C373.138 219.43 373.172 219.34 373.206 219.251C373.264 219.097 373.321 218.943 373.377 218.788C373.397 218.732 373.418 218.676 373.438 218.62C373.483 218.492 373.527 218.364 373.57 218.235C373.602 218.142 373.634 218.048 373.665 217.954C373.726 217.767 373.785 217.578 373.843 217.39C373.85 217.365 373.859 217.341 373.866 217.316C374.071 216.641 374.253 215.958 374.411 215.269C374.432 215.18 374.45 215.09 374.47 215.001C374.5 214.864 374.53 214.728 374.559 214.591C374.58 214.487 374.6 214.383 374.62 214.278C374.644 214.154 374.669 214.029 374.691 213.904C374.71 213.802 374.728 213.7 374.745 213.598C374.769 213.458 374.793 213.317 374.815 213.177C374.829 213.092 374.842 213.007 374.854 212.922C374.878 212.764 374.901 212.606 374.922 212.447C374.931 212.382 374.938 212.317 374.946 212.252C374.969 212.069 374.991 211.886 375.011 211.703C375.016 211.65 375.023 211.597 375.028 211.544C375.048 211.352 375.066 211.159 375.082 210.966C375.087 210.912 375.091 210.859 375.096 210.806C375.109 210.639 375.12 210.471 375.131 210.304C375.151 209.991 375.166 209.676 375.177 209.36ZM344.333 179.194C360.427 179.194 373.472 192.24 373.473 208.333C373.473 224.427 360.427 237.473 344.333 237.473C328.24 237.472 315.194 224.427 315.194 208.333C315.195 192.24 328.24 179.195 344.333 179.194ZM340.139 195.25V204.139H331.25V212.527H340.139V221.417H348.527V212.527H357.417V204.139H348.527V195.25H340.139ZM346.806 205.861H355.694V210.806H346.806V219.694H341.861V210.806H332.973V205.861H341.861V196.973H346.806V205.861Z" fill="#00D2FF" stroke="#00D2FF" stroke-width="0.5"/>
</g>
<g opacity="0.08">
<path d="M243.139 760.25V769.139H234.25V777.527H243.139V786.417H251.528V777.527H260.417V769.139H251.528V760.25H243.139Z" fill="#00D2FF" stroke="#00D2FF" stroke-width="0.5"/>
<path d="M247.333 740.25C229.062 740.25 214.25 755.062 214.25 773.333C214.25 791.604 229.062 806.417 247.333 806.417H247.334C255.255 806.429 262.916 803.587 268.912 798.411L269.088 798.259L272.306 801.477L272.315 801.563L272.656 804.586L287.716 819.646L293.646 813.716L278.496 798.564L274.801 798.308L274.707 798.301L274.641 798.234L272.067 795.659L271.901 795.492L272.058 795.316C277.258 789.472 280.417 781.772 280.417 773.333C280.417 755.062 265.604 740.25 247.333 740.25ZM247.333 744.194C263.427 744.194 276.472 757.24 276.473 773.333C276.473 789.427 263.427 802.473 247.333 802.473C231.24 802.472 218.194 789.427 218.194 773.333C218.195 757.24 231.24 744.195 247.333 744.194Z" fill="#00D2FF" stroke="#00D2FF" stroke-width="0.5"/>
<path d="M247.333 740.25C229.062 740.25 214.25 755.062 214.25 773.333C214.25 791.318 228.603 805.953 246.479 806.406L247.333 806.417H247.334C255.255 806.429 262.916 803.587 268.912 798.411L269.088 798.259L272.306 801.477L272.315 801.563L272.654 804.588L287.716 819.646L293.646 813.716L278.496 798.564L274.8 798.305L274.707 798.299L271.9 795.492L272.058 795.315C277.284 789.455 280.241 781.927 280.409 774.093L280.417 773.334V773.333C280.417 755.062 265.604 740.25 247.333 740.25ZM273.851 799.966L277.64 800.232L277.733 800.239L277.799 800.306L291.209 813.716L291.032 813.893L287.89 817.034L287.713 817.211L274.297 803.795L274.287 803.708L273.945 800.683L273.656 800.392L273.187 799.919L273.851 799.966ZM278.177 774.36L278.677 774.377C278.661 774.868 278.632 775.358 278.594 775.846C278.592 775.869 278.59 775.893 278.588 775.917C278.569 776.146 278.548 776.374 278.524 776.603C278.521 776.64 278.517 776.678 278.513 776.716C278.49 776.924 278.466 777.132 278.439 777.339C278.434 777.381 278.428 777.424 278.423 777.466C278.398 777.652 278.373 777.838 278.345 778.023C278.332 778.106 278.32 778.189 278.307 778.271C278.285 778.407 278.262 778.542 278.239 778.677C278.223 778.773 278.207 778.868 278.189 778.964C278.167 779.089 278.142 779.213 278.118 779.338C278.096 779.455 278.073 779.571 278.049 779.688C278.025 779.804 278 779.92 277.975 780.036C277.948 780.156 277.923 780.276 277.896 780.396C277.864 780.532 277.831 780.667 277.798 780.803C277.639 781.453 277.459 782.095 277.261 782.729C277.222 782.853 277.183 782.978 277.143 783.102C277.134 783.128 277.126 783.154 277.117 783.181L276.939 783.702C276.932 783.723 276.924 783.744 276.917 783.765C276.887 783.85 276.856 783.934 276.825 784.019C276.774 784.161 276.722 784.303 276.668 784.444C276.637 784.525 276.606 784.605 276.575 784.686C276.515 784.84 276.454 784.994 276.392 785.147C276.367 785.207 276.343 785.266 276.318 785.325C276.257 785.474 276.195 785.622 276.131 785.77C276.096 785.849 276.062 785.929 276.026 786.009C275.956 786.168 275.884 786.326 275.812 786.484C275.789 786.532 275.767 786.58 275.744 786.628C275.67 786.787 275.594 786.946 275.517 787.104C275.491 787.155 275.466 787.207 275.44 787.259C274.293 789.573 272.856 791.751 271.15 793.735C271.099 793.795 271.048 793.854 270.996 793.913L270.771 794.171L269.378 795.737L269.367 795.75L269.354 795.761L267.79 797.105V797.104C267.731 797.155 267.671 797.205 267.612 797.255C267.572 797.289 267.531 797.323 267.49 797.357C267.34 797.484 267.189 797.608 267.037 797.731C267.009 797.754 266.981 797.777 266.953 797.8C265.291 799.136 263.505 800.292 261.626 801.255C261.588 801.275 261.549 801.294 261.511 801.313C261.33 801.405 261.148 801.496 260.966 801.584C260.942 801.595 260.918 801.607 260.895 801.618C260.711 801.706 260.527 801.792 260.343 801.876C260.301 801.895 260.258 801.914 260.216 801.934C260.043 802.012 259.869 802.088 259.694 802.163C259.657 802.179 259.62 802.196 259.582 802.212C259.15 802.395 258.713 802.569 258.272 802.732C258.225 802.75 258.178 802.767 258.131 802.784C257.965 802.845 257.798 802.905 257.631 802.963C257.539 802.995 257.447 803.026 257.354 803.057C257.23 803.099 257.105 803.14 256.98 803.181C256.879 803.214 256.776 803.245 256.674 803.277C256.558 803.313 256.442 803.349 256.326 803.384C256.222 803.415 256.118 803.446 256.014 803.476C255.872 803.516 255.73 803.556 255.588 803.595C255.518 803.614 255.447 803.633 255.377 803.651C255.224 803.692 255.07 803.731 254.916 803.77C254.834 803.79 254.752 803.81 254.67 803.83C253.977 803.996 253.279 804.138 252.574 804.257C252.533 804.264 252.492 804.271 252.45 804.277C252.27 804.307 252.089 804.336 251.907 804.362C251.829 804.374 251.751 804.384 251.673 804.395C251.489 804.42 251.305 804.445 251.121 804.467C251.083 804.471 251.046 804.475 251.008 804.479C250.808 804.503 250.607 804.524 250.406 804.544C250.355 804.549 250.304 804.554 250.253 804.559C250.085 804.574 249.917 804.588 249.749 804.601C249.661 804.607 249.573 804.615 249.484 804.621C249.254 804.637 249.022 804.651 248.791 804.661L248.769 804.161C249.033 804.149 249.297 804.133 249.56 804.114C249.782 804.099 250.003 804.08 250.225 804.06C250.261 804.056 250.298 804.052 250.334 804.049C250.528 804.03 250.722 804.01 250.915 803.987C250.979 803.98 251.043 803.972 251.107 803.964C251.276 803.943 251.444 803.922 251.612 803.898C251.678 803.889 251.744 803.881 251.81 803.871C251.989 803.845 252.167 803.817 252.346 803.788C252.938 803.691 253.524 803.577 254.104 803.447C254.257 803.413 254.409 803.378 254.561 803.342C254.635 803.324 254.709 803.305 254.783 803.287C254.936 803.249 255.088 803.21 255.24 803.17C255.312 803.151 255.383 803.132 255.454 803.112C255.604 803.072 255.753 803.03 255.902 802.987C255.985 802.963 256.067 802.939 256.149 802.914C256.282 802.875 256.413 802.835 256.545 802.794C256.639 802.764 256.733 802.734 256.827 802.704C256.946 802.666 257.064 802.627 257.182 802.587C257.278 802.554 257.375 802.523 257.471 802.489C257.633 802.433 257.794 802.375 257.955 802.316C258.693 802.046 259.417 801.749 260.127 801.425C260.315 801.339 260.502 801.252 260.688 801.162C262.855 800.12 264.881 798.833 266.731 797.336C266.876 797.219 267.019 797.101 267.161 796.981C270.616 794.082 273.426 790.44 275.346 786.3C275.435 786.106 275.523 785.912 275.608 785.717C275.619 785.694 275.629 785.671 275.639 785.647C275.717 785.468 275.793 785.289 275.867 785.108C275.883 785.07 275.899 785.032 275.915 784.994C275.979 784.836 276.042 784.678 276.104 784.519C276.138 784.43 276.172 784.34 276.206 784.251C276.264 784.097 276.321 783.943 276.377 783.788C276.397 783.732 276.418 783.676 276.438 783.62C276.483 783.492 276.527 783.364 276.57 783.235C276.602 783.142 276.634 783.048 276.665 782.954C276.726 782.767 276.785 782.578 276.843 782.39C276.85 782.365 276.859 782.341 276.866 782.316C277.071 781.641 277.253 780.958 277.411 780.269C277.432 780.18 277.45 780.09 277.47 780.001C277.5 779.864 277.53 779.728 277.559 779.591C277.58 779.487 277.6 779.383 277.62 779.278C277.644 779.154 277.669 779.029 277.691 778.904C277.71 778.802 277.728 778.7 277.745 778.598C277.769 778.458 277.793 778.317 277.815 778.177C277.829 778.092 277.842 778.007 277.854 777.922C277.878 777.764 277.901 777.606 277.922 777.447C277.931 777.382 277.938 777.317 277.946 777.252C277.969 777.069 277.991 776.886 278.011 776.703C278.016 776.65 278.023 776.597 278.028 776.544C278.048 776.352 278.066 776.159 278.082 775.966C278.087 775.912 278.091 775.859 278.096 775.806C278.109 775.639 278.12 775.471 278.131 775.304C278.151 774.991 278.166 774.676 278.177 774.36ZM247.333 744.194C263.427 744.194 276.472 757.24 276.473 773.333C276.473 789.427 263.427 802.473 247.333 802.473C231.24 802.472 218.194 789.427 218.194 773.333C218.195 757.24 231.24 744.195 247.333 744.194ZM243.139 760.25V769.139H234.25V777.527H243.139V786.417H251.527V777.527H260.417V769.139H251.527V760.25H243.139ZM249.806 770.861H258.694V775.806H249.806V784.694H244.861V775.806H235.973V770.861H244.861V761.973H249.806V770.861Z" fill="#00D2FF" stroke="#00D2FF" stroke-width="0.5"/>
</g>
<g opacity="0.08">
<path d="M129.701 535.825L144.644 524.244L159.584 512.66C168.704 505.59 182.302 506.688 189.956 515.114C197.61 523.54 196.419 536.104 187.299 543.174L172.356 554.758L157.416 566.34C148.294 573.411 134.696 572.311 127.044 563.885C119.39 555.459 120.581 542.897 129.701 535.825Z" stroke="#00D2FF" stroke-width="4"/>
<path d="M146 526L171 555" stroke="#00D2FF" stroke-width="4" stroke-linecap="round" stroke-linejoin="round"/>
</g>
<g opacity="0.25">
<path d="M35.7011 300.825L50.6436 289.244L65.584 277.66C74.7039 270.59 88.3016 271.688 95.9556 280.114C103.61 288.54 102.419 301.104 93.2989 308.174L78.3564 319.758L63.416 331.34C54.294 338.411 40.6963 337.311 33.0444 328.885C25.3904 320.459 26.5812 307.897 35.7011 300.825Z" stroke="#00D2FF" stroke-width="4"/>
<path d="M52 291L77 320" stroke="#00D2FF" stroke-width="4" stroke-linecap="round" stroke-linejoin="round"/>
</g>
<g opacity="0.08">
<path d="M322.701 54.8255L337.644 43.2435L352.584 31.6596C361.704 24.5902 375.302 25.6884 382.956 34.1141C390.61 42.5398 389.419 55.1043 380.299 62.1737L365.356 73.7576L350.416 85.3396C341.294 92.4109 327.696 91.3108 320.044 82.8851C312.39 74.4594 313.581 61.8968 322.701 54.8255Z" stroke="#00D2FF" stroke-width="4"/>
<path d="M339 45L364 74" stroke="#00D2FF" stroke-width="4" stroke-linecap="round" stroke-linejoin="round"/>
</g>
<g opacity="0.08">
<path d="M322.701 696.825L337.644 685.244L352.584 673.66C361.704 666.59 375.302 667.688 382.956 676.114C390.61 684.54 389.419 697.104 380.299 704.174L365.356 715.758L350.416 727.34C341.294 734.411 327.696 733.311 320.044 724.885C312.39 716.459 313.581 703.897 322.701 696.825Z" stroke="#00D2FF" stroke-width="4"/>
<path d="M339 687L364 716" stroke="#00D2FF" stroke-width="4" stroke-linecap="round" stroke-linejoin="round"/>
</g>
<g opacity="0.08">
<path d="M283.299 293.825L268.356 282.244L253.416 270.66C244.296 263.59 230.698 264.688 223.044 273.114C215.39 281.54 216.581 294.104 225.701 301.174L240.644 312.758L255.584 324.34C264.706 331.411 278.304 330.311 285.956 321.885C293.61 313.459 292.419 300.897 283.299 293.825Z" stroke="#00D2FF" stroke-width="4"/>
<path d="M267 284L242 313" stroke="#00D2FF" stroke-width="4" stroke-linecap="round" stroke-linejoin="round"/>
</g>
<g opacity="0.08">
<path d="M187.299 847.825L172.356 836.244L157.416 824.66C148.296 817.59 134.698 818.688 127.044 827.114C119.39 835.54 120.581 848.104 129.701 855.174L144.644 866.758L159.584 878.34C168.706 885.411 182.304 884.311 189.956 875.885C197.61 867.459 196.419 854.897 187.299 847.825Z" stroke="#00D2FF" stroke-width="4"/>
<path d="M171 838L146 867" stroke="#00D2FF" stroke-width="4" stroke-linecap="round" stroke-linejoin="round"/>
</g>
<circle opacity="0.04" cx="357.5" cy="90.5" r="182.5" fill="white"/>
<circle opacity="0.04" cx="393" cy="699" r="155" fill="white"/>
<ellipse opacity="0.04" cx="58.5" cy="425" rx="208.5" ry="208" fill="white"/>
</svg>
