<svg width="33" height="33" viewBox="0 0 33 33" fill="none" xmlns="http://www.w3.org/2000/svg">
<path d="M3.55603 6.00403C3.68693 5.99307 3.81867 6.00103 3.94666 6.02844L4.07361 6.06262C4.19864 6.10262 4.31653 6.1612 4.42419 6.23547L4.52869 6.31458C4.66238 6.42772 4.7727 6.56611 4.85291 6.7218C4.91312 6.83873 4.95533 6.96399 4.97888 7.0929L4.99646 7.22278L6.5531 26.0109C6.63945 27.0526 7.11417 28.0235 7.88318 28.7316C8.60424 29.3955 9.53423 29.7834 10.5092 29.8292L10.7045 29.8331H22.2953C23.3407 29.833 24.3475 29.4397 25.1166 28.7316C25.8376 28.0677 26.3 27.1729 26.4261 26.2052L26.4476 26.0109L28.0052 7.22766C28.0338 6.92149 28.1668 6.63583 28.3802 6.41809L28.4769 6.32922C28.7124 6.13211 29.0075 6.02342 29.3119 6.01868L29.4437 6.02258C29.7499 6.04817 30.0365 6.17876 30.2562 6.38977L30.3461 6.48547C30.5733 6.75137 30.6869 7.09565 30.6625 7.44446L29.1049 26.2306C28.9722 27.8323 28.2797 29.3327 27.1547 30.4708L26.9232 30.6935C25.6624 31.8545 24.0112 32.4994 22.2972 32.5001H10.7064L10.3861 32.4923C8.89352 32.4225 7.46439 31.8656 6.31873 30.9064L6.07751 30.6945C4.89473 29.6057 4.13593 28.1373 3.92908 26.5499L3.89587 26.2306L2.33728 7.44446V7.44348L2.3324 7.31262C2.33371 7.2253 2.34338 7.13824 2.36169 7.05286L2.39587 6.92688C2.44922 6.76 2.53465 6.60456 2.64783 6.47083C2.73264 6.37065 2.83195 6.28403 2.94177 6.21301L3.05505 6.14758C3.17201 6.08736 3.29721 6.04418 3.42615 6.02063L3.55603 6.00403Z" fill="white" stroke="#FD5E36"/>
<path d="M13.6415 0.5H19.3563C20.4057 0.499982 21.4289 0.82986 22.2802 1.44336C23.0782 2.01855 23.6875 2.81579 24.0341 3.7334L24.0995 3.91797L25.0985 6.91211C25.14 7.0366 25.1633 7.16619 25.1669 7.29688L25.1639 7.42871C25.1546 7.55968 25.1258 7.68836 25.079 7.81055L25.0262 7.93066C24.9674 8.04808 24.8916 8.15601 24.8016 8.25098L24.7069 8.34082C24.6076 8.4269 24.4964 8.49841 24.3768 8.55176L24.2548 8.59863C24.13 8.64017 24 8.66349 23.869 8.66699L23.7382 8.66406C23.6072 8.6547 23.4785 8.62588 23.3563 8.5791L23.2362 8.52637C22.9596 8.38791 22.7413 8.15786 22.6161 7.87793L22.5682 7.75488L21.5702 4.7627C21.435 4.35681 21.1914 3.99711 20.8671 3.72168L20.7225 3.6084C20.3757 3.35799 19.9679 3.20793 19.5438 3.17383L19.3612 3.16699H13.6415C13.1521 3.16736 12.6751 3.32116 12.2782 3.60742C11.9308 3.85811 11.6599 4.19929 11.494 4.5918L11.4296 4.7627L10.4325 7.75488C10.3207 8.09048 10.0799 8.36808 9.76355 8.52637C9.48661 8.66493 9.17135 8.70165 8.87195 8.63379L8.745 8.59863C8.45143 8.50081 8.20263 8.30435 8.03894 8.04492L7.97351 7.93066C7.83499 7.65383 7.79836 7.33836 7.86609 7.03906L7.90125 6.91211L8.89832 3.91797C9.23028 2.92264 9.86741 2.0568 10.7186 1.44336C11.5166 0.868356 12.4653 0.542438 13.4452 0.503906L13.6415 0.5Z" fill="white" stroke="#FD5E36"/>
<path d="M12.833 11.5C13.1425 11.5 13.4414 11.6073 13.6787 11.8018L13.7764 11.8906C14.0262 12.1406 14.1669 12.4796 14.167 12.833V23.833C14.167 24.1866 14.0264 24.5263 13.7764 24.7764C13.5263 25.0264 13.1866 25.167 12.833 25.167C12.4796 25.1669 12.1406 25.0262 11.8906 24.7764C11.6406 24.5263 11.5 24.1866 11.5 23.833V12.833C11.5001 12.5237 11.6075 12.2254 11.8018 11.9883L11.8906 11.8906C12.1406 11.6407 12.4795 11.5001 12.833 11.5ZM20.167 11.5C20.4763 11.5001 20.7746 11.6075 21.0117 11.8018L21.1094 11.8906C21.3593 12.1406 21.4999 12.4795 21.5 12.833V20.167C21.4999 20.5205 21.3593 20.8594 21.1094 21.1094C20.8594 21.3593 20.5205 21.4999 20.167 21.5C19.8134 21.5 19.4737 21.3594 19.2236 21.1094C18.9738 20.8594 18.8331 20.5204 18.833 20.167V12.833C18.8331 12.5236 18.9413 12.2255 19.1357 11.9883L19.2236 11.8906C19.4737 11.6406 19.8134 11.5 20.167 11.5ZM1.83301 6H31.167C31.4763 6.00008 31.7746 6.10746 32.0117 6.30176L32.1094 6.39062C32.3593 6.6406 32.4999 6.9795 32.5 7.33301C32.5 7.64248 32.3927 7.94143 32.1982 8.17871L32.1094 8.27637C31.8594 8.52624 31.5204 8.66691 31.167 8.66699H1.83301C1.5236 8.66692 1.2255 8.55872 0.988281 8.36426L0.890625 8.27637C0.640576 8.02632 0.5 7.68663 0.5 7.33301L0.506836 7.20117C0.532876 6.93972 0.635248 6.69153 0.801758 6.48828L0.890625 6.39062C1.10932 6.17193 1.39609 6.03722 1.70117 6.00684L1.83301 6Z" fill="white" stroke="#FD5E36"/>
</svg>
