<svg width="22" height="22" viewBox="0 0 22 22" fill="none" xmlns="http://www.w3.org/2000/svg">
<path d="M4.52941 5.70605H3.35294C2.7289 5.70605 2.13042 5.95395 1.68916 6.39521C1.2479 6.83648 1 7.43496 1 8.059V18.6472C1 19.2713 1.2479 19.8697 1.68916 20.311C2.13042 20.7523 2.7289 21.0002 3.35294 21.0002H13.9412C14.5652 21.0002 15.1637 20.7523 15.605 20.311C16.0462 19.8697 16.2941 19.2713 16.2941 18.6472V17.4708" stroke="#6147C6" stroke-width="2" stroke-linecap="round" stroke-linejoin="round"/>
<path d="M15.1176 3.35307L18.6471 6.88248M20.2765 5.21777C20.7398 4.75442 21.0001 4.12599 21.0001 3.47071C21.0001 2.81544 20.7398 2.187 20.2765 1.72366C19.8131 1.26031 19.1847 1 18.5294 1C17.8741 1 17.2457 1.26031 16.7824 1.72366L6.88235 11.5884V15.1178H10.4118L20.2765 5.21777Z" stroke="#6147C6" stroke-width="2" stroke-linecap="round" stroke-linejoin="round"/>
</svg>
