<svg width="81" height="80" viewBox="0 0 81 80" fill="none" xmlns="http://www.w3.org/2000/svg">
<path d="M14.6238 64.2254C18.4134 61.5224 22.4348 59.3862 26.6881 57.8168C30.9384 56.2445 35.5423 55.4583 40.5 55.4583C45.4577 55.4583 50.0616 56.2445 54.3119 57.8168C58.5622 59.3892 62.5836 61.5239 66.3762 64.221C69.3187 61.2029 71.686 57.6402 73.4783 53.5327C75.2705 49.4193 76.1667 44.9084 76.1667 40C76.1667 30.2097 72.6936 21.8725 65.7475 14.9884C58.8015 8.1043 50.3856 4.66372 40.5 4.66667C30.6144 4.66961 22.1985 8.11167 15.2525 14.9928C8.30638 21.874 4.83333 30.2097 4.83333 40C4.83333 44.9084 5.72946 49.4193 7.52171 53.5327C9.31396 57.6431 11.6813 61.2059 14.6238 64.221M40.5 42.2083C36.7461 42.2083 33.5777 40.9304 30.9948 38.3747C28.412 35.8189 27.122 32.6801 27.125 28.9583C27.128 25.2366 28.4179 22.0978 30.9948 19.542C33.5718 16.9862 36.7401 15.7083 40.5 15.7083C44.2599 15.7083 47.4283 16.9862 50.0052 19.542C52.5821 22.0978 53.872 25.2366 53.875 28.9583C53.878 32.6801 52.588 35.8189 50.0052 38.3747C47.4223 40.9304 44.2539 42.2083 40.5 42.2083ZM40.5 79.75C34.9033 79.75 29.6648 78.718 24.7844 76.6539C19.904 74.5899 15.6567 71.7691 12.0425 68.1916C8.42824 64.6141 5.58085 60.4065 3.50029 55.5687C1.41974 50.731 0.377973 45.5414 0.375001 40C0.372028 34.4586 1.41379 29.269 3.50029 24.4313C5.58679 19.5935 8.43418 15.3859 12.0425 11.8084C15.6567 8.23092 19.904 5.41014 24.7844 3.34608C29.6648 1.28203 34.9033 0.25 40.5 0.25C46.0967 0.25 51.3352 1.28203 56.2156 3.34608C61.096 5.41014 65.3433 8.23092 68.9575 11.8084C72.5718 15.3859 75.4192 19.5935 77.4997 24.4313C79.5803 29.269 80.622 34.4586 80.625 40C80.628 45.5414 79.5862 50.731 77.4997 55.5687C75.4132 60.4065 72.5658 64.6141 68.9575 68.1916C65.3433 71.7691 61.096 74.5899 56.2156 76.6539C51.3352 78.718 46.0967 79.75 40.5 79.75Z" fill="#3D2E76"/>
</svg>
